<?xml version="1.0" encoding="utf-8"?>
<!-- Generator: Adobe Illustrator 27.3.0, SVG Export Plug-In . SVG Version: 6.00 Build 0)  -->
<svg version="1.1" xmlns="http://www.w3.org/2000/svg" xmlns:xlink="http://www.w3.org/1999/xlink" x="0px" y="0px"
	 viewBox="0 0 1007.8 614.7" style="enable-background:new 0 0 1007.8 614.7;" xml:space="preserve">
<style type="text/css">
	.st0{display:none;}
	.st1{display:inline;}
	.st2{fill:#F1F0F0;}
	.st3{fill:#F4F3F3;}
	.st4{fill:#FEFEFE;}
	.st5{fill:#F7F6F6;}
	.st6{fill:#F1F1F1;}
	.st7{fill:#FCFCFC;}
	.st8{fill:#E9E9E9;}
	.st9{fill:#FFFFFF;}
	.st10{fill:#E6E6E6;}
	.st11{fill:#E4E4E5;}
	.st12{fill:#E5E5E5;}
	.st13{fill:#E7E7E7;}
	.st14{fill:#FDFDFD;}
	.st15{fill:#E3E3E3;}
	.st16{fill:#DBDBDB;}
	.st17{fill:#E0E0E0;}
	.st18{fill:#ECECEC;}
	.st19{fill:#EDEDED;}
	.st20{fill:#E8E8E8;}
	.st21{fill:#FAFAFA;}
	.st22{fill:#DEDEDE;}
	.st23{fill:#030303;}
	.st24{fill:#2C2B2B;}
	.st25{fill:#636262;}
	.st26{fill:#231F1F;}
	.st27{fill:#221E1E;}
</style>
<g id="Layer_1" class="st0">
	<g class="st1">
		<path class="st2" d="M987.7,410.9c0,30,0,59.9,0,89.9c-1.7,0-3.3,0-5,0c-0.2-4.7,1.5-11.4-0.9-13.6c-2.8-2.5-9.2-1.1-14-1.3
			c-4.7,0.2-11.4-1.5-13.6,1c-2.5,2.8-1.1,9.2-1.4,14c-3.5,0.6-6.1-0.4-7.1-4c0.7-9.1,1.4-18.2,2.1-27.4c1.1-13.5,2.1-27,3.2-40.5
			c0.6,1.2,1.6,2.3,1.7,3.5c0.3,2.8,0.1,5.6,0.1,8.5c0.2,4.7-1.5,11.4,1,13.6c2.8,2.5,9.2,1.1,14,1.3c4.7-0.2,11.4,1.5,13.6-1
			c2.5-2.8,1.1-9.2,1.4-14c0-5,0-10,0-15c0-5,0-10,0-15C984.4,411,986.1,411,987.7,410.9z"/>
		<path class="st2" d="M67.7,530.8c0-10,0-20,0-30c5,0,10,0,15,0c5,0,10,0,15,0c4.8,0.3,11.3-1.2,14.1,1.3c2.4,2.2,0.8,8.9,0.9,13.6
			c0,5,0,10,0,15c-5,0-10,0-15,0c-5,0-10,0-15,0S72.7,530.8,67.7,530.8z"/>
		<path class="st3" d="M987.7,36.5c0,44.9,0,89.9,0,134.8c-1.7,0-3.3,0-5,0c0-3.8-0.1-7.6,0-11.3c0.1-2.8-1-3.9-3.8-3.7
			c-1.6,0.2-3.2,0.2-4,0.2c-1.3,2.7-2.2,4.7-3.1,6.8c0.7-8,1.3-15.9,2-23.9c2.7,0.8,5.3,1.7,8.8,2.8c0-4.5-0.3-7.5,0.1-10.4
			c0.5-4.4-1.1-6.1-5.5-5.4c-0.8,0.1-1.6,0-2.5,0c0.6-7.3,1.1-14.7,1.7-22c0.4,1.3,0.6,2.8,1.2,4c0.5,1.1,1.5,2,2.3,3
			c0.9-1.1,2.4-2,2.5-3.2c0.3-3.7,0.1-7.5,0.1-11.2c-0.4,0.2-0.8,0.4-1.2,0.6c-1.5-1.4-3-2.8-4.5-4.2c0.9-9.4,2.3-18.7,2.5-28.1
			c0.2-6.6-1.2-13.2-1.9-19.8c-0.2-0.7-0.5-1.4-0.7-2c-0.4-1.2-0.8-2.5-1.3-3.7c0.3-5.5,4.6-2.4,7.1-3.3
			C984.4,36.5,986.1,36.5,987.7,36.5z"/>
		<path class="st4" d="M112.7,666.6c-5,0-10,0-15,0c0-0.3,0-0.7,0-1c-0.2-4.7,1.5-11.4-0.9-13.6c-2.8-2.5-9.2-1.1-14.1-1.4
			c0,0,0,0,0,0c0-5,0-10,0-15c0,0,0,0,0,0c4.7-0.2,11.4,1.5,13.7-1c2.5-2.8,1.1-9.2,1.3-14c5,0,10,0,15,0c0.2,4.7-1.5,11.4,0.9,13.6
			c2.8,2.5,9.2,1.1,14.1,1.3c0,5,0,10,0,15l0,0c-3.9,0-7.9-0.2-11.8,0.2c-1.2,0.1-2.9,1.9-3,3C112.5,658,112.7,662.3,112.7,666.6z"
			/>
		<path class="st5" d="M987.7,410.9c-1.7,0-3.3,0-5,0l0,0c-0.2-4.7,1.5-11.4-1-13.6c-2.8-2.5-9.2-1.1-14.1-1.3c0-5,0-10,0-15
			c4,0,7.9,0.2,11.9-0.2c1.1-0.1,3.1-2.2,2.9-3.1c-0.7-3.9,2.6-8.5-2-11.6c-0.6-0.4-1.6-0.1-2.4-0.1c-3.5,0-6.9,0-10.4,0
			c0-5,0-10,0-15c4.7-0.2,11.4,1.5,13.7-1c2.5-2.8,1.1-9.2,1.3-14c0-5,0-10,0-15c1.7,0,3.3,0,5,0C987.7,351,987.7,381,987.7,410.9z"
			/>
		<path class="st6" d="M67.7,246.2c0-10,0-20,0-30c1.6,0,3.3,0,4.9,0c10,0,10,0,10.1,10.1c0,2.3-0.9,5.2,2.8,5.9
			c0.1,3.1,0,6.3,0.3,9.4c1.3,16.1,2.6,32.3,4,48.4c-0.1,1.4-0.2,2.7-0.3,4.1c-0.9-4.4-4.3-2.7-6.7-3l0,0c0-5,0-10,0-15
			c0-5,0-10,0-15c-0.2-4.7,1.5-11.4-1-13.6C79,245,72.6,246.5,67.7,246.2z"/>
		<path class="st7" d="M982.7,36.5c-2.5,0.8-6.8-2.3-7.1,3.3c-4.3-5.1-8.6-10.3-12.8-15.4c-7.7-9.8-16.3-18.7-28.1-23.7
			c2.1-0.9,3.8-1.9,3.1-4.7c-0.3-1.4-0.1-2.9-0.1-4.4c5,0,10,0,15,0c0.2,4.7-1.5,11.4,1,13.6c2.8,2.5,9.2,1.1,14.1,1.3
			c0,1.3,0,2.6,0,4c0,10.7,0,10.8,10.7,11c3.1,0,4.6,0.8,4.3,4.2C982.5,29.2,982.7,32.9,982.7,36.5z"/>
		<path class="st8" d="M987.7,261.2c0,15,0,30,0,44.9c-1.7,0-3.3,0-5,0c-0.3-4.8,1.2-11.2-1.3-14c-2.2-2.4-8.9-0.8-13.7-0.9
			c0-5,0-10,0-15c4.8-0.3,11.3,1.2,14-1.3c2.4-2.2,0.8-8.9,1-13.6C984.4,261.2,986.1,261.2,987.7,261.2z"/>
		<path class="st2" d="M367.7-8.4c5,0,10,0,15,0c0,5,0,10,0,15c-0.3,4.8,1.2,11.3-1.3,14c-2.2,2.4-8.9,0.8-13.7,0.9c0-5,0-10,0-15
			C367.7,1.6,367.7-3.4,367.7-8.4z"/>
		<path class="st8" d="M982.7,36.5c0-3.6-0.2-7.3,0.1-10.9c0.2-3.4-1.2-4.1-4.3-4.2c-10.7-0.1-10.7-0.2-10.7-11c0-1.3,0-2.6,0-4
			c0,0,0,0,0,0c4.7-0.2,11.4,1.5,13.7-1c2.5-2.8,1.1-9.2,1.3-14c1.7,0,3.3,0,5,0c0,15,0,30,0,44.9C986.1,36.5,984.4,36.5,982.7,36.5
			z"/>
		<path class="st2" d="M987.7,261.2c-1.7,0-3.3,0-5,0l0,0c0-5,0-10,0-15c0-5,0-10,0-15c0-5,0-10,0-15c0-5,0-10,0-15c0-5,0-10,0-15
			c0-5,0-10,0-15l0,0c1.7,0,3.3,0,5,0C987.7,201.3,987.7,231.2,987.7,261.2z"/>
		<path class="st5" d="M547.7-8.4c5,0,10,0,15,0c0,5,0,10,0,15c-0.9,0.7-1.8,1.3-2.6,2c-0.8,0.6-1.6,1.2-2.4,1.8
			c-10.3,0.7-20.7,1.4-31,2c-0.3,0-0.6,0-1,0c-1,0.1-2,0.2-3,0.3c-2.3-1.5-6.6-1.4-5-6.1l0,0c5,0,10,0,15,0c4.7-0.2,11.4,1.5,13.7-1
			C548.9,2.8,547.4-3.6,547.7-8.4z"/>
		<path class="st9" d="M557.7,10.3c0.8-0.6,1.6-1.2,2.4-1.8c0.9-0.7,1.8-1.3,2.6-2c4.7-0.2,11.4,1.5,13.7-1c2.5-2.8,1.1-9.2,1.3-14
			c5,0,10,0,15,0c0,4.8,0,9.7,0,14.1c2.5,0.8,4.3,1.4,6.1,2c-1.5,0.3-3.1,0.8-4.6,0.8c-3.8,0.1-7.7-0.1-11.5,0.1
			C574.4,9.1,566.1,9.7,557.7,10.3z"/>
		<path class="st4" d="M85.5,232.2c-3.7-0.6-2.7-3.6-2.8-5.9c-0.1-10.1-0.1-10.1-10.1-10.1c-1.6,0-3.3,0-4.9,0c0-5,0-10,0-15
			c5,0,9.9,0,14.9,0C83.6,211.6,84.5,221.9,85.5,232.2z"/>
		<path class="st9" d="M607.7-8.4c5,0,10,0,15,0c0,1,0,2,0,2.9c0.1,3.1-0.6,6.7,0.8,9c0.9,1.4,5,0.8,7.7,1.2c0.6,0.1,1.1,0.7,1.6,1
			c-2.4,0.2-4.7,0.5-7.1,0.7c-0.7,0-1.3-0.1-2-0.1c-4,0.3-8,0.7-12,1c-1.5-0.1-3-0.1-4.5-0.2c-0.6,0.1-1.2,0.2-1.8,0.3
			c0.8-2.2,2-4.3,2.2-6.6C608-2.2,607.7-5.4,607.7-8.4z"/>
		<path class="st4" d="M82.7,666.6c-5,0-10,0-15,0c0-5.3,0-10.7,0-16c5,0,10,0,15,0c0,0,0,0,0,0C82.7,655.9,82.7,661.2,82.7,666.6z"
			/>
		<path class="st10" d="M82.7,666.6c0-5.3,0-10.7,0-16c4.8,0.3,11.3-1.2,14.1,1.4c2.4,2.2,0.8,8.9,0.9,13.6c0,0.3,0,0.7,0,1
			C92.7,666.6,87.7,666.6,82.7,666.6z"/>
		<path class="st10" d="M112.7,666.6c0-4.3-0.2-8.5,0.2-12.8c0.1-1.1,1.9-2.9,3-3c3.9-0.4,7.9-0.2,11.8-0.2c0,5.3,0,10.7,0,16
			C122.7,666.6,117.7,666.6,112.7,666.6z"/>
		<path class="st4" d="M127.7,666.6c0-5.3,0-10.7,0-16c0,0,0,0,0,0c5,0,10,0,15,0c0,5.3,0,10.7,0,16
			C137.7,666.6,132.7,666.6,127.7,666.6z"/>
		<path class="st10" d="M142.7,666.6c0-5.3,0-10.7,0-16c0,0,0,0,0,0c5,0,10,0,15,0c0,5.3,0,10.7,0,16
			C152.7,666.6,147.7,666.6,142.7,666.6z"/>
		<path class="st4" d="M157.7,666.6c0-5.3,0-10.7,0-16c0,0,0,0,0,0c5,0,10,0,15,0c0,5.3,0,10.7,0,16
			C167.7,666.6,162.7,666.6,157.7,666.6z"/>
		<path class="st10" d="M172.7,666.6c0-5.3,0-10.7,0-16c0,0,0,0,0,0c5,0,10,0,15,0c0,5.3,0,10.7,0,16
			C182.7,666.6,177.7,666.6,172.7,666.6z"/>
		<path class="st4" d="M187.7,666.6c0-5.3,0-10.7,0-16c0,0,0,0,0,0c5,0,10,0,15,0c0,5.3,0,10.7,0,16
			C197.7,666.6,192.7,666.6,187.7,666.6z"/>
		<path class="st11" d="M607.7-8.4c0,3.1,0.3,6.2-0.1,9.2c-0.3,2.2-1.5,4.4-2.2,6.6c-0.2,0.1-0.3,0.1-0.5,0c-0.2-0.3-0.4-0.6-0.6-1
			c-0.2,0.3-0.4,0.7-0.6,1c-1.7,0.1-3.3,0.2-5,0.3c-1.8-0.6-3.5-1.2-6.1-2c0-4.5,0-9.3,0-14.1C597.7-8.4,602.7-8.4,607.7-8.4z"/>
		<path class="st9" d="M67.7,6.5c0-4.9,0-9.8,0-15c5,0,10,0,15,0c0,5,0,10,0,15C77.7,6.6,72.7,6.5,67.7,6.5z"/>
		<path class="st9" d="M97.7-8.4c5,0,10,0,15,0c0,5,0,10,0,15c-5,0-10,0-15,0C97.7,1.6,97.7-3.4,97.7-8.4z"/>
		<path class="st10" d="M112.7,6.6c0-5,0-10,0-15c5,0,10,0,15,0c0,5,0,10,0,15C122.7,6.5,117.7,6.5,112.7,6.6L112.7,6.6z"/>
		<path class="st9" d="M127.7,6.6c0-5,0-10,0-15c5,0,10,0,15,0c0,5,0,10,0,15C137.7,6.5,132.7,6.5,127.7,6.6L127.7,6.6z"/>
		<path class="st10" d="M142.7,6.6c0-5,0-10,0-15c5,0,10,0,15,0c0,5,0,10,0,15C152.7,6.5,147.7,6.5,142.7,6.6
			C142.7,6.5,142.7,6.6,142.7,6.6z"/>
		<path class="st9" d="M157.7,6.6c0-5,0-10,0-15c5,0,10,0,15,0c0,5,0,10,0,15C167.7,6.5,162.7,6.5,157.7,6.6
			C157.7,6.5,157.7,6.6,157.7,6.6z"/>
		<path class="st10" d="M172.7,6.6c0-5,0-10,0-15c5,0,10,0,15,0c0,5,0,10,0,15C182.7,6.5,177.7,6.5,172.7,6.6
			C172.7,6.5,172.7,6.6,172.7,6.6z"/>
		<path class="st9" d="M187.7,6.6c0-5,0-10,0-15c5,0,10,0,15,0c0,5,0,10,0,15C197.7,6.5,192.7,6.5,187.7,6.6L187.7,6.6z"/>
		<path class="st10" d="M67.7,51.5c0-5,0-10,0-15c5,0,10,0,15,0c0,5,0,10,0,15C77.7,51.5,72.7,51.5,67.7,51.5z"/>
		<path class="st10" d="M202.7,6.5c0-5,0-10,0-15c5,0,10,0,15,0c0,5,0,10,0,15C212.7,6.6,207.7,6.5,202.7,6.5
			C202.7,6.5,202.7,6.5,202.7,6.5z"/>
		<path class="st9" d="M217.7,6.6c0-5,0-10,0-15c5,0,10,0,15,0c0,5,0,10,0,15C227.7,6.5,222.7,6.5,217.7,6.6L217.7,6.6z"/>
		<path class="st10" d="M232.7,6.6c0-5,0-10,0-15c5,0,10,0,15,0c0,5,0,10,0,15C242.7,6.5,237.7,6.5,232.7,6.6L232.7,6.6z"/>
		<path class="st9" d="M247.7,6.6c0-5,0-10,0-15c5,0,10,0,15,0c0,5,0,10,0,15C257.7,6.5,252.7,6.5,247.7,6.6L247.7,6.6z"/>
		<path class="st10" d="M262.7,6.6c0-5,0-10,0-15c5,0,10,0,15,0c0,5,0,10,0,15C272.7,6.5,267.7,6.5,262.7,6.6L262.7,6.6z"/>
		<path class="st9" d="M67.7,51.5c5,0,10,0,15,0c0,0,0,0,0,0c0,5,0,10,0,15c-5,0-10,0-15,0C67.7,61.5,67.7,56.5,67.7,51.5z"/>
		<path class="st9" d="M277.7,6.6c0-5,0-10,0-15c5,0,10,0,15,0c0,5,0,10,0,15C287.7,6.5,282.7,6.5,277.7,6.6L277.7,6.6z"/>
		<path class="st10" d="M292.7,6.6c0-5,0-10,0-15c5,0,10,0,15,0c0,5,0,10,0,15C302.7,6.5,297.7,6.5,292.7,6.6L292.7,6.6z"/>
		<path class="st9" d="M307.7,6.6c0-5,0-10,0-15c5,0,10,0,15,0c0,5,0,10,0,15C317.7,6.5,312.7,6.5,307.7,6.6L307.7,6.6z"/>
		<path class="st10" d="M67.7,66.5c5,0,10,0,15,0c0,0,0,0,0,0c0,5,0.1,10.1,0.1,15.1l0,0c-5,0-10.1-0.1-15.1-0.1
			C67.7,76.4,67.7,71.5,67.7,66.5z"/>
		<path class="st10" d="M322.7,6.5c0-5,0-10,0-15c5,0,10,0,15,0c0,5,0,10,0,15C332.7,6.6,327.7,6.5,322.7,6.5L322.7,6.5z"/>
		<path class="st9" d="M337.7,6.6c0-5,0-10,0-15c5,0,10,0,15,0c0,5,0,10,0,15c0,0,0,0,0,0C347.7,6.5,342.7,6.5,337.7,6.6
			C337.7,6.5,337.7,6.6,337.7,6.6z"/>
		<path class="st10" d="M352.7,6.6c0-5,0-10,0-15c5,0,10,0,15,0c0,5,0,10,0,15C362.7,6.5,357.7,6.6,352.7,6.6z"/>
		<path class="st10" d="M382.7,6.5c0-5,0-10,0-15c5,0,10,0,15,0c0,5,0,10,0,15C392.7,6.6,387.7,6.5,382.7,6.5z"/>
		<path class="st9" d="M397.7,6.6c0-5,0-10,0-15c5,0,10,0,15,0c0,5,0,10,0,15C407.7,6.5,402.7,6.5,397.7,6.6
			C397.7,6.5,397.7,6.6,397.7,6.6z"/>
		<path class="st10" d="M412.7,6.6c0-5,0-10,0-15c5,0,10,0,15,0c0,5,0,10,0,15C422.7,6.5,417.7,6.5,412.7,6.6
			C412.7,6.5,412.7,6.6,412.7,6.6z"/>
		<path class="st9" d="M427.7,6.6c0-5,0-10,0-15c5,0,10,0,15,0c0,5,0,10,0,15C437.7,6.5,432.7,6.5,427.7,6.6L427.7,6.6z"/>
		<path class="st10" d="M442.7,6.6c0-5,0-10,0-15c5,0,10,0,15,0c0,5,0,10,0,15C452.7,6.5,447.7,6.5,442.7,6.6L442.7,6.6z"/>
		<path class="st9" d="M457.7,6.6c0-5,0-10,0-15c5,0,10,0,15,0c0,5,0,10,0,15C467.7,6.6,462.7,6.5,457.7,6.6
			C457.7,6.5,457.7,6.6,457.7,6.6z"/>
		<path class="st10" d="M472.7,6.6c0-5,0-10,0-15c5,0,10,0,15,0c0,5,0,10,0,15C482.7,6.5,477.7,6.5,472.7,6.6L472.7,6.6z"/>
		<path class="st9" d="M487.7,6.6c0-5,0-10,0-15c5,0,10,0,15,0c0,5,0,10,0,15c0,0,0,0,0,0C497.7,6.5,492.7,6.5,487.7,6.6L487.7,6.6z
			"/>
		<path class="st10" d="M502.7,6.6c0-5,0-10,0-15c5,0,10,0,15,0c0,5,0,10,0,15c0,0,0,0,0,0C512.7,6.6,507.7,6.6,502.7,6.6z"/>
		<path class="st9" d="M517.7,6.5c0-5,0-10,0-15c5,0,10,0,15,0c0,5,0,10,0,15C527.7,6.5,522.7,6.5,517.7,6.5z"/>
		<path class="st10" d="M532.7,6.5c0-5,0-10,0-15c5,0,10,0,15,0c-0.3,4.8,1.2,11.3-1.4,14C544.1,8,537.4,6.4,532.7,6.5z"/>
		<path class="st10" d="M577.7-8.4c-0.3,4.8,1.2,11.2-1.3,14c-2.2,2.4-8.9,0.8-13.7,1c0-5,0-10,0-15C567.7-8.4,572.7-8.4,577.7-8.4z
			"/>
		<path class="st9" d="M82.7,36.5c-5,0-10,0-15,0c0-5,0-10,0-15c5,0,10,0,15,0C82.7,26.5,82.7,31.5,82.7,36.5
			C82.7,36.5,82.7,36.5,82.7,36.5z"/>
		<path class="st10" d="M67.7,246.2c4.8,0.3,11.3-1.2,14,1.3c2.4,2.2,0.8,8.9,1,13.6c-5,0-10,0-15,0
			C67.7,256.2,67.7,251.2,67.7,246.2z"/>
		<path class="st9" d="M67.7,261.2c5,0,10,0,15,0c0,5,0,10,0,15c-5,0-10,0-15,0C67.7,271.2,67.7,266.2,67.7,261.2z"/>
		<path class="st10" d="M67.7,276.1c5,0,10,0,15,0c0,5,0,10,0,15c-5,0-10,0-15,0C67.7,286.1,67.7,281.1,67.7,276.1z"/>
		<path class="st9" d="M67.7,291.1c5,0,10,0,15,0c0,0,0,0,0,0c0,5,0,10,0,15c-5,0-10,0-15,0C67.7,301.1,67.7,296.1,67.7,291.1z"/>
		<path class="st10" d="M967.7,6.5c-4.8-0.3-11.3,1.2-14.1-1.3c-2.4-2.2-0.8-8.9-1-13.6c5,0,10,0,15,0
			C967.7-3.4,967.7,1.6,967.7,6.5C967.7,6.6,967.7,6.5,967.7,6.5z"/>
		<path class="st10" d="M67.7,306.1c5,0,10,0,15,0c0,0,0,0,0,0c0,5,0,10,0,15c-5,0-10,0-15,0C67.7,316.1,67.7,311.1,67.7,306.1z"/>
		<path class="st9" d="M67.7,321.1c5,0,10,0,15,0c0,0,0,0,0,0c0,5,0,10,0,15c-5,0-10,0-15,0C67.7,331.1,67.7,326.1,67.7,321.1z"/>
		<path class="st9" d="M967.7,6.6c0-5,0-10,0-15c5,0,10,0,15,0c-0.3,4.8,1.2,11.2-1.3,14C979.2,8,972.4,6.4,967.7,6.6z"/>
		<path class="st10" d="M67.7,336.1c5,0,10,0,15,0c0,0,0,0,0,0c0,5,0,10,0,15c-5,0-10,0-15,0C67.7,346,67.7,341.1,67.7,336.1z"/>
		<path class="st9" d="M67.7,351c5,0,10,0,15,0c0,0,0,0,0,0c0,5,0,10,0,15c-5,0-10,0-15,0C67.7,361,67.7,356,67.7,351z"/>
		<path class="st10" d="M67.7,366c5,0,10,0,15,0c0,0,0,0,0,0c0,5,0,10,0,15c-5,0-10,0-15,0C67.7,376,67.7,371,67.7,366z"/>
		<path class="st9" d="M67.7,381c5,0,10,0,15,0c0,0,0,0,0,0c0,5,0,10,0,15c-5,0-10,0-15,0C67.7,391,67.7,386,67.7,381z"/>
		<path class="st10" d="M82.7,650.6c-5,0-10,0-15,0c0-5,0-10,0-15c5,0,10,0,15,0C82.7,640.6,82.7,645.6,82.7,650.6z"/>
		<path class="st10" d="M67.7,396c5,0,10,0,15,0c0,0,0,0,0,0c0,5,0,10,0,15c-5,0-10,0-15,0C67.7,406,67.7,401,67.7,396z"/>
		<path class="st9" d="M67.7,410.9c5,0,10,0,15,0c0,0,0,0,0,0c0,5,0,10,0,15c-5,0-10,0-15,0C67.7,420.9,67.7,415.9,67.7,410.9z"/>
		<path class="st10" d="M67.7,425.9c5,0,10,0,15,0c0,0,0,0,0,0c0,5,0,10,0,15c-5,0-10,0-15,0C67.7,435.9,67.7,430.9,67.7,425.9z"/>
		<path class="st9" d="M67.7,440.9c5,0,10,0,15,0c0,0,0,0,0,0c0,5,0,10,0,15c-5,0-10,0-15,0C67.7,450.9,67.7,445.9,67.7,440.9z"/>
		<path class="st10" d="M67.7,455.9c5,0,10,0,15,0c0,0,0,0,0,0c0,5,0,10,0,15c-5,0-10,0-15,0C67.7,465.9,67.7,460.9,67.7,455.9z"/>
		<path class="st9" d="M67.7,470.9c5,0,10,0,15,0c0,5,0,10,0,15l0,0c-5,0-10,0-15,0C67.7,480.8,67.7,475.9,67.7,470.9z"/>
		<path class="st10" d="M67.7,485.8c5,0,10,0,15,0c0,5,0,10,0,15c-5,0-10,0-15,0C67.7,495.8,67.7,490.8,67.7,485.8z"/>
		<path class="st9" d="M67.7,530.8c5,0,10,0,15,0c0,5,0,10,0,15c-5,0-10,0-15,0C67.7,540.8,67.7,535.8,67.7,530.8z"/>
		<path class="st10" d="M67.7,545.7c5,0,10,0,15,0c0,0,0,0,0,0c0,5,0,10,0,15c-5,0-10,0-15,0C67.7,555.7,67.7,550.7,67.7,545.7z"/>
		<path class="st9" d="M82.7,635.6c-5,0-10,0-15,0c0-5,0-10,0-15c5,0,10,0,15,0C82.7,625.6,82.7,630.6,82.7,635.6L82.7,635.6z"/>
		<path class="st9" d="M67.7,560.7c5,0,10,0,15,0c0,0,0,0,0,0c0,5,0,10,0,15c-5,0-10,0-15,0C67.7,570.7,67.7,565.7,67.7,560.7z"/>
		<path class="st10" d="M97.7-8.4c0,5,0,10,0,15c0,0,0,0,0,0c-5,0-10,0-15,0l0,0c0-5,0-10,0-15C87.7-8.4,92.7-8.4,97.7-8.4z"/>
		<path class="st10" d="M67.7,575.7c5,0,10,0,15,0c0,0,0,0,0,0c0,5,0,10,0,15c-5,0-10,0-15,0C67.7,585.7,67.7,580.7,67.7,575.7z"/>
		<path class="st9" d="M67.7,590.7c5,0,10,0,15,0c0,0,0,0,0,0c0,5,0,10,0,15c-5,0-10,0-15,0C67.7,600.7,67.7,595.7,67.7,590.7z"/>
		<path class="st10" d="M67.7,605.7c5,0,10,0,15,0c0,0,0,0,0,0c0,5,0,10,0,15l0,0c-5,0-10,0-15,0C67.7,615.6,67.7,610.7,67.7,605.7z
			"/>
		<path class="st10" d="M82.7,21.5c-5,0-10,0-15,0c0-5,0-10,0-15c5,0,10,0,15,0c0,0,0,0,0,0C82.7,11.5,82.7,16.5,82.7,21.5
			L82.7,21.5z"/>
		<path class="st12" d="M82.6,201.3c-5,0-9.9,0-14.9,0c0-5,0-10,0-15c4.6,0,9.2,0,13.9,0c0.3,3.3,0.7,6.7,1,10
			c-0.1,0.1-0.3,0.2-0.3,0.3c0.1,0.2,0.2,0.5,0.3,0.7C82.6,198.6,82.6,199.9,82.6,201.3z M81.2,190.9c0,0.3,0,0.5-0.1,0.8
			c0.1-0.1,0.2-0.2,0.3-0.4C81.4,191.2,81.3,191,81.2,190.9z"/>
		<path class="st4" d="M667.7-8.4c5,0,10,0,15,0c0,1.6,0.2,3.3,0,4.9c-0.5,4.1,1.1,5.6,5.1,5.2c1.9-0.2,4,0.7,5.9,1
			c-10,0.6-20,1.1-30,1.7c4.4-2.5,4.4-6.6,4-10.9C667.7-7.1,667.7-7.8,667.7-8.4z"/>
		<path class="st9" d="M637.7-8.4c5,0,10,0,15,0c0,4.4,0,8.7,0.1,13.1c-5,0.2-10,0.5-15,0.7C637.7,0.8,637.7-3.8,637.7-8.4z"/>
		<path class="st13" d="M202.7,666.6c0-5.3,0-10.7,0-16c0,0,0,0,0,0c2.7,0,5.4,0,8.1,0c-0.2,2.3-0.4,4.5-0.7,7.6
			c2.5-2.2,4.6-4,6.6-5.7c0.3,4.7,0.7,9.4,1,14.1C212.7,666.6,207.7,666.6,202.7,666.6z"/>
		<path class="st9" d="M81.6,186.3c-4.6,0-9.2,0-13.9,0c0-5,0-10,0-15c4.3-0.8,9.1,1.9,12.8-2C80.9,175,81.2,180.6,81.6,186.3z"/>
		<path class="st10" d="M637.7-8.4c0,4.6,0,9.2,0,13.8c-1.7,0.1-3.3,0.2-5,0.3c-0.5-0.3-1-0.9-1.6-1c-2.7-0.4-6.9,0.2-7.7-1.2
			c-1.4-2.3-0.6-5.9-0.8-9c0-1,0-2,0-2.9C627.7-8.4,632.7-8.4,637.7-8.4z"/>
		<path class="st10" d="M652.8,4.7c0-4.4,0-8.7-0.1-13.1c5,0,10,0,15,0c0,0.6-0.1,1.3,0,1.9c0.5,4.3,0.4,8.4-4,10.9c-2,0-4,0-6,0
			c-0.3,0-0.6,0-1,0C655.4,4.5,654.1,4.6,652.8,4.7z"/>
		<path class="st10" d="M80.6,169.3c-3.8,3.9-8.6,1.2-12.8,2c0-5,0-10,0-15c3.9,0,7.9,0,11.8,0C79.9,160.6,80.2,165,80.6,169.3z"/>
		<path class="st4" d="M697.7-8.4c5,0,10,0,15,0c0,2.8,0,5.7,0,8.1c2.5,0.8,4.3,1.4,6.1,2c-7,0.2-14,0.5-21,0.7
			C697.7-1.2,697.7-4.8,697.7-8.4z"/>
		<path class="st14" d="M67.7,81.4c5,0,10.1,0.1,15.1,0.1c-2.1,5-4.2,9.9-6.3,14.9c-2.9,0-5.9,0-8.8,0
			C67.7,91.4,67.7,86.4,67.7,81.4z"/>
		<path class="st4" d="M79.6,156.3c-3.9,0-7.9,0-11.8,0c0-5,0-10,0-15c3.4,0,6.7,0,10.1,0C78.4,146.3,79,151.3,79.6,156.3z"/>
		<path class="st4" d="M727.7-8.4c5,0,10,0,15,0c0,3.6-1,7.7,4.1,9.1c-6.7,0.2-13.4,0.5-20,0.7C727.1-1.9,727.4-5.2,727.7-8.4z"/>
		<path class="st10" d="M697.7-8.4c0,3.6,0,7.2,0,10.8c-1.3,0.1-2.6,0.2-4,0.3c-2-0.4-4-1.2-5.9-1c-4.1,0.3-5.7-1.2-5.1-5.2
			c0.2-1.6,0-3.2,0-4.9C687.7-8.4,692.7-8.4,697.7-8.4z"/>
		<path class="st15" d="M77.8,141.3c-3.4,0-6.7,0-10.1,0c0-5,0-10,0-15c3,0.7,7-2,8.7,3.8c0.1-2.3,0.2-3.6,0.3-4.8
			c0.3,2,0.5,4,0.8,6.1c-0.1,0.1-0.3,0.2-0.3,0.3c0.1,0.2,0.2,0.5,0.4,0.7C77.7,135.3,77.8,138.3,77.8,141.3z"/>
		<path class="st9" d="M757.7-8.4c5,0,10,0,15,0c0,3.1-0.8,6.5,3.1,8.1c-6.3,0.2-12.7,0.4-19,0.7C757.1-2.6,757.4-5.5,757.7-8.4z"/>
		<path class="st10" d="M727.7-8.4c-0.3,3.3-0.7,6.5-1,9.8c-2.7,0.1-5.3,0.2-8,0.3c-1.8-0.6-3.5-1.2-6.1-2c0-2.4,0-5.3,0-8.1
			C717.7-8.4,722.7-8.4,727.7-8.4z"/>
		<path class="st4" d="M787.7-8.4c5,0,10,0,15,0c-0.9,5,1.3,6.7,6.1,6.1c1.6-0.2,3.3,0.7,4.9,1.1c-0.7,0.3-1.4,0.8-2.1,0.8
			c-8,0-16-0.1-24-0.1C787.7-3.2,787.7-5.8,787.7-8.4z"/>
		<path class="st4" d="M76.7,125.3c-0.1,1.3-0.1,2.5-0.3,4.8c-1.7-5.8-5.8-3.1-8.7-3.8c0-5,0-10,0-15c2.6,0,5.2,0,7.9,0
			C76,116,76.4,120.7,76.7,125.3z"/>
		<path class="st10" d="M757.7-8.4c-0.3,2.9-0.7,5.9-1,8.8c-1.7,0-3.4,0-5,0c-0.3,0-0.6,0-1,0c-1.3,0.1-2.6,0.2-4,0.3
			c-5-1.4-4.1-5.5-4.1-9.1C747.7-8.4,752.7-8.4,757.7-8.4z"/>
		<path class="st9" d="M847.7-8.4c5,0,10,0,15,0c0.1,1.5,0.2,3.1,0.3,4.3c4.3,0.7,8,1.2,11.7,1.8c-6,0.2-12,0.4-18,0.6
			C851.5-2.1,846.2-2.5,841-3c0-0.1,0-0.2,0-0.3c2.1-0.2,4.1-0.3,6.4-0.5C847.5-5.5,847.6-7,847.7-8.4z"/>
		<path class="st13" d="M75.6,111.4c-2.6,0-5.2,0-7.9,0c0-5,0-10,0-15c2.9,0,5.9,0,8.8,0c-0.3,3.3-0.7,6.7-1,10
			c-0.1,0.1-0.3,0.2-0.3,0.3c0.1,0.2,0.2,0.5,0.3,0.7C75.6,108.7,75.6,110.1,75.6,111.4z"/>
		<path class="st10" d="M787.7-8.4c0,2.6,0,5.2,0,7.8c-4,0.1-8,0.2-12,0.3c-3.9-1.6-3-5.1-3.1-8.1C777.7-8.4,782.7-8.4,787.7-8.4z"
			/>
		<path class="st4" d="M817.7-8.4c5,0,10,0,15,0c0.3,2.3,0.7,4.5,1,6.8c-5.3,0-10.6,0-16,0C817.7-3.9,817.7-6.1,817.7-8.4z"/>
		<path class="st4" d="M907.7-8.4c5,0,10,0,15,0c0.1,1.4,0.2,2.9,0.2,3.7c2.9,1.5,5.3,2.8,7.8,4.1c-7.7-0.7-15.3-1.4-23-2
			C907.7-4.6,907.7-6.5,907.7-8.4z"/>
		<path class="st16" d="M833.7-1.6c-0.3-2.3-0.7-4.5-1-6.8c5,0,10,0,15,0c-0.1,1.4-0.2,2.9-0.3,4.6c-2.3,0.2-4.4,0.4-6.4,0.5
			c0,0.1,0,0.2,0,0.3c5.3,0.4,10.5,0.9,15.8,1.3C849.1-1.7,841.4-1.6,833.7-1.6z"/>
		<path class="st11" d="M930.7-0.6c-2.4-1.3-4.9-2.6-7.8-4.1c0-0.9-0.1-2.3-0.2-3.7c5,0,10,0,15,0c0,1.5-0.3,3,0.1,4.4
			c0.7,2.8-1,3.8-3.1,4.7C933.3,0.3,932-0.2,930.7-0.6z"/>
		<path class="st10" d="M817.7-8.4c0,2.3,0,4.6,0,6.8c-1.3,0.1-2.6,0.2-4,0.3c-1.6-0.4-3.4-1.2-4.9-1.1c-4.9,0.6-7.1-1.1-6.1-6.1
			C807.7-8.4,812.7-8.4,817.7-8.4z"/>
		<path class="st9" d="M877.7-8.4c5,0,10,0,15,0c0,1.9,0,3.9,0,5.8c-5,0-10,0-15,0C877.7-4.5,877.7-6.5,877.7-8.4z"/>
		<path class="st13" d="M892.7-2.6c0-1.9,0-3.9,0-5.8c5,0,10,0,15,0c0,1.9,0,3.9,0,5.8C902.7-2.6,897.7-2.6,892.7-2.6z"/>
		<path class="st10" d="M877.7-8.4c0,1.9,0,3.9,0,5.8c-1,0.1-2,0.2-3,0.3c-3.7-0.6-7.4-1.2-11.7-1.8c-0.1-1.2-0.2-2.8-0.3-4.3
			C867.7-8.4,872.7-8.4,877.7-8.4z"/>
		<path class="st9" d="M982.7,306.1c1.7,0,3.3,0,5,0c0,5,0,10,0,15c-1.7,0-3.3,0-5,0c0,0,0,0,0,0
			C982.7,316.1,982.7,311.1,982.7,306.1L982.7,306.1z"/>
		<path class="st4" d="M950.9,428.9c0.2-2.7,0.4-5.4,0.7-8c0.7,1.6,1.3,3.1,2.1,5.1c4.6,0,9.3,0,14,0l0,0c0,5,0,10,0,15
			c-5,0-10,0-15,0c0-2.8,0.2-5.7-0.1-8.5C952.5,431.2,951.5,430.1,950.9,428.9z"/>
		<path class="st9" d="M982.7,411c0,5,0,10,0,15c-5,0-10,0-15,0c0,0,0,0,0,0c0-5,0-10,0-15l0,0C972.7,411,977.7,411,982.7,411
			L982.7,411z"/>
		<path class="st10" d="M967.7,425.9c5,0,10,0,15,0c0,5,0,10,0,15c-5,0-10,0-15,0l0,0C967.7,435.9,967.7,430.9,967.7,425.9z"/>
		<path class="st10" d="M952.7,440.9c5,0,10,0,15,0c0,0,0,0,0,0c0,5,0,10,0,15c-4.8-0.3-11.3,1.2-14-1.3
			C951.2,452.3,952.9,445.6,952.7,440.9z"/>
		<path class="st9" d="M967.7,455.9c0-5,0-10,0-15c5,0,10,0,15,0c-0.3,4.8,1.2,11.2-1.4,14C979.2,457.4,972.4,455.7,967.7,455.9z"/>
		<path class="st9" d="M952.7,500.8c0.3-4.8-1.2-11.2,1.4-14c2.2-2.4,8.9-0.8,13.6-1c0,5,0,10,0,15v0
			C962.7,500.8,957.7,500.8,952.7,500.8L952.7,500.8z"/>
		<path class="st10" d="M967.7,500.8c0-5,0-10,0-15c4.8,0.3,11.3-1.2,14,1.3c2.4,2.2,0.8,8.9,0.9,13.6
			C977.7,500.8,972.7,500.8,967.7,500.8z"/>
		<path class="st4" d="M943.9,515.8c0.6-6.3,1.1-12.7,1.7-19c1.1,3.7,3.6,4.6,7.1,4c0,0,0,0,0,0c0,5,0,10,0,15c0,0,0,0,0,0
			C949.8,515.8,946.8,515.8,943.9,515.8z"/>
		<path class="st10" d="M112.7,515.8c-0.2-4.7,1.5-11.4-0.9-13.6c-2.8-2.5-9.2-1.1-14.1-1.3c0-5,0-10,0-15c3,0,5.9,0,8.9,0
			c1.1,2.3,2.3,4.6,3.4,6.9c5.1,10.2,14.7,15.8,23.4,22.2c3.1,2.5,6.2,4.9,9.2,7.4c0,2.8,0,5.6,0.1,8.5c-5,0-10,0-15,0
			c-0.3-4.8,1.2-11.2-1.3-14C124.2,514.3,117.4,516,112.7,515.8z"/>
		<path class="st9" d="M97.7,485.8c0,5,0,10,0,15c-5,0-10,0-15,0c0-5,0-10,0-15c0,0,0,0,0,0C87.7,485.8,92.7,485.8,97.7,485.8z"/>
		<path class="st9" d="M112.7,515.8c4.7,0.2,11.4-1.5,13.7,0.9c2.5,2.8,1.1,9.2,1.3,14l0,0c-5,0-10,0-15,0l0,0
			C112.7,525.8,112.7,520.8,112.7,515.8z"/>
		<path class="st10" d="M82.7,545.8c0-5,0-10,0-15c5,0,10,0,15,0c0,5,0,10,0,15C92.7,545.8,87.7,545.7,82.7,545.8
			C82.7,545.7,82.7,545.8,82.7,545.8z"/>
		<path class="st9" d="M97.7,545.8c0-5,0-10,0-15c5,0,10,0,15,0c0,0,0,0,0,0c0,5,0,10,0,15C107.7,545.8,102.7,545.7,97.7,545.8
			C97.7,545.7,97.7,545.8,97.7,545.8z"/>
		<path class="st10" d="M952.7,515.8c0-5,0-10,0-15c5,0,10,0,15,0c0,5,0,10,0,15C962.7,515.8,957.7,515.8,952.7,515.8z"/>
		<path class="st9" d="M952.7,515.8c5,0,10,0,15,0c0,5,0,10,0,15c0,0,0,0,0,0c-5,0-10,0-15,0l0,0
			C952.7,525.8,952.7,520.8,952.7,515.8L952.7,515.8z"/>
		<path class="st9" d="M967.7,530.8c4.8,0.3,11.3-1.2,14,1.3c2.4,2.2,0.8,8.9,1,13.6c-5,0-10,0-15,0
			C967.7,540.8,967.7,535.8,967.7,530.8C967.7,530.8,967.7,530.8,967.7,530.8z"/>
		<path class="st10" d="M967.7,545.8c5,0,10,0,15,0c0,5,0,10,0,15c-5,0-10,0-15,0C967.7,555.7,967.7,550.7,967.7,545.8L967.7,545.8z
			"/>
		<path class="st9" d="M967.7,560.7c5,0,10,0,15,0c0,5,0,10,0,15c-5,0-10,0-15,0C967.7,570.7,967.7,565.7,967.7,560.7L967.7,560.7z"
			/>
		<path class="st10" d="M967.7,575.7c5,0,10,0,15,0c0,5,0,10,0,15c-5,0-10,0-15,0C967.7,585.7,967.7,580.7,967.7,575.7L967.7,575.7z
			"/>
		<path class="st9" d="M967.7,590.7c5,0,10,0,15,0c0,5,0,10,0,15c-5,0-10,0-15,0c0,0,0,0,0,0C967.7,600.7,967.7,595.7,967.7,590.7
			L967.7,590.7z"/>
		<path class="st10" d="M971.6,167.2c0.1-1.3,0.2-2.6,0.3-3.9c0.9-2,1.9-4,3.1-6.8c0.8,0,2.4-0.1,4-0.2c2.7-0.3,3.9,0.8,3.8,3.7
			c-0.2,3.8,0,7.5,0,11.3c0,0,0,0,0,0C978.7,170.8,973.5,173.5,971.6,167.2z"/>
		<path class="st15" d="M974.6,129.3c0.1-1,0.2-2,0.3-2.9c0.8,0,1.7,0.1,2.5,0c4.3-0.7,6,1,5.5,5.4c-0.3,2.9-0.1,5.8-0.1,10.4
			c-3.5-1.1-6.2-1.9-8.8-2.8c0-2.7,0.1-5.3,0.1-8c0.4,1.6,0.8,3.2,1.3,4.8c0.3-0.1,0.6-0.2,0.9-0.2
			C975.6,133.8,975.1,131.5,974.6,129.3z"/>
		<path class="st17" d="M976.6,104.3c0.1-0.6,0.2-1.3,0.3-1.9c0.1-0.1,0.4-0.2,0.4-0.3c-0.1-0.2-0.2-0.5-0.3-0.7
			c0-2.7,0.1-5.3,0.1-8c1.5,1.4,3,2.8,4.5,4.2c0.4-0.2,0.8-0.4,1.2-0.6c0,3.7,0.2,7.5-0.1,11.2c-0.1,1.1-1.6,2.1-2.5,3.2
			c-0.8-1-1.7-1.9-2.3-3C977.2,107.1,977,105.7,976.6,104.3z"/>
		<path class="st7" d="M977.6,45.5c-0.2-0.7-0.5-1.4-0.7-2C977.1,44.2,977.4,44.9,977.6,45.5z"/>
		<path class="st10" d="M142.7,650.6c-5,0-10,0-15,0c0-5,0-10,0-15c0,0,0,0,0,0c5,0,10,0,15,0C142.7,640.6,142.7,645.6,142.7,650.6
			L142.7,650.6z"/>
		<path class="st10" d="M127.7,635.6c-4.8-0.3-11.3,1.2-14.1-1.3c-2.4-2.2-0.8-8.9-0.9-13.6l0,0c5,0,10,0,15,0
			C127.7,625.6,127.7,630.6,127.7,635.6C127.7,635.6,127.7,635.6,127.7,635.6z"/>
		<path class="st10" d="M82.7,635.6c0-5,0-10,0-15c0,0,0,0,0,0c5,0,10,0,15,0c0,0,0,0,0,0c-0.3,4.8,1.2,11.3-1.3,14
			C94.2,637.1,87.4,635.5,82.7,635.6z"/>
		<path class="st10" d="M112.7,620.6c-5,0-10,0-15,0c0,0,0,0,0,0c0-5,0-10,0-15c0,0,0,0,0,0c5,0,10,0,15,0
			C112.7,610.7,112.7,615.6,112.7,620.6L112.7,620.6z"/>
		<path class="st9" d="M982.7,321.1c0,5,0,10,0,15c-5,0-10,0-15,0c0,0,0,0,0,0c0-5,0-10,0-15l0,0
			C972.7,321.1,977.7,321.1,982.7,321.1L982.7,321.1z"/>
		<path class="st10" d="M967.7,336.1c5,0,10,0,15,0c-0.3,4.8,1.2,11.3-1.3,14c-2.2,2.4-8.9,0.8-13.7,1c0,0,0,0,0,0
			C967.7,346,967.7,341.1,967.7,336.1z"/>
		<path class="st10" d="M967.7,366c3.5,0,6.9,0,10.4,0c0.8,0,1.9-0.3,2.4,0.1c4.5,3.1,1.3,7.7,2,11.6c0.2,0.9-1.8,3-2.9,3.1
			c-3.9,0.4-7.9,0.2-11.9,0.2c0,0,0,0,0,0C967.7,376,967.7,371,967.7,366L967.7,366z"/>
		<path class="st10" d="M982.7,411c-5,0-10,0-15,0c0-5,0-10,0-15l0,0c4.8,0.3,11.3-1.2,14.1,1.3C984.2,399.5,982.6,406.2,982.7,411z
			"/>
		<path class="st10" d="M954.6,382.9c0.1-0.6,0.2-1.3,0.3-1.9c4.3,0,8.6,0,12.9,0c0,0,0,0,0,0c0,5,0,10,0,15c0,0,0,0,0,0
			c-4.7,0-9.4,0-14.1-0.1c0.1-1.7,0.2-3.3,0.3-5C957.2,388.5,956,385.7,954.6,382.9z"/>
		<path class="st10" d="M956.6,358c0.1-1.6,0.2-3.3,0.3-4.9c3.6-0.7,7.2-1.3,10.8-2c0,0,0,0,0,0c0,5,0,10,0,15c0,0,0,0,0,0
			c-3.1-0.1-6.4,0.4-9-0.7c-1.2-0.5-1-4.3-1.4-6.6C957.2,358.4,956.8,358.2,956.6,358z"/>
		<path class="st15" d="M89.7,290.1c0.3,2.4,0.5,4.7,0.8,7.1c-0.1,0.1-0.3,0.2-0.3,0.3c0.1,0.2,0.2,0.4,0.4,0.7
			c0.1,2.7,0.2,5.3,0.3,8c-2.7,0-5.4,0-8.1,0c0,0,0,0,0,0c0-5,0-10,0-15c2.4,0.4,5.9-1.4,6.7,3C89.5,292.8,89.6,291.4,89.7,290.1z"
			/>
		<path class="st9" d="M982.7,261.2c-0.2,4.7,1.5,11.4-1,13.6c-2.8,2.5-9.2,1.1-14,1.3c0,0,0,0,0,0c0-5,0-10,0-15c0,0,0,0,0,0
			C972.7,261.2,977.7,261.2,982.7,261.2L982.7,261.2z"/>
		<path class="st9" d="M967.7,291.1c4.7,0.2,11.4-1.5,13.7,0.9c2.5,2.8,1.1,9.2,1.3,14c0,0,0,0,0,0c-5,0-10,0-15,0l0,0
			C967.7,301.1,967.7,296.1,967.7,291.1L967.7,291.1z"/>
		<path class="st7" d="M961.9,291.1c0.6-7.3,1.1-14.7,1.7-22c0.4,1.5,0.5,3.1,1.2,4.3c0.6,1.1,1.9,1.8,2.9,2.7c0,0,0,0,0,0
			c0,5,0,10,0,15c0,0,0,0,0,0C965.8,291.1,963.8,291.1,961.9,291.1z"/>
		<path class="st14" d="M368.7,26.2c-0.7,0-1.3,0.1-2,0.1c0.3-1.6,0.7-3.2,1-4.8c0,0,0,0,0,0c4.7-0.2,11.4,1.5,13.7-0.9
			c2.5-2.8,1.1-9.2,1.3-14c5,0,10,0,15,0c0,0,0,0,0,0c0,4.8,0,9.7,0,14.1c2.5,0.8,4.3,1.4,6.1,2c-5.1,0.6-10.1,1.3-15.2,1.8
			c-5.6,0.6-11.2,1.2-16.9,1.8C370.7,26.2,369.7,26.2,368.7,26.2z"/>
		<path class="st9" d="M352.7,6.6c5,0,10,0,15,0c0,5,0,10,0,15c0,0,0,0,0,0c-5,0-10,0-15,0l0,0C352.7,16.5,352.7,11.5,352.7,6.6
			L352.7,6.6z"/>
		<path class="st4" d="M964,258.2c0.6-7.3,1.1-14.7,1.7-22c0.1-1.7,0.6-3.3,0.8-5c5.4,0,10.8,0,16.1,0.1c0,5,0,10,0,15
			c-4.7,0.2-11.4-1.5-13.7,0.9c-2.5,2.8-1.1,9.2-1.3,14c0,0,0,0,0,0C966.5,260.2,965.2,259.2,964,258.2z"/>
		<path class="st4" d="M967.9,216.2c0.6-7.7,1.2-15.4,1.7-23c0.3,0.4,0.8,0.7,0.9,1.1c1.5,6.9,1.5,7,8.8,7c1.1,0,2.3,0,3.4,0
			c0,5,0,10,0,15C977.8,216.2,972.8,216.2,967.9,216.2z"/>
		<path class="st10" d="M967.7,261.2c0.3-4.8-1.2-11.2,1.3-14c2.2-2.4,8.9-0.8,13.7-0.9c0,5,0,10,0,15
			C977.7,261.2,972.7,261.2,967.7,261.2z"/>
		<path class="st10" d="M967.9,216.2c5,0,9.9,0,14.9,0c0,5,0,10,0,15c-5.4,0-10.8,0-16.1-0.1c0.1-1.6,0.2-3.3,0.3-4.9
			c3.4-2.4,2.1-5.2,0.7-8C967.7,217.5,967.8,216.9,967.9,216.2z"/>
		<path class="st4" d="M971.6,167.2c1.9,6.2,7.1,3.5,11.1,4.1c0,5,0,10,0,15c-4.3,0.7-8.5,1.3-12.8,2c0-1,0.1-2,0.1-3c0-1,0-2,0-3
			C970.5,177.3,971.1,172.3,971.6,167.2z"/>
		<path class="st11" d="M969.9,188.3c4.3-0.7,8.5-1.3,12.8-2c0,5,0,10,0,15c-1.1,0-2.3,0-3.4,0c-7.4,0-7.3,0-8.8-7
			c-0.1-0.4-0.6-0.7-0.9-1.1c0.1-0.7,0.2-1.3,0.3-2c0.1-0.1,0.4-0.2,0.3-0.3c-0.1-0.2-0.2-0.5-0.3-0.7
			C969.9,189.6,969.9,188.9,969.9,188.3z"/>
		<path class="st4" d="M522.8,12.7c-7,0.6-14,1.1-21,1.7c0.3-2.6,0.7-5.2,1-7.8c0,0,0,0,0,0c5,0,10,0,15,0
			C516.2,11.3,520.4,11.2,522.8,12.7z"/>
		<path class="st4" d="M526.7,12.4c-0.3,0-0.6,0-1,0C526.1,12.4,526.4,12.4,526.7,12.4z"/>
		<path class="st11" d="M611.7,7.3c-1.5-0.1-3-0.1-4.5-0.2C608.7,7.1,610.2,7.2,611.7,7.3z"/>
		<path class="st10" d="M625.7,6.4c-0.7,0-1.3-0.1-2-0.1C624.4,6.3,625.1,6.3,625.7,6.4z"/>
		<path class="st11" d="M220.7,649.6c2.6-2.7,5.3-5.3,7.9-8c1.3,0,2.7,0,4.1,0c0,3.3,0,6.2,0,9c0,0,0,0,0,0
			C228.7,650.3,224.7,649.9,220.7,649.6z"/>
		<path class="st9" d="M142.7,650.6c0-5,0-10,0-15c0,0,0,0,0,0c5,0,10,0,15,0c0,5,0,10,0,15c0,0,0,0,0,0
			C152.7,650.6,147.7,650.6,142.7,650.6z"/>
		<path class="st10" d="M157.7,650.6c0-5,0-10,0-15c0,0,0,0,0,0c5,0,10,0,15,0c0,5,0,10,0,15c0,0,0,0,0,0
			C167.7,650.6,162.7,650.6,157.7,650.6z"/>
		<path class="st9" d="M172.7,650.6c0-5,0-10,0-15c0,0,0,0,0,0c5,0,10,0,15,0c0,5,0,10,0,15c0,0,0,0,0,0
			C182.7,650.6,177.7,650.6,172.7,650.6z"/>
		<path class="st10" d="M187.7,650.6c0-5,0-10,0-15c0,0,0,0,0,0c5,0,10,0,15,0l0,0c0,5,0,10,0,15c0,0,0,0,0,0
			C197.7,650.6,192.7,650.6,187.7,650.6z"/>
		<path class="st9" d="M604.9,7.4c-0.4,0-0.8,0-1.2,0c0.2-0.3,0.4-0.7,0.6-1C604.5,6.7,604.7,7.1,604.9,7.4z"/>
		<path class="st10" d="M97.7,6.6c5,0,10,0,15,0c0,0,0,0,0,0c0,5,0,10,0,15c-5,0-10,0-15,0c0,0,0,0,0,0
			C97.7,16.5,97.7,11.5,97.7,6.6L97.7,6.6z"/>
		<path class="st9" d="M112.7,21.5c0-5,0-10,0-15c5,0,10,0,15,0c0,0,0,0,0,0c0,5,0,10,0,15C122.7,21.5,117.7,21.5,112.7,21.5
			C112.7,21.5,112.7,21.5,112.7,21.5z"/>
		<path class="st10" d="M127.7,21.5c0-5,0-10,0-15c5,0,10,0,15,0c0,0,0,0,0,0c0,5,0,10,0,15C137.7,21.5,132.7,21.5,127.7,21.5
			C127.7,21.5,127.7,21.5,127.7,21.5z"/>
		<path class="st9" d="M142.7,21.5c0-5,0-10,0-15c5,0,10,0,15,0c0,0,0,0,0,0c0,5,0,10,0,15C152.7,21.5,147.7,21.5,142.7,21.5
			L142.7,21.5z"/>
		<path class="st10" d="M157.7,21.5c0-5,0-10,0-15c5,0,10,0,15,0c0,0,0,0,0,0c0,5,0,10,0,15c0,0,0,0,0,0
			C167.7,21.5,162.7,21.5,157.7,21.5C157.7,21.5,157.7,21.5,157.7,21.5z"/>
		<path class="st9" d="M172.7,21.5c0-5,0-10,0-15c5,0,10,0,15,0c0,0,0,0,0,0c-0.2,4.7,1.5,11.4-1,13.6
			C184,22.7,177.6,21.3,172.7,21.5z"/>
		<path class="st18" d="M172.7,21.5c4.8-0.3,11.3,1.2,14-1.3c2.4-2.2,0.8-8.9,1-13.6c5,0,10,0,15,0c0,0,0,0,0,0
			c0.2,4.7-1.5,11.4,1,13.6c2.8,2.5,9.2,1.1,14,1.3l0,0c0.2,4.7-1.5,11.4,1,13.6c2.8,2.5,9.2,1.1,14,1.3c0,1.6,0,3.2,0,4.8
			c-10.4,1.4-20.9,2.8-31.3,4.1c-2.9,0.4-5.8,0.6-8.7,0.9c-1.5-0.5-3-1-4.8-1.5c-0.1-1.1-0.3-2.3-0.2-3.4c0.6-4.1-1.3-5.2-5.1-4.9
			c-3.3,0.3-6.6,0.1-9.9,0.1c0,0,0,0,0,0C172.7,31.5,172.7,26.5,172.7,21.5C172.7,21.5,172.7,21.5,172.7,21.5z"/>
		<path class="st9" d="M82.7,51.5c0-5,0-10,0-15c0,0,0,0,0,0c5,0,10,0,15,0l0,0c0,5,0,10,0,15l0,0C92.7,51.5,87.7,51.5,82.7,51.5
			L82.7,51.5z"/>
		<path class="st9" d="M217.7,21.5c-4.8-0.3-11.3,1.2-14-1.3c-2.4-2.2-0.8-8.9-1-13.6c5,0,10,0,15,0c0,0,0,0,0,0
			C217.7,11.5,217.7,16.5,217.7,21.5z"/>
		<path class="st10" d="M217.7,21.5c0-5,0-10,0-15c5,0,10,0,15,0c0,0,0,0,0,0c0,5,0,10,0,15C227.7,21.5,222.7,21.5,217.7,21.5
			L217.7,21.5z"/>
		<path class="st9" d="M232.7,21.5c0-5,0-10,0-15c5,0,10,0,15,0c0,0,0,0,0,0c0,5,0,10,0,15c0,0,0,0,0,0
			C242.7,21.5,237.7,21.5,232.7,21.5L232.7,21.5z"/>
		<path class="st10" d="M247.7,21.5c0-5,0-10,0-15c5,0,10,0,15,0c0,0,0,0,0,0c0,5,0,10,0,15C257.7,21.5,252.7,21.5,247.7,21.5z"/>
		<path class="st9" d="M262.7,21.5c0-5,0-10,0-15c5,0,10,0,15,0c0,0,0,0,0,0c0,5,0,10,0,15C272.7,21.5,267.7,21.5,262.7,21.5
			L262.7,21.5z"/>
		<path class="st10" d="M82.7,51.5c5,0,10,0,15,0c0,5,0,10.1,0.1,15.1c0,0,0,0,0,0c-5,0-10.1-0.1-15.1-0.1c0,0,0,0,0,0
			C82.7,61.5,82.7,56.5,82.7,51.5z"/>
		<path class="st10" d="M277.7,21.5c0-5,0-10,0-15c5,0,10,0,15,0c0,0,0,0,0,0c0,5,0,10,0,15C287.7,21.5,282.7,21.5,277.7,21.5
			L277.7,21.5z"/>
		<path class="st9" d="M292.7,21.5c0-5,0-10,0-15c5,0,10,0,15,0c0,0,0,0,0,0c0,5,0,10,0,15C302.7,21.5,297.7,21.5,292.7,21.5
			C292.7,21.5,292.7,21.5,292.7,21.5z"/>
		<path class="st19" d="M307.7,21.5c0-5,0-10,0-15c5,0,10,0,15,0c0,0,0,0,0,0c0.2,4.7-1.5,11.4,1,13.6c2.8,2.5,9.2,1.1,14,1.3l0,0
			c-0.3,2.6-0.7,5.2-1,7.8c-4.9,0.7-9.8,1.6-14.8,2.2c-5.7,0.7-11.5,1.2-17.3,1.7c-1-0.4-1.9-0.8-2.9-1.3c5.6,0.7,6.5-2.5,6-7
			C307.6,23.9,307.7,22.7,307.7,21.5z"/>
		<path class="st14" d="M82.7,66.5c5,0,10.1,0.1,15.1,0.1c-5,5-10,10-15,15C82.8,76.5,82.7,71.5,82.7,66.5z"/>
		<path class="st9" d="M337.7,21.5c-4.8-0.3-11.3,1.2-14-1.3c-2.4-2.2-0.8-8.9-1-13.6c5,0,10,0,15,0c0,0,0,0,0,0
			C337.7,11.5,337.7,16.5,337.7,21.5z"/>
		<path class="st10" d="M337.7,21.5c0-5,0-10,0-15c5,0,10,0,15,0c0,5,0,10,0,15C347.7,21.5,342.7,21.5,337.7,21.5L337.7,21.5z"/>
		<path class="st10" d="M403.8,22.7c-1.8-0.6-3.6-1.2-6.1-2c0-4.5,0-9.3,0-14.1c5,0,10,0,15,0c0,0,0,0,0,0c-0.9,5.4,2.7,12-4.2,15.8
			l-0.3,0.1c0,0-0.3-0.1-0.3-0.1c-0.2-0.3-0.5-0.6-0.7-0.8c0,0.3-0.1,0.6-0.1,0.9C406,22.5,404.9,22.6,403.8,22.7z"/>
		<path class="st14" d="M408.5,22.4c6.9-3.8,3.3-10.4,4.2-15.8c5,0,10,0,15,0c0,0,0,0,0,0c0,4.6,0,9.2,0,13.8
			C421.3,21,414.9,21.7,408.5,22.4z"/>
		<path class="st20" d="M427.7,20.4c0-4.6,0-9.2,0-13.8c5,0,10,0,15,0c0,0,0,0,0,0c-0.3,4.3-0.7,8.5-1,12.8
			C437.1,19.7,432.4,20,427.7,20.4z"/>
		<path class="st9" d="M441.7,19.3c0.3-4.3,0.7-8.5,1-12.8c5,0,10,0,15,0c0,0,0,0,0,0c0.7,3.7,1.4,7.4,2.1,11.1
			C453.8,18.2,447.8,18.8,441.7,19.3z"/>
		<path class="st11" d="M459.8,17.7c-0.7-3.7-1.4-7.4-2.1-11.1c5,0,10,0,15,0c0,0,0,0,0,0c0,2.8,0,5.5,0,8.5c-2,0.3-3.5,0.5-5.3,0.8
			c1,0.6,1.6,1,2.3,1.4c-2.3,0-4.7,0.1-7,0.1c-0.3,0-0.6,0-0.9,0C461.1,17.5,460.4,17.6,459.8,17.7z"/>
		<path class="st4" d="M469.7,17.3c-0.7-0.4-1.3-0.8-2.3-1.4c1.8-0.3,3.3-0.5,5.3-0.8c0-2.9,0-5.7,0-8.5c5,0,10,0,15,0c0,0,0,0,0,0
			c0,2.9,0,5.9,0,8.8C481.7,16,475.7,16.6,469.7,17.3z"/>
		<path class="st20" d="M487.7,15.4c0-2.9,0-5.9,0-8.8c5,0,10,0,15,0c-0.3,2.6-0.7,5.2-1,7.8C497.1,14.7,492.4,15,487.7,15.4z"/>
		<path class="st10" d="M97.7,36.5c-5,0-10,0-15,0c0-5,0-10,0-15c0,0,0,0,0,0c5,0,10,0,15,0c0,0,0,0,0,0
			C97.7,26.5,97.7,31.5,97.7,36.5z"/>
		<path class="st4" d="M82.7,306.1c2.7,0,5.4,0,8.1,0c0.6,5,1.1,10,1.7,15c-3.3,0-6.6,0-9.8,0c0,0,0,0,0,0
			C82.7,316.1,82.7,311.1,82.7,306.1z"/>
		<path class="st10" d="M82.7,321.1c3.3,0,6.6,0,9.8,0c0.3,5,0.7,10,1,15c-3.6,0-7.2,0-10.9,0c0,0,0,0,0,0
			C82.7,331.1,82.7,326.1,82.7,321.1z"/>
		<path class="st9" d="M82.7,336.1c3.6,0,7.2,0,10.9,0c0.3,5,0.7,10,1,15c-4,0-7.9,0-11.9,0c0,0,0,0,0,0
			C82.7,346,82.7,341.1,82.7,336.1z"/>
		<path class="st10" d="M82.7,351c4,0,7.9,0,11.9,0c0.3,5,0.7,10,1,15c-4.3,0-8.6,0-12.9,0c0,0,0,0,0,0C82.7,361,82.7,356,82.7,351z
			"/>
		<path class="st4" d="M82.7,366c4.3,0,8.6,0,12.9,0c0.4,4.3,0.8,8.6,1.2,12.9c-1.3,0.7-2.5,1.8-3.8,1.9c-3.4,0.3-6.8,0.1-10.3,0.1
			c0,0,0,0,0,0C82.7,376,82.7,371,82.7,366z"/>
		<path class="st11" d="M82.7,381c3.4,0,6.9,0.2,10.3-0.1c1.3-0.1,2.5-1.3,3.8-1.9c0.3,2.4,0.5,4.7,0.8,7.1
			c-0.1,0.1-0.3,0.2-0.3,0.3c0.1,0.2,0.2,0.4,0.4,0.7c0.1,2.3,0.2,4.6,0.3,7c-1.7,0.7-3.4,1.8-5.2,2c-3.3,0.3-6.6,0.1-9.9,0.1
			c0,0,0,0,0,0C82.7,391,82.7,386,82.7,381z"/>
		<path class="st14" d="M82.7,396c3.3,0,6.6,0.2,9.9-0.1c1.8-0.2,3.5-1.3,5.2-2c0.1,0.1,0.4,0.2,0.4,0.3c0.8,10.6,1.6,21.2,2.3,31.7
			c-0.9,0-1.9,0-2.8,0c0,0,0,0,0,0c-0.2-4.7,1.5-11.4-1-13.6c-2.8-2.5-9.2-1.1-14.1-1.3c0,0,0,0,0,0C82.7,406,82.7,401,82.7,396z"/>
		<path class="st10" d="M82.7,410.9c4.8,0.3,11.3-1.2,14.1,1.3c2.4,2.2,0.8,8.9,1,13.6c-5,0-10,0-15,0c0,0,0,0,0,0
			C82.7,420.9,82.7,415.9,82.7,410.9z"/>
		<path class="st9" d="M82.7,425.9c5,0,10,0,15,0c0,0,0,0,0,0c0,5,0,10,0,15c-5,0-10,0-15,0c0,0,0,0,0,0
			C82.7,435.9,82.7,430.9,82.7,425.9z"/>
		<path class="st10" d="M82.7,440.9c5,0,10,0,15,0c-0.2,4.7,1.5,11.4-1,13.6c-2.8,2.5-9.2,1.1-14,1.3c0,0,0,0,0,0
			C82.7,450.9,82.7,445.9,82.7,440.9z"/>
		<path class="st6" d="M82.7,455.9c4.8-0.3,11.3,1.2,14-1.3c2.4-2.2,0.8-8.9,1-13.6c0-5,0-10,0-15c0.9,0,1.9,0,2.8,0
			c1.1,14.3,2,28.5,3.2,42.7c0.5,5.8,1.8,11.4,2.8,17.2c-3,0-5.9,0-8.9,0c-5,0-10,0-15,0c0-5,0-10,0-15
			C82.7,465.9,82.7,460.9,82.7,455.9z M100,434.1c0.1,0,0.3,0,0.4,0c0-0.5,0-1,0-1.5c-0.1,0-0.3,0-0.4,0
			C100,433.2,100,433.7,100,434.1z"/>
		<path class="st9" d="M82.7,545.7c5,0,10,0,15,0c0,0,0,0,0,0c0,5,0,10,0,15c-5,0-10,0-15,0c0,0,0,0,0,0
			C82.7,555.7,82.7,550.7,82.7,545.7z"/>
		<path class="st10" d="M82.7,560.7c5,0,10,0,15,0l0,0c0,5,0,10,0,15c-5,0-10,0-15,0c0,0,0,0,0,0C82.7,570.7,82.7,565.7,82.7,560.7z
			"/>
		<path class="st9" d="M97.7,21.5c-5,0-10,0-15,0c0-5,0-10,0-15c5,0,10,0,15,0C97.7,11.5,97.7,16.5,97.7,21.5z"/>
		<path class="st9" d="M82.7,575.7c5,0,10,0,15,0c0,0,0,0,0,0c0,5,0,10,0,15l0,0c-5,0-10,0-15,0c0,0,0,0,0,0
			C82.7,585.7,82.7,580.7,82.7,575.7z"/>
		<path class="st10" d="M82.7,590.7c5,0,10,0,15,0c0,5,0,10,0,15c0,0,0,0,0,0c-5,0-10,0-15,0c0,0,0,0,0,0
			C82.7,600.7,82.7,595.7,82.7,590.7z"/>
		<path class="st9" d="M82.7,605.7c5,0,10,0,15,0c0,5,0,10,0,15c-5,0-10,0-15,0C82.7,615.6,82.7,610.7,82.7,605.7z"/>
		<path class="st9" d="M81.2,190.9c0.1,0.1,0.2,0.3,0.2,0.4c0,0.1-0.2,0.2-0.3,0.4C81.2,191.4,81.2,191.1,81.2,190.9z"/>
		<path class="st4" d="M82.6,196.3c0.2,0.3,0.2,0.6,0,1c-0.1-0.2-0.3-0.4-0.3-0.7C82.2,196.5,82.4,196.4,82.6,196.3z"/>
		<path class="st4" d="M202.7,650.6c0-5,0-10,0-15c3.6,0,7.2,0,10.9,0c-0.9,5-1.8,10-2.7,15C208.1,650.6,205.4,650.6,202.7,650.6z"
			/>
		<path class="st9" d="M657.7,4.4l-0.5,0.1c0,0-0.5-0.1-0.5-0.1C657.1,4.4,657.4,4.4,657.7,4.4z"/>
		<path class="st4" d="M77.6,131.4c0.2,0.3,0.2,0.6,0,0.9c-0.1-0.2-0.3-0.4-0.4-0.7C77.2,131.6,77.4,131.5,77.6,131.4z"/>
		<path class="st4" d="M751.7,0.4l-0.5,0.1l-0.5-0.1C751.1,0.4,751.4,0.4,751.7,0.4z"/>
		<path class="st4" d="M75.6,106.4c0.2,0.3,0.2,0.6,0,1c-0.1-0.2-0.3-0.4-0.3-0.7C75.2,106.7,75.4,106.5,75.6,106.4z"/>
		<path class="st10" d="M967.7,306.1c5,0,10,0,15,0c0,5,0,10,0,15c-5,0-10,0-15,0C967.7,316.1,967.7,311.1,967.7,306.1z"/>
		<path class="st7" d="M291.7,582.7c8.4-7.8,16.7-15.8,25.2-23.5c6.7-6,13.7-11.7,20.5-17.6c3.7-3.2,7.1-6.9,11-9.8
			c3.7-2.7,8.1-2.9,12.4-1.1c-2.7,1.1-6.8,1.6-7.7,3.6c-1.3,2.8-0.4,6.7-0.4,10.1c0,0.5,0,1,0,1.5c-4.8,0.3-11.3-1.2-14.1,1.3
			c-2.4,2.2-0.8,8.9-0.9,13.6c-4.8,0.3-11.3-1.2-14.1,1.3c-2.4,2.2-0.8,8.9-0.9,13.6c-4.8,0.3-11.3-1.2-14.1,1.3
			c-2.4,2.2-0.8,8.9-0.9,13.6c-5,0-10,0-15,0C292.4,588,292.1,585.4,291.7,582.7z"/>
		<path class="st7" d="M907.7,561.9c5-2.6,10.3-4.8,15.1-7.8c8.7-5.6,13.6-14.3,18-23.3c4,0,7.9,0,11.9,0c0,0,0,0,0,0c0,5,0,10,0,15
			l0,0c-4.7,0.2-11.4-1.5-13.7,1c-2.5,2.8-1.1,9.2-1.3,14c-4.7,0.2-11.4-1.5-13.7,0.9c-2.5,2.8-1.1,9.2-1.4,14l0,0c-5,0-10,0-15,0
			C907.7,571.1,907.7,566.5,907.7,561.9z"/>
		<path class="st21" d="M639.7,540c4.8,0.6,9.6,1.2,14.4,1.7c4.5,0.5,9.1,0.8,13.6,1.2c0,0.9,0,1.9,0,2.8c0,5,0,10,0,15
			c-5,0-10,0-15,0c-0.2-4.7,1.5-11.4-0.9-13.6c-2.8-2.5-9.2-1.1-14.1-1.3c-0.2-1.5-0.5-3-0.8-4.6C637.7,540.9,638.7,540.4,639.7,540
			z"/>
		<path class="st14" d="M831.7,556.9c10.3,1.2,20.7,2.5,31,3.7c0,5,0,10.1,0,15.1c-5,0-10,0-15,0c-0.3-4.8,1.2-11.3-1.3-14
			c-2.2-2.4-8.9-0.8-13.7-0.9C832.4,559.5,832.1,558.2,831.7,556.9z"/>
		<path class="st9" d="M667.7,545.7c0-0.9,0-1.9,0-2.8c6.6,0.6,13.1,1.3,19.7,1.8c3.4,0.2,6.8,0.2,10.3,0.2c0,5.3,0,10.6,0,15.8
			c-5,0-10,0-15,0c-0.2-4.7,1.5-11.4-0.9-13.6C679,544.6,672.6,546,667.7,545.7z"/>
		<path class="st5" d="M291.7,582.7c0.3,2.7,0.7,5.3,1,8c0,5,0,10,0,15c-5,0-10,0-15,0l0,0c0-3.3,0-6.6,0-9.9
			C282.4,591.4,287.1,587.1,291.7,582.7z"/>
		<path class="st4" d="M953.6,395.9c4.7,0,9.4,0,14.1,0.1c0,5,0,10,0,15c0,0,0,0,0,0c-4.5,0-9,0-12.6,0c-1.4,2.6-2.4,4.3-3.3,6
			C952.5,409.9,953,402.9,953.6,395.9z"/>
		<path class="st10" d="M697.7,560.7c0-5.3,0-10.6,0-15.8c5,0.3,10,0.7,15,1c0,4.9,0,9.9,0,14.8
			C707.7,560.7,702.7,560.7,697.7,560.7C697.7,560.7,697.7,560.7,697.7,560.7z"/>
		<path class="st7" d="M367.7,530.9c5,0,10,0,15-0.1c0,5,0,9.9,0,14.9c-5,0-10,0-15,0C367.7,540.8,367.7,535.9,367.7,530.9z"/>
		<path class="st9" d="M397.7,530.9c5,0,10,0,15,0c0,4.9,0,9.8,0,14.8c-5,0-10,0-15,0C397.7,540.8,397.7,535.9,397.7,530.9z"/>
		<path class="st10" d="M397.7,530.9c0,4.9,0,9.9,0,14.8l0,0c-5,0-10,0-15,0l0,0c0-5,0-9.9,0-14.9c4,0,8,0,12,0.1c0.3,0,0.6,0,0.9,0
			C396.4,530.9,397.1,530.9,397.7,530.9z"/>
		<path class="st10" d="M951.9,416.9c0.9-1.7,1.8-3.3,3.3-6c3.5,0,8,0,12.6,0c0,5,0,10,0,15c-4.7,0-9.4,0-14,0
			c-0.8-1.9-1.5-3.5-2.1-5.1C951.7,419.6,951.8,418.2,951.9,416.9z"/>
		<path class="st12" d="M862.7,575.7c0-5,0-10.1,0-15.1c1.7,0.1,3.3,0.2,5,0.2c0.3,0,0.6,0,0.9,0c3,0.3,6,0.6,9,1
			c0,4.6,0,9.2,0,13.8C872.7,575.7,867.7,575.7,862.7,575.7L862.7,575.7z M872,562.2c-0.1,0-0.3-0.1-0.4-0.1c0,0-0.1,0.2-0.1,0.3
			c0.1,0,0.3,0.1,0.4,0.1C871.9,562.5,872,562.3,872,562.2z"/>
		<path class="st10" d="M367.7,530.9c0,4.9,0,9.9,0,14.8l0,0c-5,0-10,0-15,0l0,0c0-0.5,0-1,0-1.5c0-3.4-1-7.3,0.4-10.1
			c0.9-2,5-2.4,7.7-3.6C363.1,530.7,365.4,530.8,367.7,530.9z"/>
		<path class="st12" d="M412.7,545.8c0-4.9,0-9.8,0-14.8c2.3,0,4.6-0.1,7-0.1c2.7,0.3,5.4,0.7,8.1,1c0,4.6,0,9.2,0,13.8
			C422.7,545.8,417.7,545.7,412.7,545.8C412.7,545.7,412.7,545.8,412.7,545.8z"/>
		<path class="st9" d="M712.7,560.7c0-4.9,0-9.9,0-14.8c5,0.4,10,0.7,15,1.1c0,4.6,0,9.2,0,13.8
			C722.7,560.7,717.7,560.7,712.7,560.7C712.7,560.7,712.7,560.7,712.7,560.7z"/>
		<path class="st4" d="M877.7,575.7c0-4.6,0-9.2,0-13.8c7.7,0.3,15.3,0.7,23,1c-0.6,0.6-1.4,1.8-1.9,1.7c-6.2-1-6.6,2.7-6.1,7.2
			c0.1,1.3,0,2.6,0,3.9C887.7,575.7,882.7,575.7,877.7,575.7L877.7,575.7z"/>
		<path class="st9" d="M427.7,545.8c0-4.6,0-9.2,0-13.8c4.7-0.1,9.3-0.2,14-0.3c0.3,0.1,0.7,0.2,1,0.3c0,4.6,0,9.2,0,13.8
			C437.7,545.8,432.7,545.7,427.7,545.8C427.7,545.7,427.7,545.8,427.7,545.8z"/>
		<path class="st10" d="M442.7,545.8c0-4.6,0-9.2,0-13.8c2.7,0,5.4,0,8,0c0.3,0,0.6,0,0.9,0c2,0,4,0,6,0c0,4.6,0,9.2,0,13.8
			C452.7,545.8,447.7,545.7,442.7,545.8L442.7,545.8z"/>
		<path class="st4" d="M956.6,358c0.2,0.2,0.6,0.4,0.7,0.7c0.5,2.3,0.2,6.1,1.4,6.6c2.6,1.1,6,0.6,9,0.7c0,5,0,10,0,15
			c-4.3,0-8.6,0-12.9,0C955.4,373.3,956,365.6,956.6,358z"/>
		<path class="st4" d="M457.7,545.8c0-4.6,0-9.2,0-13.8c5,0.3,10,0.6,15,1c0,4.3,0,8.6,0,12.8C467.7,545.8,462.7,545.7,457.7,545.8
			L457.7,545.8z"/>
		<path class="st10" d="M472.7,545.8c0-4.3,0-8.6,0-12.8c5,0,10,0,15,0c0,4.3,0,8.6,0,12.8C482.7,545.8,477.7,545.7,472.7,545.8
			C472.7,545.7,472.7,545.8,472.7,545.8z"/>
		<path class="st13" d="M727.7,560.7c0-4.6,0-9.2,0-13.8c5,0.6,10,1.3,15,1.9c0,3.9,0,7.9,0,11.8
			C737.7,560.7,732.7,560.7,727.7,560.7L727.7,560.7z"/>
		<path class="st4" d="M487.7,545.8c0-4.3,0-8.6,0-12.8c5,0.3,10,0.7,15,1c0,3.9,0,7.9,0,11.8C497.7,545.8,492.7,545.7,487.7,545.8
			L487.7,545.8z"/>
		<path class="st13" d="M892.7,575.7c0-1.3,0.1-2.6,0-3.9c-0.5-4.5-0.1-8.2,6.1-7.2c0.5,0.1,1.3-1.1,1.9-1.7c2.3-0.3,4.7-0.7,7-1
			c0,4.6,0,9.2,0,13.8c0,0,0,0,0,0C902.7,575.7,897.7,575.7,892.7,575.7L892.7,575.7z"/>
		<path class="st10" d="M502.7,545.8c0-3.9,0-7.9,0-11.8c5,0,10,0,15,0c0,3.9,0,7.9,0,11.8C512.7,545.8,507.7,545.7,502.7,545.8
			L502.7,545.8z"/>
		<path class="st4" d="M517.7,545.8c0-3.9,0-7.9,0-11.8c5,0.3,10,0.7,15,1c0,3.6,0,7.2,0,10.8C527.7,545.8,522.7,545.7,517.7,545.8
			L517.7,545.8z"/>
		<path class="st4" d="M742.7,560.7c0-3.9,0-7.9,0-11.8c5,0.3,10,0.7,15,1c0,3.6,0,7.2,0,10.8C752.7,560.7,747.7,560.7,742.7,560.7
			L742.7,560.7z"/>
		<path class="st4" d="M967.7,351c-3.6,0.7-7.2,1.3-10.8,2c0.6-7,1.1-14,1.7-21c1.4,5.1,5.5,4.1,9.1,4.1c0,0,0,0,0,0
			C967.7,341.1,967.7,346,967.7,351z"/>
		<path class="st10" d="M532.7,545.8c0-3.6,0-7.2,0-10.8c5,0,10,0,15,0.1c0,3.6,0,7.2,0,10.8C542.7,545.8,537.7,545.7,532.7,545.8
			L532.7,545.8z"/>
		<path class="st13" d="M757.7,560.7c0-3.6,0-7.2,0-10.8c5,0.4,10,0.7,15,1.1c0,3.3,0,6.5,0,9.8
			C767.7,560.7,762.7,560.7,757.7,560.7L757.7,560.7z"/>
		<path class="st20" d="M952.7,530.8c-4,0-7.9,0-11.9,0c1-5,2.1-10,3.1-15c2.9,0,5.9,0,8.8,0C952.7,520.8,952.7,525.8,952.7,530.8z"
			/>
		<path class="st9" d="M547.7,545.8c0-3.6,0-7.2,0-10.8c5,0.3,10,0.6,15,0.9c0,3.3,0,6.6,0,9.9C557.7,545.8,552.7,545.7,547.7,545.8
			L547.7,545.8z"/>
		<path class="st15" d="M562.7,545.8c0-3.3,0-6.6,0-9.9c3.7,0,7.4,0.1,11.1,0.1c0.4,0.2,0.7,0.5,1.1,0.7c1,0.1,1.9,0.1,2.9,0.2
			c0,3,0,5.9,0,8.9C572.7,545.7,567.7,545.7,562.7,545.8L562.7,545.8z M569.6,537.1c0,0.2,0,0.4,0,0.6c0.7,0,1.5-0.1,2.2-0.1
			c0-0.1,0-0.3,0-0.4C571,537.1,570.3,537.1,569.6,537.1z"/>
		<path class="st4" d="M967.7,306.1c0,5,0,10,0,15c0,0,0,0,0,0c-4-0.2-8.2-0.8-7.2,5.6c0.1,0.4-1.1,0.9-1.6,1.4
			c0.7-8,1.3-15.9,2-23.9C963.2,304.8,965.4,305.5,967.7,306.1L967.7,306.1z"/>
		<path class="st4" d="M772.7,560.7c0-3.3,0-6.5,0-9.8c5,0.6,10,1.3,15,1.9c0,2.6,0,5.2,0,7.8C782.7,560.7,777.7,560.7,772.7,560.7
			L772.7,560.7z"/>
		<path class="st4" d="M577.7,545.8c0-3,0-5.9,0-8.9c5,0.3,10,0.7,15,1c0,2.6,0,5.2,0,7.9C587.7,545.8,582.7,545.7,577.7,545.8
			L577.7,545.8z"/>
		<path class="st10" d="M958.9,328.1c0.6-0.5,1.7-1,1.6-1.4c-1-6.3,3.2-5.7,7.2-5.6c0,5,0,10,0,15c-3.6,0-7.7,1-9.1-4.1
			C958.7,330.7,958.8,329.4,958.9,328.1z"/>
		<path class="st11" d="M592.7,545.8c0-2.6,0-5.2,0-7.9c1.7,0,3.4,0,5,0c0.3,0,0.6,0,0.9,0c3,0,6,0.1,9,0.1c-0.7,0.4-1.3,0.8-1,0.6
			c0.4,2.7,0.7,4.9,1.1,7.1C602.7,545.8,597.7,545.7,592.7,545.8L592.7,545.8z"/>
		<path class="st13" d="M787.7,560.7c0-2.6,0-5.2,0-7.8c0.7,0,1.4,0,2,0c0.3,0,0.6,0,0.9,0c4,0.3,8,0.7,12,1c0,2.3,0,4.5,0,6.8
			C797.7,560.7,792.7,560.7,787.7,560.7L787.7,560.7z"/>
		<path class="st4" d="M607.7,545.8c-0.3-2.2-0.7-4.4-1.1-7.1c-0.3,0.2,0.4-0.2,1-0.6c5,0.6,10,1.2,15,1.8c0,2,0,3.9,0,5.9
			C617.7,545.8,612.7,545.7,607.7,545.8L607.7,545.8z"/>
		<path class="st8" d="M967.7,306.1c-2.3-0.7-4.6-1.3-6.8-2c0.3-4.3,0.7-8.7,1-13c1.9,0,3.9,0,5.8,0
			C967.7,296.1,967.7,301.1,967.7,306.1z"/>
		<path class="st4" d="M802.7,560.7c0-2.3,0-4.5,0-6.8c5,0.7,10,1.3,15,2c0,1.6,0,3.2,0,4.8C812.7,560.7,807.7,560.7,802.7,560.7
			C802.7,560.7,802.7,560.7,802.7,560.7z"/>
		<path class="st15" d="M622.7,545.8c0-2,0-3.9,0-5.9c2,0,4,0,6,0c0.3,0,0.6,0,0.9,0c3.3,0,6.7,0.1,10,0.1c-1,0.4-2,0.8-2.7,1.1
			c0.3,1.6,0.5,3.1,0.8,4.6c0,0,0,0,0,0C632.7,545.7,627.7,545.7,622.7,545.8C622.7,545.7,622.7,545.8,622.7,545.8z"/>
		<path class="st17" d="M261.7,610.6c0.3,3.3,0.7,6.7,1,10c-3.4-0.3-6.7-0.7-10.1-1c0.8-1,1.6-2,2.3-3c0.6-1,1.2-2,1.7-3
			C258.4,612.6,260,611.6,261.7,610.6z"/>
		<path class="st20" d="M817.7,560.7c0-1.6,0-3.2,0-4.8c1,0,2,0,3,0c0.3,0,0.6,0,0.9,0c3.3,0.3,6.7,0.7,10,1c0.3,1.3,0.7,2.5,1,3.8
			c0,0,0,0,0,0C827.7,560.7,822.7,560.7,817.7,560.7L817.7,560.7z"/>
		<path class="st17" d="M277.7,605.7c-3.4-0.3-6.7-0.7-10.1-1c3.4-2.9,6.8-5.9,10.1-8.8C277.7,599.1,277.7,602.4,277.7,605.7z"/>
		<path class="st22" d="M964,258.2c1.2,1,2.5,2,3.7,3c0,5,0,10,0,15c-1-0.9-2.3-1.6-2.9-2.7c-0.7-1.3-0.9-2.9-1.2-4.3
			c0.1-0.6,0.2-1.3,0.3-1.9c0.1-0.1,0.4-0.2,0.4-0.2c-0.1-0.2-0.2-0.5-0.3-0.7C963.9,263.5,964,260.8,964,258.2z"/>
		<path class="st23" d="M441.1,530.3c0.2,0,0.4,0.8,0.6,1.3c-4.7,0.1-9.3,0.2-14,0.3c-2.7-0.3-5.4-0.7-8.1-1"/>
		<path class="st4" d="M967.6,218.2c1.4,2.8,2.7,5.6-0.7,8C967.1,223.5,967.4,220.8,967.6,218.2z"/>
		<path class="st4" d="M954.6,382.9c1.4,2.8,2.6,5.6-0.7,8C954.1,388.3,954.4,385.6,954.6,382.9z"/>
		<path class="st3" d="M974.6,129.3c0.5,2.2,1.1,4.5,1.6,6.7c-0.3,0.1-0.6,0.2-0.9,0.2c-0.4-1.6-0.8-3.2-1.3-4.8
			C974.2,130.7,974.4,130,974.6,129.3z"/>
		<path class="st11" d="M970,182.3c0,1,0,2,0,3C970,184.3,970,183.3,970,182.3z"/>
		<path class="st4" d="M821.7,555.9c-0.3,0-0.6,0-0.9,0C821.1,555.7,821.4,555.7,821.7,555.9z"/>
		<path class="st4" d="M969.9,190.3c0.1,0.2,0.2,0.4,0.3,0.7c0,0-0.2,0.2-0.3,0.3C969.7,190.9,969.7,190.6,969.9,190.3z"/>
		<path class="st7" d="M963.9,266.2c0.1,0.2,0.3,0.4,0.3,0.7c0,0-0.2,0.2-0.4,0.2C963.7,266.8,963.7,266.5,963.9,266.2z"/>
		<path class="st3" d="M976.9,101.4c0.1,0.2,0.3,0.5,0.3,0.7c0,0-0.2,0.2-0.4,0.3C976.7,102.1,976.7,101.7,976.9,101.4z"/>
		<path class="st4" d="M790.7,552.9c-0.3,0-0.6,0-0.9,0C790.1,552.7,790.4,552.7,790.7,552.9z"/>
		<path class="st4" d="M629.7,539.9c-0.3,0-0.6,0-0.9,0C629.1,539.7,629.4,539.7,629.7,539.9z"/>
		<path class="st7" d="M395.7,530.9c-0.3,0-0.6,0-0.9,0C395.1,530.7,395.4,530.8,395.7,530.9z"/>
		<path class="st4" d="M598.7,537.9c-0.3,0-0.6,0-0.9,0C598.1,537.7,598.4,537.7,598.7,537.9z"/>
		<path class="st9" d="M451.7,531.9c-0.3,0-0.6,0-0.9,0C451.1,531.7,451.4,531.8,451.7,531.9z"/>
		<path class="st4" d="M574.9,536.7c-0.4-0.2-0.7-0.5-1.1-0.7C574.1,536.3,574.5,536.5,574.9,536.7z"/>
		<path class="st14" d="M868.7,560.9c-0.3,0-0.6,0-0.9,0C868.1,560.7,868.4,560.7,868.7,560.9z"/>
		<path class="st14" d="M142.7,522.3c9.4,4.8,19.3,7.9,30,7.6c0,5.3,0,10.6,0,15.8c-5,0-10,0-15,0c-0.2-4.7,1.5-11.4-0.9-13.6
			c-2.8-2.5-9.2-1.1-14.1-1.3l0,0C142.7,528,142.7,525.1,142.7,522.3z"/>
		<path class="st9" d="M127.7,530.8c5,0,10,0,15,0c0,0,0,0,0,0c0,5,0,10,0,15c-5,0-10,0-15,0C127.7,540.8,127.7,535.8,127.7,530.8
			L127.7,530.8z"/>
		<path class="st10" d="M127.7,530.8c0,5,0,10,0,15l0,0c-5,0-10,0-15,0l0,0c0-5,0-10,0-15C117.7,530.8,122.7,530.8,127.7,530.8z"/>
		<path class="st10" d="M97.7,560.7c0-5,0-10,0-15c5,0,10,0,15,0c0,0,0,0,0,0c0,5,0,10,0,15C107.7,560.7,102.7,560.7,97.7,560.7
			L97.7,560.7z"/>
		<path class="st10" d="M952.7,545.8c0-5,0-10,0-15c5,0,10,0,15,0c0,5,0,10,0,15c0,0,0,0,0,0C962.7,545.7,957.7,545.8,952.7,545.8z"
			/>
		<path class="st9" d="M952.7,545.8c5,0,10,0,15,0c0,5,0,10,0,15c0,0,0,0,0,0c-5,0-10,0-15,0C952.7,555.7,952.7,550.7,952.7,545.8
			C952.7,545.7,952.7,545.8,952.7,545.8z"/>
		<path class="st10" d="M952.7,560.7c5,0,10,0,15,0c0,5,0,10,0,15c0,0,0,0,0,0c-5,0-10,0-15,0C952.7,570.7,952.7,565.7,952.7,560.7
			C952.7,560.7,952.7,560.7,952.7,560.7z"/>
		<path class="st9" d="M952.7,575.7c5,0,10,0,15,0c0,5,0,10,0,15c0,0,0,0,0,0c-5,0-10,0-15,0c0,0,0,0,0,0
			C952.7,585.7,952.7,580.7,952.7,575.7L952.7,575.7z"/>
		<path class="st9" d="M127.7,635.6c0-5,0-10,0-15c0,0,0,0,0,0c5,0,10,0,15,0c0,5,0,10,0,15c0,0,0,0,0,0
			C137.7,635.6,132.7,635.6,127.7,635.6z"/>
		<path class="st9" d="M112.7,620.6c0-5,0-10,0-15c0,0,0,0,0,0c5,0,10,0,15,0c0,5,0,10,0,15c0,0,0,0,0,0
			C122.7,620.6,117.7,620.6,112.7,620.6z"/>
		<path class="st9" d="M97.7,605.7c0-5,0-10,0-15c0,0,0,0,0,0c5,0,10,0,15,0c0,5,0,10,0,15c0,0,0,0,0,0
			C107.7,605.7,102.7,605.7,97.7,605.7z"/>
		<path class="st9" d="M937.7,590.7c-5,0-10,0-15,0c0,0,0,0,0,0c0-5,0-10,0-15c0,0,0,0,0,0c5,0,10,0,15,0l0,0
			C937.7,580.7,937.7,585.7,937.7,590.7L937.7,590.7z"/>
		<path class="st9" d="M637.7,590.7c-5,0-10,0-15,0c0,0,0,0,0,0c0-5,0-10,0-15c5,0,10,0,15,0C637.7,580.7,637.7,585.7,637.7,590.7
			L637.7,590.7z"/>
		<path class="st14" d="M185.7,529.7c1.5-0.3,3.1-0.8,4.6-0.8c13.8-0.1,27.7-0.1,41.5-0.1c-1.1,5.7-2.1,11.3-3.2,17
			c-3.6,0-7.2,0-10.9,0c0-4,0.2-7.9-0.2-11.9c-0.1-1.1-2.2-3.1-3.1-2.9c-3.9,0.7-8.5-2.6-11.6,2c-0.4,0.6-0.1,1.6-0.1,2.4
			c0,3.5,0,6.9,0,10.4c-5,0-10,0-15,0c0-2.5,0.3-5-0.1-7.4C187.3,535.4,186.4,532.5,185.7,529.7z"/>
		<path class="st7" d="M247.7,21.5c5,0,10,0,15,0c0,0,0,0,0,0c0,5.4,0,10.7,0.1,16.1c-6.5,1-12.9,2-19.4,2.8
			c-3.5,0.5-7.1,0.6-10.6,0.9c0-1.6,0-3.2,0-4.8c0,0,0,0,0,0c4.7-0.2,11.4,1.5,13.7-1C248.9,32.8,247.4,26.4,247.7,21.5L247.7,21.5z
			"/>
		<path class="st4" d="M162.7,50.3c-6,1.1-12,2.2-18.1,3.1c-5.6,0.8-11.2,1.2-16.9,1.8c0-1.3,0-2.5,0-3.8c4.7-0.2,11.4,1.5,13.7-0.9
			c2.5-2.8,1.1-9.2,1.3-14l0,0c5,0,10,0,15,0c0,4.1,0,8.2,0,12.2C159.7,49.3,161.2,49.8,162.7,50.3z"/>
		<path class="st10" d="M218.9,602.7c-0.1,1-0.2,2-0.3,2.9c-5.3,0-10.6,0-15.9,0c0-5,0-10,0-15c5,0,10,0,15,0c0,0,0,0,0,0
			C218.1,594.7,218.5,598.7,218.9,602.7z"/>
		<path class="st12" d="M262.8,37.6c0-5.4,0-10.7-0.1-16.1c5,0,10,0,15,0c0,0,0,0,0,0c0.3,4.9,0.7,9.8,1,14.7
			c-2.3,0.1-4.6,0.3-6.9,0.4c-2.2-1.5-4.4-2.4-6.1,0.7C264.7,37.5,263.8,37.5,262.8,37.6z"/>
		<path class="st4" d="M202.7,605.7c5.3,0,10.6,0,15.9,0c-0.9,5-1.8,10-2.7,15c-4.4,0-8.7,0-13.1-0.1c0,0,0,0,0,0
			C202.7,615.6,202.7,610.7,202.7,605.7L202.7,605.7z"/>
		<path class="st4" d="M278.7,36.2c-0.3-4.9-0.7-9.8-1-14.7c5,0,10,0,15,0c0,0,0,0,0,0c0,3.5,0,7.1,0,10.3c2.9,0.6,4.9,1.1,7,1.5
			c-5.1,0.7-10.2,1.4-15.3,2.1C282.5,35.7,280.6,36,278.7,36.2z"/>
		<path class="st12" d="M162.7,50.3c-1.5-0.5-3-1-5-1.6c0-4,0-8.1,0-12.2c0,0,0,0,0,0c5,0,10,0,15,0c0,0,0,0,0,0
			c-0.7,4.3-1.3,8.5-2,12.8c-0.6,0.1-1.3,0.2-1.9,0.3c-0.7,0.2-1.4,0.4-2,0.6C165.4,50.3,164,50.3,162.7,50.3z"/>
		<path class="st4" d="M170.7,49.3c0.7-4.3,1.3-8.5,2-12.8c3.3,0,6.6,0.2,9.9-0.1c3.8-0.3,5.7,0.8,5.1,4.9c-0.2,1.1,0.1,2.3,0.2,3.4
			c1.7,0.6,3.2,1.1,4.8,1.5C185.4,47.3,178.1,48.3,170.7,49.3z"/>
		<path class="st12" d="M202.7,620.6c4.4,0,8.7,0,13.1,0.1c-0.4,3-0.8,6-1.3,9c-0.1,0.1-0.4,0.2-0.3,0.3c0.1,0.2,0.2,0.5,0.3,0.7
			c-0.3,1.7-0.7,3.4-1,5c-3.6,0-7.2,0-10.9,0c0,0,0,0,0,0C202.7,630.6,202.7,625.6,202.7,620.6z"/>
		<path class="st14" d="M97.8,66.6c0-5,0-10.1-0.1-15.1c0,0,0,0,0,0c5,0,10,0,15,0c0.4,2.4,0.7,4.8,1.1,7.1
			C108.5,61.3,103.1,63.9,97.8,66.6z"/>
		<path class="st11" d="M299.7,33.3c-2-0.4-4.1-0.9-7-1.5c0-3.2,0-6.8,0-10.3c5,0,10,0,15,0c0,1.1-0.1,2.3,0,3.4
			c0.6,4.5-0.3,7.7-6,7c1,0.4,1.9,0.8,2.9,1.3C303,33.3,301.4,33.3,299.7,33.3z"/>
		<path class="st13" d="M217.7,545.8c3.6,0,7.2,0,10.9,0c0,1,0,2,0,3c-0.1,0.1-0.4,0.2-0.3,0.3c0.1,0.2,0.2,0.5,0.3,0.7
			c-0.7,3.7-1.3,7.3-2,11c-3,0-5.9,0-8.9,0C217.7,555.7,217.7,550.7,217.7,545.8L217.7,545.8z"/>
		<path class="st14" d="M217.7,560.7c3,0,5.9,0,8.9,0c-1,5-2,10-3,15c-2,0-3.9,0-5.9,0c0,0,0,0,0,0
			C217.7,570.7,217.7,565.7,217.7,560.7L217.7,560.7z"/>
		<path class="st4" d="M337.7,21.5c5,0,10,0,15,0c0,0,0,0,0,0c0,2,0,4.1,0.1,6.1c-5.4,0.6-10.7,1.1-16.1,1.7
			C337.1,26.7,337.4,24.1,337.7,21.5z"/>
		<path class="st22" d="M247.7,635.6c-4-0.3-8.1-0.7-12.1-1c2.8-2.4,5.6-4.9,8.4-7.3c0.8-0.6,1.6-1.1,2.4-1.7
			C246.8,628.9,247.3,632.3,247.7,635.6L247.7,635.6z"/>
		<path class="st20" d="M113.8,58.6c-0.4-2.4-0.7-4.8-1.1-7.1c0,0,0,0,0,0c5,0,10,0,15,0l0,0c0,1.3,0,2.5,0,3.8
			c-2.3,0.4-4.6,0.9-7,1.3c-1,0.2-2,0.5-3.1,0.7C116.4,57.7,115.1,58.2,113.8,58.6z"/>
		<path class="st15" d="M352.8,27.7c0-2,0-4.1-0.1-6.1c5,0,10,0,15,0c-0.3,1.6-0.7,3.2-1,4.8c-0.7,0-1.4,0-2.1,0
			c-3.1-0.8-6.3-2.4-8.9,1C354.8,27.5,353.8,27.6,352.8,27.7z"/>
		<path class="st11" d="M217.7,575.7c2,0,3.9,0,5.9,0c0,0.7,0,1.3,0,2c-0.2,0.7-0.5,1.4-0.7,2c-0.1,1.3-0.2,2.6-0.3,4
			c-0.2,0.7-0.5,1.4-0.7,2c-0.1,1-0.2,2-0.3,3c-0.1,0.1-0.4,0.2-0.3,0.3c0.1,0.2,0.2,0.5,0.3,0.7c-0.3,1-0.5,2-0.8,3.1
			c-1-0.7-2-1.4-3-2c0,0,0,0,0,0C217.7,585.7,217.7,580.7,217.7,575.7z"/>
		<path class="st24" d="M246.4,625.5c-0.8,0.6-1.6,1.1-2.4,1.7c3.4-3.9,6.8-7.9,10.2-11.8c0.2,0.4,0.5,0.8,0.7,1.1
			c-0.8,1-1.6,2-2.3,3C250.6,621.6,248.5,623.5,246.4,625.5z"/>
		<path class="st4" d="M217.7,590.7c1,0.7,2,1.4,3,2c-0.6,3.3-1.3,6.7-1.9,10C218.5,598.7,218.1,594.7,217.7,590.7z"/>
		<path class="st4" d="M355.7,27.4c2.6-3.4,5.8-1.8,8.9-1C361.7,26.7,358.7,27,355.7,27.4z"/>
		<path class="st7" d="M265.7,37.4c1.7-3.1,3.8-2.3,6.1-0.7C269.8,36.9,267.8,37.1,265.7,37.4z"/>
		<path class="st14" d="M117.7,57.3c1-0.2,2-0.5,3.1-0.7C119.8,56.8,118.8,57.1,117.7,57.3z"/>
		<path class="st14" d="M222.8,579.8c0.2-0.7,0.5-1.4,0.7-2C223.3,578.4,223.1,579.1,222.8,579.8z"/>
		<path class="st14" d="M221.8,585.7c0.2-0.7,0.5-1.4,0.7-2C222.3,584.4,222.1,585.1,221.8,585.7z"/>
		<path class="st4" d="M166.7,50.2c0.7-0.2,1.4-0.4,2-0.6C168.1,49.8,167.4,50,166.7,50.2z"/>
		<path class="st15" d="M368.7,26.2c1,0,2,0,3,0C370.7,26.2,369.7,26.2,368.7,26.2z"/>
		<path class="st14" d="M407.1,22.4c0-0.3,0.1-0.6,0.1-0.9c0.2,0.3,0.5,0.6,0.7,0.8c0,0-0.4,0.1-0.4,0.1S407.1,22.4,407.1,22.4z"/>
		<path class="st9" d="M461.7,17.4c0.3,0,0.6,0,0.9,0l-0.5,0.1C462.2,17.5,461.7,17.4,461.7,17.4z"/>
		<path class="st4" d="M90.6,298.1c-0.1-0.2-0.3-0.4-0.4-0.7c0,0,0.2-0.2,0.3-0.3C90.7,297.5,90.7,297.8,90.6,298.1z"/>
		<path class="st25" d="M919.8,4.4c-0.4-0.1-0.8-0.1-1.2-0.2C919,4.3,919.4,4.3,919.8,4.4z"/>
		<path class="st14" d="M228.6,549.7c-0.1-0.2-0.2-0.4-0.3-0.7c0,0,0.2-0.2,0.3-0.3C228.7,549.1,228.7,549.4,228.6,549.7z"/>
		<path class="st14" d="M97.6,387c-0.1-0.2-0.3-0.4-0.4-0.7c0,0,0.2-0.2,0.3-0.3C97.7,386.3,97.7,386.6,97.6,387z"/>
		<path class="st4" d="M214.6,630.6c-0.1-0.2-0.2-0.4-0.3-0.7c0,0,0.2-0.2,0.3-0.3C214.7,630,214.7,630.3,214.6,630.6z"/>
		<path class="st25" d="M358.6,511.1c0.4,0.2,0.8,0.4,1.2,0.6C359.4,511.5,359,511.3,358.6,511.1z"/>
		<path class="st14" d="M221.6,589.7c-0.1-0.2-0.2-0.4-0.3-0.7c0,0,0.2-0.2,0.3-0.3C221.7,589,221.7,589.3,221.6,589.7z"/>
		<path class="st25" d="M888.8,4.2c-0.4,0.1-0.8,0.1-1.2,0.2C888,4.3,888.4,4.3,888.8,4.2z"/>
		<path class="st10" d="M142.7,635.6c0-5,0-10,0-15c0,0,0,0,0,0c5,0,10,0,15,0c0,5,0,10,0,15c0,0,0,0,0,0
			C152.7,635.6,147.7,635.6,142.7,635.6z"/>
		<path class="st9" d="M157.7,635.6c0-5,0-10,0-15c0,0,0,0,0,0c5,0,10,0,15,0c0,5,0,10,0,15c0,0,0,0,0,0
			C167.7,635.6,162.7,635.6,157.7,635.6z"/>
		<path class="st10" d="M172.7,635.6c0-5,0-10,0-15c0,0,0,0,0,0c5,0,10,0,15,0l0,0c0,5,0,10,0,15c0,0,0,0,0,0
			C182.7,635.6,177.7,635.6,172.7,635.6z"/>
		<path class="st9" d="M187.7,635.6c0-5,0-10,0-15c5,0,10,0,15,0c0,0,0,0,0,0c0,5,0,10,0,15C197.7,635.6,192.7,635.6,187.7,635.6z"
			/>
		<path class="st9" d="M97.7,36.5c0-5,0-10,0-15c5,0,10,0,15,0c0,0,0,0,0,0c0,5,0,10,0,15C107.7,36.5,102.7,36.5,97.7,36.5
			C97.7,36.5,97.7,36.5,97.7,36.5z"/>
		<path class="st10" d="M112.7,36.5c0-5,0-10,0-15c5,0,10,0,15,0c0,0,0,0,0,0c0,5,0,10,0,15l0,0C122.7,36.5,117.7,36.5,112.7,36.5
			L112.7,36.5z"/>
		<path class="st9" d="M127.7,36.5c0-5,0-10,0-15c5,0,10,0,15,0c0,0,0,0,0,0c0,5,0,10,0,15c0,0,0,0,0,0
			C137.7,36.5,132.7,36.5,127.7,36.5z"/>
		<path class="st10" d="M142.7,36.5c0-5,0-10,0-15c5,0,10,0,15,0c0,0,0,0,0,0c0,5,0,10,0,15c0,0,0,0,0,0
			C152.7,36.5,147.7,36.5,142.7,36.5z"/>
		<path class="st9" d="M157.7,36.5c0-5,0-10,0-15c5,0,10,0,15,0c0,5,0,10,0,15C167.7,36.5,162.7,36.5,157.7,36.5z"/>
		<path class="st9" d="M217.7,21.5c5,0,10,0,15,0c0,0,0,0,0,0c0,5,0,10,0,15c0,0,0,0,0,0c-4.8-0.3-11.3,1.2-14-1.3
			C216.2,32.9,217.9,26.2,217.7,21.5z"/>
		<path class="st10" d="M97.7,36.5c5,0,10,0,15,0c0,0,0,0,0,0c0,5,0,10,0,15c0,0,0,0,0,0c-5,0-10,0-15,0
			C97.7,46.5,97.7,41.5,97.7,36.5z"/>
		<path class="st10" d="M232.7,36.5c0-5,0-10,0-15c5,0,10,0,15,0c-0.3,4.8,1.2,11.3-1.4,14C244.2,38,237.4,36.3,232.7,36.5z"/>
		<path class="st14" d="M100,434.1c0-0.5,0-1,0-1.5c0.1,0,0.3,0,0.4,0c0,0.5,0,1,0,1.5C100.3,434.1,100.1,434.1,100,434.1z"/>
		<path class="st9" d="M97.7,560.7c5,0,10,0,15,0c0,0,0,0,0,0c0,5,0,10,0,15c-5,0-10,0-15,0c0,0,0,0,0,0
			C97.7,570.7,97.7,565.7,97.7,560.7z"/>
		<path class="st10" d="M97.7,575.7c5,0,10,0,15,0c0,0,0,0,0,0c0,5,0,10,0,15l0,0c-5,0-10,0-15,0C97.7,585.7,97.7,580.7,97.7,575.7z
			"/>
		<path class="st10" d="M337.7,560.7c0.2-4.7-1.5-11.4,0.9-13.6c2.8-2.5,9.2-1.1,14.1-1.3c0,0,0,0,0,0c0,5,0,10,0,15
			C347.7,560.7,342.7,560.7,337.7,560.7L337.7,560.7z"/>
		<path class="st10" d="M322.7,575.7c0.2-4.7-1.5-11.4,0.9-13.6c2.8-2.5,9.2-1.1,14.1-1.3c0,0,0,0,0,0c0,5,0,10,0,15
			C332.7,575.7,327.7,575.7,322.7,575.7C322.7,575.7,322.7,575.7,322.7,575.7z"/>
		<path class="st10" d="M307.7,590.7c0.2-4.7-1.5-11.4,0.9-13.6c2.8-2.5,9.2-1.1,14.1-1.3c0,0,0,0,0,0c0,5,0,10,0,15l0,0
			C317.7,590.7,312.7,590.7,307.7,590.7L307.7,590.7z"/>
		<path class="st10" d="M952.7,545.7c0,5,0,10,0,15c0,0,0,0,0,0c-5,0-10,0-15,0l0,0c0.3-4.8-1.2-11.3,1.3-14
			C941.3,544.3,948,545.9,952.7,545.7z"/>
		<path class="st10" d="M937.7,575.7c-5,0-10,0-15,0c0.3-4.8-1.2-11.3,1.4-14c2.2-2.4,8.9-0.8,13.7-0.9c0,0,0,0,0,0
			C937.7,565.7,937.7,570.7,937.7,575.7z"/>
		<path class="st10" d="M922.7,575.7c0,5,0,10,0,15c-5,0-10,0-15,0c0-5,0-10,0-15c0,0,0,0,0,0C912.7,575.7,917.7,575.7,922.7,575.7z
			"/>
		<path class="st10" d="M637.7,545.8c4.8,0.3,11.3-1.2,14.1,1.3c2.4,2.2,0.8,8.9,0.9,13.6c0,0,0,0,0,0c-5,0-10,0-15,0l0,0
			C637.7,555.7,637.7,550.7,637.7,545.8L637.7,545.8z"/>
		<path class="st10" d="M667.7,545.7c4.8,0.3,11.3-1.2,14.1,1.4c2.4,2.2,0.8,8.9,0.9,13.6l0,0c-5,0-10,0-15,0l0,0
			C667.7,555.7,667.7,550.7,667.7,545.7z"/>
		<path class="st10" d="M652.7,560.7c5,0,10,0,15,0c0,0,0,0,0,0c0,5,0,10,0,15c-5,0-10,0-15,0l0,0
			C652.7,570.7,652.7,565.7,652.7,560.7L652.7,560.7z"/>
		<path class="st10" d="M832.7,560.7c4.7,0.2,11.4-1.5,13.7,0.9c2.5,2.8,1.1,9.2,1.3,14c0,0,0,0,0,0c-5,0-10,0-15,0
			C832.7,570.7,832.7,565.7,832.7,560.7L832.7,560.7z"/>
		<path class="st10" d="M847.7,575.7c5,0,10,0,15,0c0,0,0,0,0,0c0,5,0,10,0,15l0,0c-5,0-10,0-15,0l0,0
			C847.7,585.7,847.7,580.7,847.7,575.7L847.7,575.7z"/>
		<path class="st10" d="M682.7,560.7c5,0,10,0,15,0c0,0,0,0,0,0c0,5,0,10,0,15c-5,0-10,0-15,0C682.7,570.7,682.7,565.7,682.7,560.7
			C682.7,560.7,682.7,560.7,682.7,560.7z"/>
		<path class="st9" d="M697.7,575.7c0-5,0-10,0-15c5,0,10,0,15,0c0,0,0,0,0,0c0,5,0,10,0,15C707.7,575.7,702.7,575.7,697.7,575.7
			L697.7,575.7z"/>
		<path class="st10" d="M367.7,545.8c5,0,10,0,15,0c0,0,0,0,0,0c0,5,0,10,0,15c-5,0-10,0-15,0C367.7,555.7,367.7,550.7,367.7,545.8
			L367.7,545.8z"/>
		<path class="st10" d="M397.7,545.8c5,0,10,0,15,0c0,0,0,0,0,0c0,5,0,10,0,15c-5,0-10,0-15,0C397.7,555.7,397.7,550.7,397.7,545.8
			L397.7,545.8z"/>
		<path class="st9" d="M397.7,545.7c0,5,0,10,0,15l0,0c-5,0-10,0-15,0l0,0c0-5,0-10,0-15C387.7,545.7,392.7,545.7,397.7,545.7z"/>
		<path class="st9" d="M862.7,590.7c0-5,0-10,0-15c5,0,10,0,15,0c0,0,0,0,0,0c0,5,0,10,0,15C872.7,590.7,867.7,590.7,862.7,590.7z"
			/>
		<path class="st4" d="M872,562.2c0,0.1-0.1,0.3-0.1,0.3c-0.1,0-0.3-0.1-0.4-0.1c0-0.1,0.1-0.3,0.1-0.3
			C871.7,562,871.9,562.1,872,562.2z"/>
		<path class="st9" d="M367.7,545.7c0,5,0,10,0,15l0,0c-5,0-10,0-15,0l0,0c0-5,0-10,0-15C357.7,545.7,362.7,545.7,367.7,545.7z"/>
		<path class="st9" d="M412.7,560.7c0-5,0-10,0-15c5,0,10,0,15,0c0,0,0,0,0,0c0,5,0,10,0,15C422.7,560.7,417.7,560.7,412.7,560.7
			L412.7,560.7z"/>
		<path class="st10" d="M712.7,575.7c0-5,0-10,0-15c5,0,10,0,15,0c0,0,0,0,0,0c0,5,0,10,0,15C722.7,575.7,717.7,575.7,712.7,575.7z"
			/>
		<path class="st10" d="M877.7,590.7c0-5,0-10,0-15c5,0,10,0,15,0c0,0,0,0,0,0c0,5,0,10,0,15c0,0,0,0,0,0
			C887.7,590.7,882.7,590.7,877.7,590.7L877.7,590.7z"/>
		<path class="st10" d="M427.7,560.7c0-5,0-10,0-15c5,0,10,0,15,0c0,0,0,0,0,0c0,5,0,10,0,15C437.7,560.7,432.7,560.7,427.7,560.7
			C427.7,560.7,427.7,560.7,427.7,560.7z"/>
		<path class="st9" d="M442.7,560.7c0-5,0-10,0-15c5,0,10,0,15,0c0,0,0,0,0,0c0,5,0,10,0,15C452.7,560.7,447.7,560.7,442.7,560.7
			C442.7,560.7,442.7,560.7,442.7,560.7z"/>
		<path class="st10" d="M457.7,560.7c0-5,0-10,0-15c5,0,10,0,15,0c0,0,0,0,0,0c0,5,0,10,0,15C467.7,560.7,462.7,560.7,457.7,560.7
			C457.7,560.7,457.7,560.7,457.7,560.7z"/>
		<path class="st9" d="M472.7,560.7c0-5,0-10,0-15c5,0,10,0,15,0c0,0,0,0,0,0c0,5,0,10,0,15C482.7,560.7,477.7,560.7,472.7,560.7
			L472.7,560.7z"/>
		<path class="st9" d="M727.7,575.7c0-5,0-10,0-15c5,0,10,0,15,0c0,0,0,0,0,0c0,5,0,10,0,15C737.7,575.7,732.7,575.7,727.7,575.7
			L727.7,575.7z"/>
		<path class="st10" d="M487.7,560.7c0-5,0-10,0-15c5,0,10,0,15,0c0,0,0,0,0,0c0,5,0,10,0,15C497.7,560.7,492.7,560.7,487.7,560.7
			L487.7,560.7z"/>
		<path class="st9" d="M892.7,590.7c0-5,0-10,0-15c5,0,10,0,15,0c0,5,0,10,0,15c0,0,0,0,0,0C902.7,590.7,897.7,590.7,892.7,590.7z"
			/>
		<path class="st9" d="M502.7,560.7c0-5,0-10,0-15c5,0,10,0,15,0c0,0,0,0,0,0c0,5,0,10,0,15C512.7,560.7,507.7,560.7,502.7,560.7
			L502.7,560.7z"/>
		<path class="st10" d="M517.7,560.7c0-5,0-10,0-15c5,0,10,0,15,0c0,0,0,0,0,0c0,5,0,10,0,15C527.7,560.7,522.7,560.7,517.7,560.7
			L517.7,560.7z"/>
		<path class="st10" d="M742.7,575.7c0-5,0-10,0-15c5,0,10,0,15,0c0,0,0,0,0,0c0,5,0,10,0,15C752.7,575.7,747.7,575.7,742.7,575.7
			L742.7,575.7z"/>
		<path class="st9" d="M532.7,560.7c0-5,0-10,0-15c5,0,10,0,15,0c0,0,0,0,0,0c0,5,0,10,0,15C542.7,560.7,537.7,560.7,532.7,560.7
			C532.7,560.7,532.7,560.7,532.7,560.7z"/>
		<path class="st9" d="M757.7,575.7c0-5,0-10,0-15c5,0,10,0,15,0c0,0,0,0,0,0c0,5,0,10,0,15C767.7,575.7,762.7,575.7,757.7,575.7
			L757.7,575.7z"/>
		<path class="st10" d="M547.7,560.7c0-5,0-10,0-15c5,0,10,0,15,0c0,0,0,0,0,0c0,5,0,10,0,15C557.7,560.7,552.7,560.7,547.7,560.7
			C547.7,560.7,547.7,560.7,547.7,560.7z"/>
		<path class="st9" d="M562.7,560.7c0-5,0-10,0-15c5,0,10,0,15,0c0,0,0,0,0,0c0,5,0,10,0,15C572.7,560.7,567.7,560.7,562.7,560.7
			L562.7,560.7z"/>
		<path class="st4" d="M569.6,537.1c0.7,0,1.5,0,2.2,0c0,0.1,0,0.3,0,0.4c-0.7,0-1.5,0.1-2.2,0.1
			C569.6,537.4,569.6,537.3,569.6,537.1z"/>
		<path class="st10" d="M772.7,575.7c0-5,0-10,0-15c5,0,10,0,15,0c0,0,0,0,0,0c0,5,0,10,0,15C782.7,575.7,777.7,575.7,772.7,575.7
			L772.7,575.7z"/>
		<path class="st10" d="M577.7,560.7c0-5,0-10,0-15c5,0,10,0,15,0c0,0,0,0,0,0c0,5,0,10,0,15C587.7,560.7,582.7,560.7,577.7,560.7
			L577.7,560.7z"/>
		<path class="st9" d="M592.7,560.7c0-5,0-10,0-15c5,0,10,0,15,0c0,0,0,0,0,0c0,5,0,10,0,15C602.7,560.7,597.7,560.7,592.7,560.7
			L592.7,560.7z"/>
		<path class="st9" d="M787.7,575.7c0-5,0-10,0-15c5,0,10,0,15,0c0,0,0,0,0,0c0,5,0,10,0,15C797.7,575.7,792.7,575.7,787.7,575.7
			L787.7,575.7z"/>
		<path class="st10" d="M607.7,560.7c0-5,0-10,0-15c5,0,10,0,15,0c0,0,0,0,0,0c0,5,0,10,0,15c0,0,0,0,0,0
			C617.7,560.7,612.7,560.7,607.7,560.7L607.7,560.7z"/>
		<path class="st10" d="M802.7,575.7c0-5,0-10,0-15c5,0,10,0,15,0c0,0,0,0,0,0c0,5,0,10,0,15C812.7,575.7,807.7,575.7,802.7,575.7
			C802.7,575.7,802.7,575.7,802.7,575.7z"/>
		<path class="st9" d="M622.7,560.7c0-5,0-10,0-15c5,0,10,0,15,0c0,5,0,10,0,15C632.7,560.7,627.7,560.7,622.7,560.7z"/>
		<path class="st9" d="M817.7,575.7c0-5,0-10,0-15c5,0,10,0,15,0c0,5,0,10,0,15c0,0,0,0,0,0C827.7,575.7,822.7,575.7,817.7,575.7
			L817.7,575.7z"/>
		<path class="st10" d="M185.7,529.7c0.7,2.9,1.6,5.8,2,8.7c0.3,2.4,0.1,4.9,0.1,7.4l0,0c-5,0-10,0-15,0l0,0c0-5.3,0-10.6,0-15.8
			C177,529.8,181.3,529.7,185.7,529.7z"/>
		<path class="st10" d="M142.7,545.8c0-5,0-10,0-15c4.8,0.3,11.3-1.2,14.1,1.3c2.4,2.2,0.8,8.9,0.9,13.6c0,0,0,0,0,0
			C152.7,545.7,147.7,545.7,142.7,545.8L142.7,545.8z"/>
		<path class="st10" d="M157.7,545.8c5,0,10,0,15,0c0,0,0,0,0,0c0,5,0,10,0,15c-5,0-10,0-15,0C157.7,555.7,157.7,550.7,157.7,545.8
			C157.7,545.7,157.7,545.8,157.7,545.8z"/>
		<path class="st10" d="M127.7,545.8c5,0,10,0,15,0c0,0,0,0,0,0c0,5,0,10,0,15c-5,0-10,0-15,0l0,0
			C127.7,555.7,127.7,550.7,127.7,545.8L127.7,545.8z"/>
		<path class="st9" d="M127.7,545.7c0,5,0,10,0,15c-5,0-10,0-15,0c0,0,0,0,0,0c0-5,0-10,0-15C117.7,545.7,122.7,545.7,127.7,545.7z"
			/>
		<path class="st9" d="M937.7,575.7c0-5,0-10,0-15c5,0,10,0,15,0c0,5,0,10,0,15c0,0,0,0,0,0C947.7,575.7,942.7,575.7,937.7,575.7
			L937.7,575.7z"/>
		<path class="st10" d="M937.7,575.7c5,0,10,0,15,0c0,5,0,10,0,15c-5,0-10,0-15,0C937.7,585.7,937.7,580.7,937.7,575.7z"/>
		<path class="st10" d="M127.7,620.6c0-5,0-10,0-15c0,0,0,0,0,0c5,0,10,0,15,0c0,5,0,10,0,15c0,0,0,0,0,0
			C137.7,620.6,132.7,620.6,127.7,620.6z"/>
		<path class="st10" d="M112.7,605.7c0-5,0-10,0-15c0,0,0,0,0,0c5,0,10,0,15,0c0,5,0,10,0,15c0,0,0,0,0,0
			C122.7,605.7,117.7,605.7,112.7,605.7z"/>
		<path class="st10" d="M622.7,560.7c5,0,10,0,15,0c0,0,0,0,0,0c0,5,0,10,0,15l0,0c-5,0-10,0-15,0c0,0,0,0,0,0
			C622.7,570.7,622.7,565.7,622.7,560.7L622.7,560.7z"/>
		<path class="st10" d="M622.7,590.7c-5,0-10,0-15,0c0,0,0,0,0,0c0-5,0-10,0-15l0,0c5,0,10,0,15,0c0,0,0,0,0,0
			C622.7,580.7,622.7,585.7,622.7,590.7z"/>
		<path class="st10" d="M652.7,590.7c-5,0-10,0-15,0c0-5,0-10,0-15c0,0,0,0,0,0c5,0,10,0,15,0c0,0,0,0,0,0
			C652.7,580.7,652.7,585.7,652.7,590.7L652.7,590.7z"/>
		<path class="st10" d="M202.7,545.8c0-3.5,0-6.9,0-10.4c0-0.8-0.3-1.9,0.1-2.4c3.1-4.5,7.7-1.3,11.6-2c0.9-0.2,3,1.8,3.1,2.9
			c0.4,3.9,0.2,7.9,0.2,11.9c0,0,0,0,0,0C212.7,545.7,207.7,545.7,202.7,545.8L202.7,545.8z"/>
		<path class="st10" d="M187.7,545.8c5,0,10,0,15,0c0,0,0,0,0,0c0,5,0,10,0,15c0,0,0,0,0,0c-5,0-10,0-15,0
			C187.7,555.7,187.7,550.7,187.7,545.8L187.7,545.8z"/>
		<path class="st10" d="M127.7,36.5c5,0,10,0,15,0c-0.3,4.8,1.2,11.3-1.3,14c-2.2,2.4-8.9,0.8-13.7,0.9c0,0,0,0,0,0
			C127.7,46.5,127.7,41.5,127.7,36.5L127.7,36.5z"/>
		<path class="st9" d="M217.7,575.7c0,5,0,10,0,15c-5,0-10,0-15,0c0,0,0,0,0,0c0-5,0-10,0-15l0,0
			C207.7,575.7,212.7,575.7,217.7,575.7L217.7,575.7z"/>
		<path class="st9" d="M202.7,590.7c0,5,0,10,0,15c0,0,0,0,0,0c-5,0-10,0-15,0c0,0,0,0,0,0c0-5,0-10,0-15
			C192.7,590.7,197.7,590.7,202.7,590.7L202.7,590.7z"/>
		<path class="st10" d="M187.7,605.7c5,0,10,0,15,0c0,5,0,10,0,15c-5,0-10,0-15,0c0,0,0,0,0,0C187.7,615.6,187.7,610.7,187.7,605.7z
			"/>
		<path class="st9" d="M202.7,560.7c0-5,0-10,0-15c5,0,10,0,15,0c0,5,0,10,0,15c0,0,0,0,0,0C212.7,560.7,207.7,560.7,202.7,560.7z"
			/>
		<path class="st10" d="M202.7,560.7c5,0,10,0,15,0c0,5,0,10,0,15c-5,0-10,0-15,0C202.7,570.7,202.7,565.7,202.7,560.7
			C202.7,560.7,202.7,560.7,202.7,560.7z"/>
		<path class="st9" d="M127.7,36.5c0,5,0,10,0,15c-5,0-10,0-15,0c0-5,0-10,0-15C117.7,36.5,122.7,36.5,127.7,36.5z"/>
		<path class="st9" d="M142.7,620.6c0-5,0-10,0-15c0,0,0,0,0,0c5,0,10,0,15,0c0,5,0,10,0,15c0,0,0,0,0,0
			C152.7,620.6,147.7,620.6,142.7,620.6z"/>
		<path class="st10" d="M157.7,620.6c0-5,0-10,0-15c0,0,0,0,0,0c5,0,10,0,15,0l0,0c0,5,0,10,0,15c0,0,0,0,0,0
			C167.7,620.6,162.7,620.6,157.7,620.6z"/>
		<path class="st9" d="M172.7,620.6c0-5,0-10,0-15c5,0,10,0,15,0c0,0,0,0,0,0c0,5,0,10,0,15C182.7,620.6,177.7,620.6,172.7,620.6z"
			/>
		<path class="st10" d="M112.7,560.7c5,0,10,0,15,0c0,0,0,0,0,0c0,5,0,10,0,15c-5,0-10,0-15,0c0,0,0,0,0,0
			C112.7,570.7,112.7,565.7,112.7,560.7z"/>
		<path class="st9" d="M112.7,575.7c5,0,10,0,15,0c0,0,0,0,0,0c0,5,0,10,0,15l0,0c-5,0-10,0-15,0
			C112.7,585.7,112.7,580.7,112.7,575.7z"/>
		<path class="st9" d="M337.7,575.7c0-5,0-10,0-15c5,0,10,0,15,0c0,0,0,0,0,0c0,5,0,10,0,15l0,0
			C347.7,575.7,342.7,575.7,337.7,575.7C337.7,575.7,337.7,575.7,337.7,575.7z"/>
		<path class="st9" d="M337.7,590.7c-5,0-10,0-15,0c0-5,0-10,0-15c5,0,10,0,15,0c0,0,0,0,0,0C337.7,580.7,337.7,585.7,337.7,590.7
			L337.7,590.7z"/>
		<path class="st9" d="M652.7,575.7c-5,0-10,0-15,0c0-5,0-10,0-15c5,0,10,0,15,0C652.7,565.7,652.7,570.7,652.7,575.7z"/>
		<path class="st9" d="M682.7,560.7c0,5,0,10,0,15c0,0,0,0,0,0c-5,0-10,0-15,0l0,0c0-5,0-10,0-15
			C672.7,560.7,677.7,560.7,682.7,560.7z"/>
		<path class="st9" d="M847.7,590.7c-5,0-10,0-15,0c0,0,0,0,0,0c0-5,0-10,0-15c0,0,0,0,0,0c5,0,10,0,15,0
			C847.7,580.7,847.7,585.7,847.7,590.7z"/>
		<path class="st9" d="M367.7,560.7c5,0,10,0,15,0c0,0,0,0,0,0c0,5,0,10,0,15c0,0,0,0,0,0c-5,0-10,0-15,0l0,0
			C367.7,570.7,367.7,565.7,367.7,560.7L367.7,560.7z"/>
		<path class="st9" d="M397.7,560.7c5,0,10,0,15,0c0,0,0,0,0,0c0,5,0,10,0,15c-5,0-10,0-15,0l0,0
			C397.7,570.7,397.7,565.7,397.7,560.7L397.7,560.7z"/>
		<path class="st10" d="M397.7,560.7c0,5,0,10,0,15c-5,0-10,0-15,0c0-5,0-10,0-15C387.7,560.7,392.7,560.7,397.7,560.7z"/>
		<path class="st10" d="M367.7,560.7c0,5,0,10,0,15c-5,0-10,0-15,0c0-5,0-10,0-15C357.7,560.7,362.7,560.7,367.7,560.7z"/>
		<path class="st10" d="M412.7,575.7c0-5,0-10,0-15c5,0,10,0,15,0c0,0,0,0,0,0c0,5,0,10,0,15C422.7,575.7,417.7,575.7,412.7,575.7
			L412.7,575.7z"/>
		<path class="st9" d="M427.7,575.7c0-5,0-10,0-15c5,0,10,0,15,0c0,0,0,0,0,0c0,5,0,10,0,15C437.7,575.7,432.7,575.7,427.7,575.7
			C427.7,575.7,427.7,575.7,427.7,575.7z"/>
		<path class="st10" d="M442.7,575.7c0-5,0-10,0-15c5,0,10,0,15,0c0,0,0,0,0,0c0,5,0,10,0,15c0,0,0,0,0,0
			C452.7,575.7,447.7,575.7,442.7,575.7C442.7,575.7,442.7,575.7,442.7,575.7z"/>
		<path class="st9" d="M457.7,575.7c0-5,0-10,0-15c5,0,10,0,15,0c0,0,0,0,0,0c0,5,0,10,0,15l0,0
			C467.7,575.7,462.7,575.7,457.7,575.7z"/>
		<path class="st10" d="M472.7,575.7c0-5,0-10,0-15c5,0,10,0,15,0c0,0,0,0,0,0c0,5,0,10,0,15C482.7,575.7,477.7,575.7,472.7,575.7z"
			/>
		<path class="st9" d="M487.7,575.7c0-5,0-10,0-15c5,0,10,0,15,0c0,0,0,0,0,0c0,5,0,10,0,15C497.7,575.7,492.7,575.7,487.7,575.7
			L487.7,575.7z"/>
		<path class="st10" d="M502.7,575.7c0-5,0-10,0-15c5,0,10,0,15,0c0,0,0,0,0,0c0,5,0,10,0,15c0,0,0,0,0,0
			C512.7,575.7,507.7,575.7,502.7,575.7L502.7,575.7z"/>
		<path class="st9" d="M517.7,575.7c0-5,0-10,0-15c5,0,10,0,15,0c0,0,0,0,0,0c0,5,0,10,0,15C527.7,575.7,522.7,575.7,517.7,575.7z"
			/>
		<path class="st10" d="M532.7,575.7c0-5,0-10,0-15c5,0,10,0,15,0c0,0,0,0,0,0c0,5,0,10,0,15C542.7,575.7,537.7,575.7,532.7,575.7
			C532.7,575.7,532.7,575.7,532.7,575.7z"/>
		<path class="st9" d="M547.7,575.7c0-5,0-10,0-15c5,0,10,0,15,0c0,0,0,0,0,0c0,5,0,10,0,15C557.7,575.7,552.7,575.7,547.7,575.7
			C547.7,575.7,547.7,575.7,547.7,575.7z"/>
		<path class="st10" d="M562.7,575.7c0-5,0-10,0-15c5,0,10,0,15,0c0,0,0,0,0,0c0,5,0,10,0,15C572.7,575.7,567.7,575.7,562.7,575.7
			L562.7,575.7z"/>
		<path class="st9" d="M577.7,575.7c0-5,0-10,0-15c5,0,10,0,15,0c0,0,0,0,0,0c0,5,0,10,0,15c0,0,0,0,0,0
			C587.7,575.7,582.7,575.7,577.7,575.7L577.7,575.7z"/>
		<path class="st10" d="M592.7,575.7c0-5,0-10,0-15c5,0,10,0,15,0c0,0,0,0,0,0c0,5,0,10,0,15c0,0,0,0,0,0
			C602.7,575.7,597.7,575.7,592.7,575.7z"/>
		<path class="st9" d="M607.7,575.7c0-5,0-10,0-15c5,0,10,0,15,0c0,5,0,10,0,15C617.7,575.7,612.7,575.7,607.7,575.7z"/>
		<path class="st9" d="M187.7,545.7c0,5,0,10,0,15c0,0,0,0,0,0c-5,0-10,0-15,0l0,0c0-5,0-10,0-15
			C177.7,545.7,182.7,545.7,187.7,545.7z"/>
		<path class="st9" d="M142.7,560.7c0-5,0-10,0-15c5,0,10,0,15,0c0,5,0,10,0,15c0,0,0,0,0,0C152.7,560.7,147.7,560.7,142.7,560.7
			L142.7,560.7z"/>
		<path class="st9" d="M157.7,560.7c5,0,10,0,15,0c0,0,0,0,0,0c0,5,0,10,0,15c-5,0-10,0-15,0C157.7,570.7,157.7,565.7,157.7,560.7
			C157.7,560.7,157.7,560.7,157.7,560.7z"/>
		<path class="st9" d="M127.7,575.7c0-5,0-10,0-15c5,0,10,0,15,0c0,0,0,0,0,0c0,5,0,10,0,15C137.7,575.7,132.7,575.7,127.7,575.7
			C127.7,575.7,127.7,575.7,127.7,575.7z"/>
		<path class="st9" d="M127.7,605.7c0-5,0-10,0-15c0,0,0,0,0,0c5,0,10,0,15,0c0,5,0,10,0,15c0,0,0,0,0,0
			C137.7,605.7,132.7,605.7,127.7,605.7z"/>
		<path class="st9" d="M592.7,575.7c5,0,10,0,15,0c0,5,0,10,0,15c-5,0-10,0-15,0c0,0,0,0,0,0C592.7,585.7,592.7,580.7,592.7,575.7
			L592.7,575.7z"/>
		<path class="st9" d="M202.7,560.7c0,5,0,10,0,15c0,0,0,0,0,0c-5,0-10,0-15,0c0-5,0-10,0-15c0,0,0,0,0,0
			C192.7,560.7,197.7,560.7,202.7,560.7z"/>
		<path class="st10" d="M187.7,575.7c5,0,10,0,15,0c0,5,0,10,0,15c-5,0-10,0-15,0c0,0,0,0,0,0C187.7,585.7,187.7,580.7,187.7,575.7
			C187.7,575.7,187.7,575.7,187.7,575.7z"/>
		<path class="st10" d="M187.7,605.7c-5,0-10,0-15,0c0,0,0,0,0,0c0-5,0-10,0-15l0,0c5,0,10,0,15,0c0,0,0,0,0,0
			C187.7,595.7,187.7,600.7,187.7,605.7z"/>
		<path class="st9" d="M472.7,575.7c5,0,10,0,15,0c0,0,0,0,0,0c0,5,0,10,0,15c0,0,0,0,0,0c-5,0-10,0-15,0c0,0,0,0,0,0
			C472.7,585.7,472.7,580.7,472.7,575.7L472.7,575.7z"/>
		<path class="st10" d="M472.7,575.7c0,5,0,10,0,15c-5,0-10,0-15,0c0,0,0,0,0,0c0-5,0-10,0-15c0,0,0,0,0,0
			C462.7,575.7,467.7,575.7,472.7,575.7z"/>
		<path class="st9" d="M382.7,575.7c5,0,10,0,15,0c0,0,0,0,0,0c0,5,0,10,0,15c0,0,0,0,0,0c-5,0-10,0-15,0c0,0,0,0,0,0
			C382.7,585.7,382.7,580.7,382.7,575.7L382.7,575.7z"/>
		<path class="st9" d="M352.7,575.7c5,0,10,0,15,0c0,0,0,0,0,0c0,5,0,10,0,15c0,0,0,0,0,0c-5,0-10,0-15,0c0,0,0,0,0,0
			C352.7,585.7,352.7,580.7,352.7,575.7L352.7,575.7z"/>
		<path class="st10" d="M517.7,575.7c5,0,10,0,15,0c0,0,0,0,0,0c0,5,0,10,0,15c0,0,0,0,0,0c-5,0-10,0-15,0c0,0,0,0,0,0
			C517.7,585.7,517.7,580.7,517.7,575.7L517.7,575.7z"/>
		<path class="st10" d="M142.7,605.7c0-5,0-10,0-15c0,0,0,0,0,0c5,0,10,0,15,0l0,0c0,5,0,10,0,15c0,0,0,0,0,0
			C152.7,605.7,147.7,605.7,142.7,605.7z"/>
		<path class="st9" d="M157.7,605.7c0-5,0-10,0-15c5,0,10,0,15,0c0,5,0,10,0,15C167.7,605.7,162.7,605.7,157.7,605.7z"/>
		<path class="st10" d="M142.7,590.7c-5,0-10,0-15,0c0-5,0-10,0-15c5,0,10,0,15,0c0,0,0,0,0,0C142.7,580.7,142.7,585.7,142.7,590.7
			L142.7,590.7z"/>
		<path class="st10" d="M352.7,575.7c0,5,0,10,0,15c-5,0-10,0-15,0c0-5,0-10,0-15C342.7,575.7,347.7,575.7,352.7,575.7z"/>
		<path class="st10" d="M367.7,590.7c0-5,0-10,0-15c5,0,10,0,15,0c0,5,0,10,0,15C377.7,590.7,372.7,590.7,367.7,590.7z"/>
		<path class="st10" d="M397.7,590.7c0-5,0-10,0-15c5,0,10,0,15,0c0,0,0,0,0,0c0,5,0,10,0,15c0,0,0,0,0,0
			C407.7,590.7,402.7,590.7,397.7,590.7z"/>
		<path class="st9" d="M412.7,590.7c0-5,0-10,0-15c5,0,10,0,15,0c0,0,0,0,0,0c0,5,0,10,0,15c0,0,0,0,0,0
			C422.7,590.7,417.7,590.7,412.7,590.7z"/>
		<path class="st10" d="M427.7,590.7c0-5,0-10,0-15c5,0,10,0,15,0c0,0,0,0,0,0c0,5,0,10,0,15c0,0,0,0,0,0
			C437.7,590.7,432.7,590.7,427.7,590.7z"/>
		<path class="st9" d="M442.7,590.7c0-5,0-10,0-15c5,0,10,0,15,0c0,5,0,10,0,15C452.7,590.7,447.7,590.7,442.7,590.7z"/>
		<path class="st10" d="M487.7,590.7c0-5,0-10,0-15c5,0,10,0,15,0c0,0,0,0,0,0c0,5,0,10,0,15c0,0,0,0,0,0
			C497.7,590.7,492.7,590.7,487.7,590.7z"/>
		<path class="st9" d="M502.7,590.7c0-5,0-10,0-15c5,0,10,0,15,0c0,5,0,10,0,15C512.7,590.7,507.7,590.7,502.7,590.7z"/>
		<path class="st9" d="M532.7,590.7c0-5,0-10,0-15c5,0,10,0,15,0c0,0,0,0,0,0c0,5,0,10,0,15c0,0,0,0,0,0
			C542.7,590.7,537.7,590.7,532.7,590.7z"/>
		<path class="st10" d="M547.7,590.7c0-5,0-10,0-15c5,0,10,0,15,0c0,0,0,0,0,0c0,5,0,10,0,15c0,0,0,0,0,0
			C557.7,590.7,552.7,590.7,547.7,590.7z"/>
		<path class="st9" d="M562.7,590.7c0-5,0-10,0-15c5,0,10,0,15,0c0,0,0,0,0,0c0,5,0,10,0,15c0,0,0,0,0,0
			C572.7,590.7,567.7,590.7,562.7,590.7z"/>
		<path class="st10" d="M577.7,590.7c0-5,0-10,0-15c5,0,10,0,15,0c0,5,0,10,0,15C587.7,590.7,582.7,590.7,577.7,590.7z"/>
		<path class="st10" d="M187.7,560.7c0,5,0,10,0,15c0,0,0,0,0,0c-5,0-10,0-15,0l0,0c0-5,0-10,0-15
			C177.7,560.7,182.7,560.7,187.7,560.7z"/>
		<path class="st10" d="M142.7,575.7c0-5,0-10,0-15c5,0,10,0,15,0c0,5,0,10,0,15c0,0,0,0,0,0C152.7,575.7,147.7,575.7,142.7,575.7
			L142.7,575.7z"/>
		<path class="st10" d="M172.7,590.7c-5,0-10,0-15,0c0,0,0,0,0,0c0-5,0-10,0-15c0,0,0,0,0,0c5,0,10,0,15,0c0,0,0,0,0,0
			C172.7,580.7,172.7,585.7,172.7,590.7L172.7,590.7z"/>
		<path class="st9" d="M172.7,590.7c0-5,0-10,0-15c5,0,10,0,15,0c0,5,0,10,0,15C182.7,590.7,177.7,590.7,172.7,590.7z"/>
		<path class="st9" d="M157.7,575.7c0,5,0,10,0,15c-5,0-10,0-15,0c0-5,0-10,0-15C147.7,575.7,152.7,575.7,157.7,575.7z"/>
	</g>
	<g id="Layer_2" class="st1">
	</g>
	<g id="Layer_3" class="st1">
	</g>
</g>
<g id="Layer_4">
	<g>
		<path class="st26" d="M13.5,89.7c-4,5.7-8,11.4-12,17.1c-0.3,1.3-0.6,2.6-0.9,3.9c-0.2,0.7-0.3,1.4-0.5,2.1
			c0.1,6.7-0.5,13.4,0.5,19.9c1.5,9.3,4.2,18.3,6.4,27.5c0.4,2.6,0.8,5.3,1.2,7.9c0.2,0.3,0.3,0.6,0.2,0.9c0.2,0.6,0.4,1.3,0.6,1.9
			c1.6,7.2,3.2,14.4,4.8,21.6c0.2,1,0.5,1.9,0.7,2.9c0.3,0.7,0.6,1.3,0.9,2c0.4,2.6,0.8,5.3,1.2,7.9c1.8,7.8,3.5,15.6,5.3,23.4
			c0.3,1.3,0.6,2.6,0.9,3.9c1.2,4.9,2.5,9.8,3.7,14.7c0.1,1,0.2,2,0.3,2.9c0.2,1,0.4,2,0.5,3c0.1,0.7,0.2,1.3,0.3,2
			c0.2,0.3,0.3,0.6,0.1,0.9c0.2,0.6,0.4,1.3,0.6,1.9c1.6,7.5,3.3,15.1,4.9,22.6c0.2,0.6,0.4,1.3,0.6,1.9c0.6,2.6,1.2,5.2,1.8,7.9
			c0.3,1.6,0.7,3.2,1,4.9c0.5,1.6,1.2,3.2,1.6,4.8c1.6,7.2,3.2,14.4,4.8,21.6c0.4,2.6,0.8,5.3,1.2,7.9c0.2,0.3,0.3,0.6,0.1,0.9
			c0.2,0.6,0.4,1.3,0.5,1.9c1.6,7.2,3.2,14.4,4.7,21.6c0.9,4.3,1.9,8.5,2.8,12.8c1.8,7.8,3.5,15.6,5.3,23.4c0.3,1.3,0.6,2.6,0.9,3.9
			c1.5,6.9,3.1,13.7,4.6,20.6c0.3,1.6,0.7,3.2,1,4.9c1.6,7.5,3.3,15,4.9,22.6c0.2,0.6,0.4,1.3,0.6,1.9c0.6,2.6,1.2,5.2,1.8,7.9
			c0.3,1.6,0.7,3.2,1,4.9c1.5,6.9,3.1,13.7,4.6,20.6c0.3,1.3,0.6,2.6,0.8,3.9c0.6,2.6,1.2,5.3,1.8,7.9c2.9,13.2,5.9,26.5,8.8,39.7
			c2,8.9,3.9,17.9,5.9,26.8c1.4,6.2,2.9,12.4,4.3,18.6c1.8,4.8,3.5,9.6,5.3,14.4c6,8.3,12.5,16.3,22.7,20.5
			c5.6,2.3,11.6,3.7,17.4,5.6c2.6,0,5.2,0,7.8,0c8.3-1.4,16.6-2.9,24.9-4.3c3.2-0.8,6.5-1.5,9.7-2.3c0.3-0.2,0.7-0.3,1-0.2
			c1.8-0.3,3.6-0.6,5.4-1c11.1-2.7,22.2-5.4,33.3-8.1c3.6-0.8,7.2-1.6,10.8-2.5c0.3-0.2,0.7-0.3,1-0.2c1.1-0.1,2.2-0.3,3.3-0.4
			c5.4-1.4,10.7-2.7,16.1-4.1c4.3-0.9,8.7-1.8,13-2.7c0.3-0.2,0.7-0.3,1-0.2c0.7-0.1,1.5-0.2,2.2-0.3c5.4-1.4,10.7-2.7,16.1-4.1
			c5.4-1.1,10.8-2.2,16.2-3.2c5.4-1,10.8-2.1,16.2-3.1c5.4-1.4,10.8-2.7,16.1-4.1c5.4-1.1,10.8-2.1,16.2-3.2
			c5.4-1.1,10.8-2.1,16.2-3.2c3.7-0.6,7.5-1,11.2-1.7c7.1-1.4,14.2-3,21.3-4.6c4.9-1,9.8-2,14.7-3.1c5.2-1.2,10.3-2.5,15.5-3.8
			c3.6-0.5,7.3-1,10.9-1.6c0.3-0.2,0.7-0.3,1-0.2c2.2-0.3,4.4-0.6,6.6-0.9c5.4-1.3,10.7-2.7,16.1-4c3.3-0.5,6.5-1,9.8-1.4
			c0.3-0.2,0.7-0.3,1-0.2c1.8-0.2,3.7-0.5,5.5-0.7c5.4-1,10.8-2.1,16.2-3.2c1-0.2,2.1-0.4,3.1-0.6c0.4-0.3,0.7-0.6,1.1-0.8
			c4-0.6,8-1.1,12.1-1.7c5.4-1,10.8-2.1,16.2-3.1c5.5-0.7,10.9-1.5,16.4-2.2c5.4-1,10.8-2.1,16.2-3.1c5.5-0.7,10.9-1.4,16.4-2.2
			c5.4-1,10.8-2.1,16.2-3.1c5.5-0.7,10.9-1.4,16.4-2.2c5.4-1,10.8-2.1,16.2-3.1c2.2-0.3,4.4-0.6,6.6-0.9c0.3-0.2,0.7-0.3,1-0.2
			c2.9-0.4,5.8-0.8,8.8-1.2c0.3-0.1,0.7-0.3,1-0.4c0.2-0.5,0.3-1.3,0.5-1.4c7.8-0.9,15.6-1.7,23.4-2.5c2.5-0.3,5.1-0.6,7.6-0.9
			c5.4-0.7,10.9-1.5,16.3-2.2c0.7-0.1,1.5-0.2,2.2-0.3c0.3-0.2,0.7-0.3,1-0.2c4.4-0.6,8.7-1.2,13.1-1.8c5.4-0.7,10.9-1.4,16.3-2.1
			c2.5-0.4,5-0.8,7.5-1.3c4.5-2.4,9.3-2.8,13.6-0.6c4.7,2.3,8.8,5.4,13.3,8.1c8.2,4.9,16.6,9.5,24.6,14.5
			c10.3,6.4,20.4,13.1,30.5,19.7c5.6,3.6,11.3,7.3,16.9,10.9c4.1,2.4,8.1,4.9,12.2,7.3c2.4,1.7,4.8,3.4,7.2,5.1
			c1.9,0.8,3.9,1.5,5.8,2.3c-1.4-1.4-2.6-3.1-4.3-4.2c-34.5-24-69-47.8-103.5-71.8c-3.4-2.4-6.7-3.1-11-2.5
			c-30.2,4.6-60.4,9.1-90.6,13.6c-15.2,2.3-30.3,4.5-45.4,7.1c-32.3,5.5-64.6,11.1-96.9,16.8c-14.2,2.5-28.3,5.2-42.4,7.9
			c-20,3.8-40,7.8-60,11.7c-21.4,4.2-42.8,8.4-64.2,12.8c-18.3,3.8-36.5,8-54.8,12c-13.5,2.9-27.1,5.5-40.6,8.6
			c-25.8,5.9-51.6,12-77.4,18.1c-6.5,1.5-13,2.4-19.2-0.1c-23.1-9.1-36.8-25-41.6-47.6c-3-14.4-6.1-28.8-9.3-43.2
			c-3.3-14.7-6.7-29.3-9.9-44c-4.2-18.9-8.1-37.8-12.2-56.7c-3.3-15-6.8-30-10.1-45c-3.3-15.2-6.6-30.4-9.9-45.6
			c-3.3-15.3-6.7-30.7-10-46c-3.2-14.6-6.2-29.1-9.4-43.7c-3.3-15.2-6.8-30.4-10.1-45.5c-3.5-15.8-7.1-31.6-10.4-47.5
			c-2-9.5-4.1-19.1-5-28.7C11.2,102.3,12.8,96,13.5,89.7z"/>
		<path class="st23" d="M981.5,456.5c8.7-7.6,18.4-14.5,22.6-25.3c1-2.4,1.9-4.9,2.8-7.4c0.3-5.8,1-11.6,0.8-17.4
			c-0.5-14.3-1.4-28.6-2.1-42.8c-0.5-10.6-1.1-21.2-1.6-31.8c0-0.1,0.3-0.2,0.4-0.3c-0.2-2.3-0.4-4.6-0.6-6.9
			c-0.2-0.3-0.3-0.6-0.1-0.9c0-2.4,0-4.7,0-7.1c-0.1-4.3-0.3-8.7-0.4-13c-0.3-5-0.6-10-0.9-15c-0.3-5-0.6-10-0.9-15
			c-0.3-5-0.6-10-0.9-15c0-5-0.1-10.1-0.1-15.1c-0.3-2.6-0.5-5.3-0.8-7.9c-0.2-0.3-0.3-0.6-0.1-0.9c0-2.4,0-4.8,0-7.1
			c-0.7-16.2-1.3-32.4-2-48.6c-0.1-3.1-0.6-6.3-1-9.4c-0.3-10.4-0.6-20.7-0.9-31.1c-0.2-1.3-0.4-2.7-0.5-4c-0.2-0.3-0.3-0.6-0.1-0.9
			c-0.1-3.4-0.2-6.7-0.2-10.1c-0.4-5.7-0.7-11.3-1.1-17c-0.2-4.3-0.4-8.7-0.6-13c0-5-0.1-10.1-0.1-15.1c-0.3-3-0.6-5.9-0.9-8.9
			c-0.2-0.3-0.3-0.6-0.1-0.9c0-2,0.1-4.1,0.1-6.1c-0.2-4.7-0.4-9.3-0.6-14c-0.2-1.3-0.4-2.7-0.5-4c-0.2-0.3-0.3-0.6-0.1-0.9
			c-0.8-3.3-1.6-6.5-2.4-9.8c-2.9-4.6-5.9-9.2-8.8-13.8c0,0,0,0,0,0c-6.1-4.2-12.2-8.5-18.4-12.7c0,0,0.1,0,0.1,0
			c-6.2-1.9-12.3-3.7-18.5-5.6c-1.5-0.2-3-0.5-4.5-0.7c-1.1-0.1-2.3-0.2-3.4-0.3c-2.6-0.1-5.2-0.2-7.7-0.3
			c-6.2,0.2-12.4,0.6-18.6,0.6c-6.7,0-13.4-0.3-20.1-0.5c-1.5,0.2-3,0.3-4.4,0.5c-0.8-0.1-1.5-0.2-2.3-0.3c-0.7,0-1.4,0-2.2,0
			c-8.1,0.1-16.2,0.1-24.3,0.2c-3.2,0.1-6.4,0.3-9.6,0.4c-11.6,0.2-23.1,0.3-34.7,0.4c-3.9,0.2-7.8,0.6-11.7,0.7
			c-7.2,0.1-14.4,0-21.5,0c-1.1,0-2.2,0.1-3.3,0.1c-2.2,0.1-4.5,0.1-6.7,0.2c-2.5,0.2-5.1,0.4-7.6,0.6c-2.1,0-4.2,0.1-6.3,0.1
			C748.5,3,742.8,3,737.2,3c-1.8,0.2-3.6,0.4-5.5,0.6c-6.3,0.3-12.7,0.6-19,0.8c-5.5,0.1-10.9,0-16.4,0c-5.9,0.2-11.8,0.4-17.7,0.7
			c-1.1,0-2.2,0.1-3.3,0.1c-3.3,0.1-6.6,0.2-9.9,0.3c-0.8,0.1-1.5,0.2-2.3,0.3c-0.7,0.1-1.5,0.1-2.2,0.2c-1.1,0.2-2.2,0.3-3.2,0.5
			c-6.2,0.2-12.4,0.5-18.6,0.7c-5.6,0.2-11.2,0.3-16.8,0.4c-1.2,0.1-2.4,0.1-3.6,0.2c0,0-0.5,0.1-0.5,0.1l-0.5,0l-0.3,0.1l-0.3,0
			c-7.1,0.3-14.1,0.5-21.2,0.8c-5.1,0.3-10.3,0.7-15.4,1c-6.6,0.3-13.3,0.6-19.9,0.9c-0.7,0-1.4,0-2.2,0c0,0-0.5,0.2-0.5,0.2
			l-0.5-0.1c-2.6,0.3-5.1,0.6-7.7,0.9c-6.6,0.2-13.2,0.5-19.9,0.7c-5.1,0.3-10.3,0.7-15.4,1c-7.7,0.5-15.4,0.9-23.1,1.4
			c-1.1,0-2.2,0.1-3.3,0.1c-0.4,0-0.7,0.1-1.1,0.1c-11.4,0.8-22.7,1.6-34.1,2.5c-9.1,0.6-18.3,1.2-27.4,1.9
			c-4.2,0.3-8.3,1.1-12.5,1.6c-1.7,0.2-3.4-0.1-5.1-0.1c-1.8,0.1-3.6,0.3-5.4,0.4c-0.4,0-0.8,0.1-1.3,0.1c-0.2,0.1-0.3,0.1-0.5,0.1
			c-0.7,0-1.4,0-2,0c-1.6,0.3-3.3,0.6-4.9,0.8c-4.4,0.2-8.8,0.5-13.2,0.7c-0.7,0.1-1.4,0.3-2.1,0.4c-2.6,0.1-5.2,0.2-7.8,0.3
			c-1.8,0.1-3.6,0.3-5.4,0.4c-5.5,0.5-11,1-16.5,1.5c-1.5,0.1-2.9,0.2-4.4,0.3c0,0-0.5,0.2-0.5,0.2l-0.5-0.1
			c-2.2,0.3-4.4,0.6-6.6,0.9c-11,0.9-22,1.8-33,2.7c-1.4,0.1-2.9,0.2-4.3,0.3c-7.7,0.8-15.4,1.6-23,2.3c-2.9,0.3-5.8,0.6-8.7,0.8
			c-7.3,0.7-14.6,1.5-21.9,2.2c-1.5,0.1-2.9,0.2-4.4,0.3l-0.5,0.2l-0.5-0.1c-1.8,0.2-3.7,0.5-5.5,0.7c-6.9,0.7-13.9,1.4-20.8,2.1
			c-4.4,0.5-8.7,0.9-13.1,1.4c-8.7,1.2-17.4,2.4-26.1,3.6c-0.8,0.1-1.6-0.3-2.4-0.5c-1.4,0.1-2.9,0.2-4.3,0.3
			c-5.8,0.8-11.6,1.5-17.4,2.3c-8.4,1.1-16.8,2.2-25.1,3.3c-6.6,0.7-13.1,1.3-19.7,2c-1.1,0-2.2,0.1-3.3,0.1
			c-5.4,0.7-10.9,1.4-16.3,2.1c-5.5,0.7-10.9,1.4-16.4,2.1c-8.3,1.8-16.5,3.5-24.8,5.3c-1.4,0.6-2.8,1.2-4.1,1.8
			c-12.2,6.7-20.4,16.7-27.5,27.5c-0.6,6.3-2.2,12.6-1.7,18.7c0.9,9.7,3,19.2,5,28.7c3.3,15.9,6.9,31.7,10.4,47.5
			c3.4,15.2,6.8,30.3,10.1,45.5c3.2,14.5,6.3,29.1,9.4,43.7c3.3,15.4,6.7,30.7,10,46c3.3,15.2,6.5,30.4,9.9,45.6
			c3.3,15,6.8,30,10.1,45c4.1,18.9,8.1,37.8,12.2,56.7c3.2,14.7,6.7,29.3,9.9,44c3.2,14.4,6.3,28.8,9.3,43.2
			c4.8,22.6,18.5,38.5,41.6,47.6c6.3,2.5,12.7,1.6,19.2,0.1c25.8-6.1,51.6-12.2,77.4-18.1c13.5-3.1,27.1-5.7,40.6-8.6
			c18.3-4,36.5-8.2,54.8-12c21.4-4.4,42.8-8.6,64.2-12.8c20-3.9,40-7.8,60-11.7c14.1-2.7,28.2-5.4,42.4-7.9
			c32.3-5.7,64.6-11.3,96.9-16.8c15.1-2.6,30.3-4.8,45.4-7.1c30.2-4.6,60.4-9,90.6-13.6c4.2-0.6,7.5,0.1,11,2.5
			c34.4,24,69,47.9,103.5,71.8c1.6,1.1,2.9,2.8,4.3,4.2c0.8,0.9,1.5,1.8,2.3,2.7c0.2-0.4,0.4-0.8,0.7-1.2c4.2,3.4,8.4,6.8,12.7,10.2
			c3.4,2,6.7,4,10.1,6.1c2.9,2,5.7,3.9,8.6,5.9c3.2,2.3,6.4,4.5,9.6,6.8c1.6,0.8,3.2,1.6,4.7,2.3c2.4,1.4,4.9,2.9,7.9,4.7
			c-0.7-3-1.3-5.2-1.8-7.4c-1.7-4.8-3.3-9.7-5-14.5c-0.6-1.6-1.1-3.2-1.7-4.8c-0.2-0.3-0.3-0.6-0.1-0.9c-0.8-2.9-1.7-5.8-2.5-8.7
			c-1.7-4.8-3.3-9.7-5-14.5c-0.2-1-0.5-1.9-0.7-2.9c-1.1-3.2-2.2-6.4-3.4-9.7c-0.4-1-0.9-1.9-1.3-2.9c-0.2-0.3-0.3-0.6-0.1-0.9
			c-0.2-1-0.4-1.9-0.7-2.9c-0.4-0.6-0.7-1.3-1.1-1.9c-0.3-1.3-0.6-2.6-0.8-3.9c-0.4-0.6-0.7-1.3-1.1-1.9c-0.1-0.7-0.2-1.3-0.3-2
			c-1.7-4.8-3.5-9.6-5.2-14.4c-1.2-3.5-2.4-7.1-3.6-10.6c-0.2-0.3-0.3-0.6-0.1-0.9c-0.1-1-0.3-2-0.4-3c-1.9-5.5-3.8-10.9-5.7-16.4
			c-1.5-3.5-3-7.1-4.4-10.5c6.2-0.8,11.6-1.6,17-2.2c13-1.6,26.1-2.9,39.1-4.6c13.3-1.8,26.6-3.6,39.9-5.9
			C972.5,460.3,976.9,458.1,981.5,456.5z M765.1,481.9c-0.4-0.1-0.9-0.2-1.3-0.3c-9.4,1.2-18.8,2.3-28.1,3.5
			c-0.4,0.2-0.8,0.5-1.2,0.7c-16.8,2.6-33.5,5.2-50.3,7.7c-16.8,2.6-33.5,5.1-50.3,7.7c-11,1.7-21.9,3.6-32.8,5.3
			c-11.1,1.8-22.3,3.6-33.4,5.4c-17.7,3-35.5,6-53.2,9.1c-14.1,2.5-28.2,5-42.3,7.6c-18,3.3-35.9,6.7-53.9,10.1
			c-16.2,3.1-32.3,6.2-48.4,9.4c-18,3.6-36,7.4-54.1,11.2c-14.1,2.9-28.3,5.8-42.4,8.6c-4.8,1-9.6,1.9-14.3,2.9
			c-13.3,3-26.5,6.2-39.8,9.2c-8.4,1.9-16.9,3.6-25.3,5.6c-8.4,1.9-16.6,5-25,5.9c-12.3,1.3-23.9-1.5-33.9-8.2
			c-13.5-9.2-18.3-22.6-21.1-37c-2.2-11-4.4-21.9-6.6-32.9c-1-4.8-2-9.7-3-14.5c-3.4-15-7-30-10.3-45c-2.3-10.6-4.2-21.3-6.5-31.9
			c-3.3-14.7-6.9-29.3-10.2-44c-2.5-11.2-4.5-22.6-6.8-33.9c-1-4.8-1.9-9.7-3-14.5c-3.3-14.5-6.9-29-10.1-43.5
			c-2.4-11.1-4.3-22.3-6.7-33.4c-3.2-14.5-6.9-29-10.1-43.5c-2.4-10.9-4.4-21.9-6.6-32.9c-1-5-2-10-3.1-15
			c-3.7-17.1-8.4-34.2-10.9-51.5c-1.9-13.1,3.6-24.7,14.4-34.4c6.8-6.1,14.9-9.3,23.4-12.2c0.4-0.1,0.8-0.2,1.2-0.3
			c10.8-1.4,21.7-2.9,32.5-4.3c0.4,0,0.9,0,1.3,0c17.2-1.9,34.4-3.8,51.6-5.7c17.8-2,35.5-4.1,53.3-6c11.9-1.3,23.9-2.5,35.8-3.7
			c11.6-1.2,23.2-2.4,34.7-3.6c18.3-1.8,36.5-3.5,54.8-5.2c15.3-1.4,30.7-2.8,46-4.1c12.3-1,24.5-1.9,36.8-2.9
			c18-1.4,36.1-2.7,54.1-4.1c13.5-1.1,27.1-2.2,40.6-3.3c5.6-0.5,11.2-0.9,16.8-1.2c16.9-0.9,33.8-1.8,50.7-2.7
			c9.5-0.5,19.1-1.3,28.6-1.7c14.2-0.6,28.3-1,42.5-1.7c9.4-0.4,18.7-1.2,28.1-1.6c13.6-0.6,27.2-0.9,40.9-1.4
			c7.9-0.3,15.8-0.8,23.7-1c11.3-0.3,22.5-0.3,33.8-0.6c10.8-0.3,21.5-0.9,32.3-1.1c13.2-0.3,26.4-0.1,39.6-0.3
			c12.9-0.2,25.8-0.9,38.7-1c17.5-0.2,34.9,0.1,52.4,0c15.3-0.1,29,3.5,40.7,12.5c8.1,6.2,13.4,14.3,14.8,23.6
			c1.4,9.6,0.5,19.5,0.9,29.3c0.5,11.5,1.5,23,2.3,34.5c0.3,4.6,0.5,9.2,0.7,13.8c0.5,14.9,0.8,29.8,1.5,44.6
			c0.5,10.7,1.5,21.3,2,32c0.6,14.7,0.8,29.4,1.5,44.2c0.5,11.5,1.5,23,2.3,34.5c0.3,4.4,0.5,8.8,0.6,13.3
			c0.5,14.9,0.9,29.8,1.5,44.6c0.5,10.7,1.5,21.3,1.9,32c0.7,15.2,0.2,30.5,1.9,45.6c1.9,17-9.6,34.1-25.5,41.9
			c-10.5,5.1-21.5,6.7-33,7.4c-12.9,0.8-25.7,2.5-38.5,4c-13.8,1.7-27.6,3.6-41.1,5.4c11.8,38.2,23.5,76.1,35.4,115
			c-2.1-1.3-3.5-1.9-4.7-2.8c-16.1-12.6-32.1-25.2-48.1-37.8c-10.7-8.4-21.4-16.7-32.2-25C797.1,506.2,781.1,494.1,765.1,481.9z"/>
		<path class="st9" d="M91.4,59.1c-10.8,1.4-21.7,2.9-32.5,4.3c-0.4,0.1-0.8,0.2-1.2,0.3c-8.5,2.9-16.6,6.1-23.4,12.2
			c-10.8,9.7-16.3,21.3-14.4,34.4c2.6,17.3,7.2,34.3,10.9,51.5c1.1,5,2.1,10,3.1,15c2.2,11,4.2,22,6.6,32.9
			c3.2,14.5,6.9,29,10.1,43.5c2.4,11.1,4.3,22.3,6.7,33.4c3.2,14.5,6.8,29,10.1,43.5c1.1,4.8,2.1,9.6,3,14.5
			c2.3,11.3,4.3,22.6,6.8,33.9c3.2,14.7,6.9,29.3,10.2,44c2.3,10.6,4.2,21.3,6.5,31.9c3.3,15,6.9,30,10.3,45c1.1,4.8,2.1,9.6,3,14.5
			c2.2,11,4.4,21.9,6.6,32.9c2.9,14.4,7.6,27.9,21.1,37c10,6.8,21.7,9.5,33.9,8.2c8.5-0.9,16.7-3.9,25-5.9c8.4-2,16.9-3.7,25.3-5.6
			c13.3-3,26.5-6.2,39.8-9.2c4.7-1.1,9.5-2,14.3-2.9c14.1-2.9,28.3-5.7,42.4-8.6c18-3.7,36-7.5,54.1-11.2
			c16.1-3.2,32.3-6.4,48.4-9.4c18-3.4,35.9-6.8,53.9-10.1c14.1-2.6,28.2-5.2,42.3-7.6c17.7-3.1,35.4-6.1,53.2-9.1
			c11.1-1.9,22.3-3.6,33.4-5.4c10.9-1.8,21.9-3.6,32.8-5.3c16.7-2.6,33.5-5.1,50.3-7.7c16.8-2.6,33.5-5.2,50.3-7.7
			c0.4-0.2,0.8-0.5,1.2-0.7c9.4-1.2,18.8-2.3,28.1-3.5c0.4,0.1,0.9,0.2,1.3,0.3c16,12.2,32,24.3,48,36.5c10.8,8.3,21.5,16.6,32.2,25
			c16.1,12.6,32.1,25.2,48.1,37.8c1.2,0.9,2.6,1.6,4.7,2.8c-12-38.9-23.7-76.8-35.4-115c13.6-1.8,27.3-3.7,41.1-5.4
			c12.8-1.5,25.7-3.2,38.5-4c11.5-0.7,22.5-2.3,33-7.4c15.9-7.8,27.4-24.9,25.5-41.9c-1.7-15.1-1.2-30.4-1.9-45.6
			c-0.5-10.7-1.5-21.3-1.9-32c-0.7-14.9-1-29.8-1.5-44.6c-0.2-4.4-0.3-8.9-0.6-13.3c-0.7-11.5-1.8-23-2.3-34.5
			c-0.7-14.7-0.8-29.4-1.5-44.2c-0.5-10.7-1.5-21.3-2-32c-0.6-14.9-1-29.8-1.5-44.6c-0.2-4.6-0.4-9.2-0.7-13.8
			c-0.7-11.5-1.7-23-2.3-34.5c-0.5-9.8,0.5-19.7-0.9-29.3c-1.4-9.3-6.7-17.4-14.8-23.6C957.2,9.6,943.5,6,928.2,6.1
			c-17.5,0.1-34.9-0.2-52.4,0c-12.9,0.1-25.8,0.8-38.7,1c-13.2,0.2-26.4,0.1-39.6,0.3c-10.8,0.2-21.5,0.9-32.3,1.1
			c-11.3,0.3-22.5,0.3-33.8,0.6c-7.9,0.2-15.8,0.7-23.7,1c-13.6,0.5-27.2,0.9-40.9,1.4c-9.4,0.4-18.7,1.2-28.1,1.6
			c-14.2,0.6-28.3,1-42.5,1.7c-9.5,0.4-19.1,1.2-28.6,1.7c-16.9,0.9-33.8,1.8-50.7,2.7c-5.6,0.3-11.2,0.7-16.8,1.2
			c-13.5,1.1-27.1,2.3-40.6,3.3c-18,1.4-36.1,2.8-54.1,4.1c-12.3,0.9-24.5,1.8-36.8,2.9c-15.4,1.3-30.7,2.7-46,4.1
			c-18.3,1.7-36.5,3.4-54.8,5.2c-11.6,1.1-23.2,2.4-34.7,3.6c-11.9,1.2-23.9,2.4-35.8,3.7c-17.8,2-35.5,4-53.3,6
			c-17.2,1.9-34.4,3.8-51.6,5.7C92.3,59.1,91.8,59.1,91.4,59.1z"/>
		<path class="st25" d="M765.1,481.9c-0.4-0.1-0.9-0.2-1.3-0.3C764.2,481.8,764.7,481.9,765.1,481.9z"/>
		<path class="st23" d="M671.7,513.6c-7.8,0.8-15.6,1.6-23.4,2.5"/>
		<path class="st27" d="M981.5,456.5c-4.6,1.6-9.1,3.8-13.8,4.6c-13.2,2.3-26.5,4.2-39.9,5.9c-13,1.7-26.1,3.1-39.1,4.6
			c-5.4,0.6-10.8,1.4-17,2.2c1.4,3.4,2.9,7,4.4,10.5c15.1-2,30.1-4,45.2-5.9c1.7-0.2,3.4,0.1,5.1,0.2c4.7-0.5,9.4-1.1,14.2-1.6
			c11.7-1.3,22.1-5.7,31.7-11.9C975.5,462.3,978.5,459.4,981.5,456.5z"/>
	</g>
</g>
</svg>
