<?xml version="1.0" encoding="utf-8"?>
<!-- Generator: Adobe Illustrator 27.3.0, SVG Export Plug-In . SVG Version: 6.00 Build 0)  -->
<svg version="1.1" xmlns="http://www.w3.org/2000/svg" xmlns:xlink="http://www.w3.org/1999/xlink" x="0px" y="0px"
	 viewBox="0 0 377.1 342.7" style="enable-background:new 0 0 377.1 342.7;" xml:space="preserve">
<style type="text/css">
	.st0{fill:#2EB475;}
	.st1{fill:#FFFFFF;}
	.st2{fill:#CEA32C;}
	.st3{fill:#D81919;}
	.st4{fill:#C69161;}
	.st5{fill:#BFBFBF;}
	.st6{fill:#E5C6AC;}
	.st7{fill:#888888;}
	.st8{fill:#504139;}
</style>
<g id="Clothes">
	<path class="st0" d="M359.8,207.3C357.1,198.1,359.8,207.3,359.8,207.3l-5.3-13.9l-4.1-12.7l-8.9-26.9c0-0.1,0-0.1-0.1-0.2
		l-12.6-31.5c0,0,0-0.1-0.1-0.1l-4.8-10.2c-0.1-0.1-0.1-0.3-0.2-0.4l-1.1-4c-0.4-1.6-2.3-2.4-3.7-1.6l-29.4,16.4
		c-0.5,0.3-0.9,0.8-1.1,1.3l-10.6,27.7c-0.2,0.6-0.7,1.1-1.3,1.4l-6.3,3c-0.1,0.1-0.3,0.1-0.4,0.2l-5.6,4c-0.1,0.1-0.2,0.1-0.3,0.2
		l-7.5,7.1c-0.4,0.4-0.9,0.6-1.4,0.7l-11.4,1.5c-0.4,0-0.8,0-1.1-0.1l-7.2-2.4c-0.5-0.2-1-0.2-1.4,0l-11.4,3c-0.1,0-0.3,0.1-0.4,0.1
		l-16.8,1.6c-0.1,0-0.2,0-0.4,0l-18.2-0.8c-0.1,0-0.1,0-0.2,0l-9,0.2c-0.4,0-0.7,0.1-1,0.2l-13.1,6.2c-0.7,0.3-1.2,0.9-1.4,1.6v0
		c-0.1,0.4-0.3,0.8-0.6,1.1c-1.8,2-9.2,10.2-10,15.9c-0.9,6.5,0,0,0,0l-0.4,21.3c0,0.1,0,0.2,0,0.3l-2.2,18.9c0,0.1,0,0.2,0,0.3
		v24.3c0,0.3,0,0.6,0.1,0.8l10.1,29c0.1,0.2,0.1,0.3,0.2,0.5l9.6,15.7c0,0.1,0.1,0.1,0.1,0.2l7.2,10c0.1,0.2,0.2,0.4,0.3,0.6
		l4.8,12.3c0.1,0.3,0.3,0.5,0.5,0.8l10,11.4c0.3,0.3,0.6,0.6,1,0.7l34.9,13.5c0.8,0.3,1.6,0.2,2.3-0.3l19.4-12.9
		c0.5-0.3,0.9-0.8,1-1.4l0.1-0.2c0.4-1.6,2.2-2.3,3.7-1.6l5.4,2.9c0.1,0,0.1,0.1,0.2,0.1l38.2,16.1c0.7,0.3,1.4,0.3,2.1-0.1
		l29.1-14.1c0.6-0.3,1.1-0.9,1.3-1.6l3-10c0.1-0.4,0.1-0.8,0.1-1.3c-0.3-1.2-0.9-4.1-2.3-7.9c-0.1-0.4-0.4-0.7-0.7-1l-12.1-11.3
		c-0.3-0.3-0.6-0.7-0.7-1.1l-4.5-13.7c-0.1-0.2-0.1-0.3-0.1-0.5l-1.4-11.4c0-0.1,0-0.2-0.1-0.3l-7.1-27.5c-0.4-1.6,0.8-3.2,2.5-3.2
		h5.3l13.7-0.3c0.1,0,0.3,0,0.4,0l16.8,2.3c0.1,0,0.3,0.1,0.4,0.1l17.4,5.6c1.4,0.5,2.9-0.4,3.3-1.8c0.9-3.4,2.5-9.9,3.7-18.3
		c0-0.3,0-0.7,0-1L359.8,207.3z"/>
	<path class="st1" d="M185.8,169.7l-20,6.3l1.4,2.9l6.2,1.4l3.3,1l-0.8,3l8.6,2.2l19.5,6.1l10.6,2.5l17.9,1.8h18.5l14.9-0.8
		l12.9-2.2v-5.7l3.9-0.2c0,0,3.8,2.7,4.2,2.6c0.4-0.1,8,2.8,8,2.8l-3.3,4l-1.1,2.2l6.9,7.5l1.7,9.8l4.5,6l4.1,2c0,0-2.9,16-2.7,20.4
		c0.3,4.4,1.1,8.4,1.1,8.4l15.8-1.3c0,0,15.2,1.1,15.6,1.3c0.4,0.3,16,3.2,16,3.2l8.6,2.2l2.4,1.1c0,0,4.8-9.5,5-19.2
		c0.1-9.8,0,0,0,0s-9.5-32.8-10.3-36.4c-0.9-3.6,0,0,0,0l-3.2-9.3l-10-33.4l-4.6-5.4l-4.9,1.2l-10,5.8l-10.3,5.3l-6.6,8l-9.4,11
		l-4.1,6.7l-14.3-7.5L279,186c0,0-0.6-1,1-5.5s9.8-15.6,9.8-15.6l17.2-11.9l7.9-6.1l7.9-3.4l8.5-2.8l5.8-0.5l-2.4-5.4l-6.4-16
		c0,0-3.7-13.7-8.8-15.4c-5.1-1.8,0,0,0,0L185.8,169.7z"/>
	<polygon class="st2" points="284.8,203.8 277.6,203.8 275.9,209.2 282.5,212.7 287.2,211 287.2,206.5 	"/>
	<polygon class="st2" points="168.7,190.7 164.3,190.7 159.3,195.4 162.8,199.6 168.7,198 170.7,195.1 	"/>
	<polygon class="st2" points="222.9,176.1 217.5,187.7 220.2,190.7 225.4,185 230.1,190.7 234.5,189.7 233,181.4 226,176.1 	"/>
	<path class="st2" d="M206.4,216l-15.1-3.3h-10.9l-3.4,10l-0.9,19.9l5.3,6.2l12,3.8l10.3,4.1l8.4,3.4l10.8,1.4h15.3H253l5.6-3.4
		v-7.7l1.3-10.1v-8l1.7-2.6l-1.2-6.9l-15.3-0.3c0,0-11.9-0.9-13.1-0.7s-10.5-2.6-10.5-2.6l-8.6-1.9L206.4,216z"/>
</g>
<g id="Accessories">
	<path class="st4" d="M361.1,264.9l-4.4,5.8l-2.2,4.6l0.4,3.7c0,0,1.6,1.1,1.4,1.5c-0.2,0.5-1.9,8-1.9,8l1.5,1.9l5.2,6l7.1,6.4
		l2,9.5l-2.6,4.1l-3.9,3.8l-3.7,3.3l-6.2,1.3l-3.4,0.9l-2.6,2.5l-7.2,0.5l-8.2-4.5c0,0-6.7-5.7-8.9-7.2s-7-9.1-7-9.1
		s-3.1-12.1-3.3-13.1c-0.1-1-0.5-14-0.6-14.4c-0.2-0.4-4.4-7.3-5.3-8.8c-0.9-1.4-1.8-9.2-2-10.1c-0.2-0.9-0.5-5.1-0.5-5.1l2.7-3.5
		c0,0,7.5-0.1,7.8-0.1c0.3,0,11.9-0.6,11.9-0.6l10.9,2.5l9.3,1.4l8.6,3.8L361.1,264.9z"/>
	<path class="st4" d="M149.9,228.4l-5.4-6.1l-7.3-1.5v3.8l-4.4,3.8h-6.6l-16.3,3.8l-6.6,3.8l-7.8,2l-5.9,3.6h-3.6l-2.2,3.6l2.1,5.2
		l6.9,1h5.8l2.6-1.2l4.6,2.3c0,0-2.2,1.7-2.4,5l0.2,3.5l1.5,2l2.7-1.1h3.9l4.7-1.4l0.5,0.8l-0.3,2.8l-2.7,5.4l0.7,1.6l2.3,1l1.8-0.3
		l3.9-1.5l1.5,0.5l3.8,1.5l4.5,0.3l3.5-1.4l2-2.4c0,0,4.5-3.4,4.5-3.5c0.1-0.1,2-5.4,2-5.6c0-0.1,0.8-3.4,0.8-3.4s2.1-9.2,2.1-9.8
		c0-0.7-0.2-7.2-0.2-8s0.7-6.2,0.8-6.6C147.8,231.3,149.9,228.4,149.9,228.4z"/>
	<path class="st5" d="M84.3,246.6l-6,5.7l-4.5,3.9l-2.7,5.4l-0.8,5.4l-1.6,5.5l-3.4,2.4l-3.8,5.3c0,0-0.3,1.7-0.5,2.9
		c-0.3,1.2,0.9,13.4,0.9,13.4l-0.3,6.3c0,0-3.4-2.2-3.7-3c-0.3-0.8-3-6.6-3.2-6.9c-0.2-0.3-4.3-4-4.6-4.4c-0.3-0.4-6.8-3.8-6.8-3.8
		l-4.5-2.6c0,0-6.4-5-6.4-5.4c0-0.4-5.8-5.4-5.8-5.4l-6.7-3.9l-3.6-3l-3.8-3.2l-3.6-1.1l-2.4,1.8l-2.9,5.4l-2.1,7.7v7.1v5v5.3
		l1.6,4.3l2.2,4.2l5.5,1.8l1.7-2.6c0,0,1.3-0.7,2.2-1.3c0.9-0.6,3.6-1.9,3.6-1.9l4.2-4.2l3.5-2.6l2.4-0.8l2.8,1.3l4.2,6.4l12.1,12.8
		l6.7,15.7l6,12.3l2.7,7.3l7.6,0.5c0,0,17.8,0.7,18.3,0.9c0.5,0.2,27.6,0,27.6,0l18.6-0.9l3.9-1.4l8.1,0.4l2.8-0.4l-1.1-4.9
		c0,0-0.2-10.7,0-11.3c0.2-0.6,0-9.2,0-9.2l1.1-6.1l-0.6-17.9l0.6-5.9l-0.5-4.6c0,0-0.1-4,0.3-5c0.4-1.1,0.7-1.8,1.3-3
		s1.2-2.5,1.3-3.5c0.1-1,0-3,0-3.5c0-0.4-2.8-3.8-3.1-4.1s-3.5-1.7-3.5-2s-0.9-1.6-2.1-1.7s-3.2,3.2-3.2,3.2l-0.2,4.1l0.7,2.4
		c0,0-0.4,3.2-0.2,3.5c0.2,0.3,0.5,5.6,0.5,5.6l0.5,2.7l1.7,4.9l-1.2,5.3l-3.1,2.9l-3.9-5.3l-1.2-4.5c0,0-0.4-1.3-0.7-2.7
		s-3-4.7-3-4.7l-4.1-1.6l-5.1-1.3l-12.1-1.5c0,0-7.8,0.1-8.1,0.1s-10.5,0.2-10.5,0.2L80,273.3l-1.8-4.8l1.9-3.8l5.5-7.5l3.5-2.6
		l2.7-2.8l-1.7-1.8L84.3,246.6z"/>
	<path class="st4" d="M125.5,58.7l3.3,7.1c0,0,8.1,4,9.5,5.7c1.3,1.7,16.5,6.9,16.5,6.9l12.7,2.5l8.2,3.2l11.6-1l9.3-4l14.1-5.1
		l15.8,1.7l10.5,5.5l21.6,4.7l33.5,7.5h14.3l10.9-4c0,0,6.8,0.4,7.1,0.6c0.4,0.2,7.6,4.4,7.6,4.4v6.2l-7.5,4.2l8.2,3l19.5,1.2
		l9.7-2.2l4.1-2.5c0,0,2.6-4.1,2.1-4.4c-0.5-0.2-7.4-9.9-7.4-9.9l-10.7-9.5l-12.6-12.9l-9.1-4.2l-2.8-2.6c0,0-6.9-4.7-7.7-8.3
		l-0.8-5.4l0.1-9.2l-1.3-7.6l-1.1-5.8l-4-5.2l-9.9-5.2l-11.3-4.5l-16.5-3.5l-9-2.9l-9.3-0.6l-8,0.7L242.3,9l-8.7,6.3l-9,8.8
		l-1.5,3.3c0,0-6.2,3.9-11.9,5.8l-3.4,1.7l-5.8,0.8l-10.2,1.7l-14.1,3l-8.8,2.9l-22.3,5.3L133.3,52L125.5,58.7z"/>
</g>
<g id="Char">
	<path class="st6" d="M195.2,58.8l-28.3,67.6c0,0,15.8,24.9,30.4,25.5c14.5,0.6,78.7-4.8,78.7-4.8l5.4-5L298,127l9.2-11.3l5.5-8.9
		l6.4-1.2l6.9-0.3l6.1-4.7l-3-7.9l-8.3-3l-1.2-3.2l-1.8-6.1l-7.9-2.6L295,73.4l-24.6-4.1L239.4,63c0,0-12.7-2.9-14-2.9
		c-1.4,0-14.3-2.3-14.3-2.3L195.2,58.8z"/>
	<path class="st7" d="M166.8,126.4l-14.3,2.6l-9,2l-5.9,4.8l-5.4,5.9l-1.5,6.2l1.4,5.9l2.4,3.3l1.5,5.9l5,6l12.8,4.4h16.9l18.3-5.1
		l7.9,3.2l10.1-0.2l12.2-1.2l15.3-4.4l4.5,2.2l10.5,0.6l6.2-2.5l7.5-5.1l4.5-4.7l4.1-1.3l4.1-2v-4.4l-2.2-3.5
		C273.6,145,187.7,157.1,166.8,126.4z"/>
	<path class="st7" d="M273,121.4l-3.5,3.8l2.4,5l-4.3,5.9l-7.6-1.2l-4.4,3.2l-5.4-1.1l-10.7-3.8l-6.8-4.7c0,0-4.7-4.2-5.7-4.4
		c-1.1-0.2-5.9,1.4-5.9,1.4l-6.9,2.1l-6.5,2.1h-8.6l-6.2-1.8l-6.9-0.8l-1.8-2.9l2.7-4.7l6.3-4.1l5.4-2.9c0,0,71.6,5.3,75.4,7.5
		L273,121.4z"/>
</g>
<g id="Layer_1">
	<g>
		<g>
			<g>
				<g>
					<path class="st8" d="M321.9,106.8c-1.1-0.8-2.1-1.4-3.2-2.1c1-2,2.3-2.5,4.4-2.3c1.6,0.2,3.5-0.4,5-1.1
						c2.7-1.2,3.2-3.7,1.4-6.2c-2.4-3.4-6.9-5.1-11-4.1c-2.2,0.5-2.3,0.5-3.1-1.9c1-0.3,2.1-0.3,3-0.8c0.6-0.3,0.9-1.2,1.3-1.8
						c0-0.1-0.1-0.1-0.1-0.2c0.1-3-1.2-4.4-4.2-5.1c-4.6-1.2-9-3-13.8-4.6c-0.7,2.9-1.5,5.4-1.8,8c-0.3,2.5,2.1,2.1,3.6,2.8
						c0.6,0.3,1.7,0.6,1.8,1.1c0.1,0.7-0.2,1.6-0.8,2.2c-0.4,0.4-1.3,0.5-2,0.4c-1.1-0.3-2.2-0.8-3.5-1.3c-0.4,1.1-1,2.2-1.1,3.2
						c-0.1,0.6,0.6,1.4,1.1,1.9c0.6,0.4,1.5,0.4,2,0.9c0.5,0.5,1.2,1.6,1,2c-0.4,0.7-1.4,1.5-2.2,1.4c-3.3-0.4-3.3-0.5-4.2,2.8
						c-1.4,5.4-2.7,10.8-4.4,16.1c-2.6,7.6-5.6,15.1-8.5,22.6c-0.2,0.6-1,0.9-1.6,1.3c-0.1-0.7-0.4-1.4-0.2-2
						c1.7-4.9,3.8-9.6,5.3-14.6c2.6-8.6,4.7-17.2,7.1-25.9c0.4-1.6-0.1-2.5-1.3-3.4c-1.6-1.3-3.1-2.6-4.6-4
						c-1.9-1.8-3.3-3.7-3.3-6.6c0.5-0.3,1.1-0.5,1.8-0.8c2,3.8,4.9,6.6,8.7,8.6c0.5-1.6,1.1-2.9,1.3-4.3c0.1-0.5-0.8-1.3-1.4-1.7
						c-2.1-1.4-4-2.8-4.7-5.4c3.5-1.8,4.6,2.1,7.5,2.5c0.5-2.5,1.3-5,1.4-7.6c0.1-0.8-1.5-2.1-2.5-2.4c-3.5-1-7.1-1.6-10.7-2.3
						c-0.8-0.2-1.7,0.2-2.6,0.2c-1.9,0-4,0.3-5.7-0.3c-3.2-0.9-6.6-1.2-9.9-1.8c-4.5-0.9-9-1.5-13.4-2.5c-5.2-1.1-10.3-2.5-15.6-3.7
						c-1.3-0.3-2.7-0.5-4-0.3c-2,0.3-3.7-0.2-5.2-1.5c-0.8-0.6-2.1-0.8-3.1-0.9c-1.5-0.3-3.1-0.3-4.6-0.7c-1.5-0.4-2.9-1.6-4.5-0.1
						c-0.4,0.3-1.3,0.1-2,0.1c-4.2-0.3-8.4-0.6-12.6-0.9c-0.4-0.1-0.9-0.2-1.3-0.4c-3-1.1-5.2,0.3-5.6,3.7c-0.1,0.3-0.1,0.6-0.3,0.8
						c-1.8,2.4-3.7,4.8-5.4,7.3c-0.5,0.8-0.4,2-0.8,2.9c-1.6,3.5-3.2,7-4.9,10.5c-0.2,0.4-0.6,0.8-0.9,0.9c-1.9,0.1-3.8,0.4-5.7,0.1
						c-2.2-0.4-4.6-0.4-6.4-2.3c-0.2-0.3-1-0.3-1.3-0.1c-2.2,1.6-4.2,0.1-6.1-0.6c-4.4-1.6-8.8-3.1-13.2-4.7
						c-0.6-0.3-1.1-0.6-1.8-0.9c-1.6-0.6-3.2-1.3-4.7-1.8c-2.8-0.9-5.9-1.5-8.5-2.9c-3-1.6-5.8-3.8-8.2-6.2
						c-1.7-1.8-2.8-4.3-3.7-6.6c-1-2.6,0-4.9,3-6.2c3.8-1.8,7.8-3.5,11.9-4.5c7.3-1.9,14.7-3.1,22-4.9c8-2,15.9-4.5,24-6.3
						c8.7-1.9,17.6-3.1,26.4-4.6c0.4-0.1,0.8,0.1,1.5,0.3c-0.4,0.5-0.6,0.9-0.9,1.1c-1.2,0.8-2.4,1.5-3.7,2
						c-1.2,0.5-2.6,0.8-3.9,0.8c-2.1,0-4.2,1.8-6.3,0.1c-0.1-0.1-0.7-0.1-0.8,0.1c-2.5,2.3-5.7,1.9-8.6,2.8
						c-2.1,0.8-4.4,1.3-6.6,1.6c-1.4,0.3-2.9,0.3-4,0.3c-1.1,0.6-1.9,1.5-2.8,1.6c-8.1,1.8-16.3,3.4-24.5,5.2
						c-3.7,0.8-7.3,1.8-10.9,2.8c-0.3,0.1-0.6,0.4-0.9,0.6c0,0.3,0,0.5,0,0.8c1.8,0,3.6,0.1,5.4,0c3.9-0.2,7.6-0.4,11.5-0.7
						c3.6-0.3,7.2-0.8,10.8-0.8c3.1-0.1,6.2,0.4,9.2,0.5c3.3,0.2,6.6,0.2,10,0.4c1,0.1,1.9,0.6,2.9,0.8c5.6,0.9,11.2,1.7,16.8,2.5
						c4.5,0.6,9,1.1,13.4,1.8c5,0.8,10,1.6,15,2.5c4.9,0.8,9.8,1.6,14.6,2.6c10,2,19.9,4.2,29.8,6.2c6.3,1.3,12.6,2.7,18.9,4
						c5,1.1,10.2,1.7,15.1,3.1c6,1.7,11.9,3.5,17.5,6.6c6.1,3.3,12.4,6.5,19.1,8.7c5.7,1.9,10.7,4.7,15.7,7.8
						c0.2,0.1,0.5,0.1,1.4,0.4c-2.8-3.5-5.1-6.8-7.9-9.5c-5.9-5.8-12.2-11.2-18.2-16.8c-1.3-1.2-2-3-3.3-4.1c-1.4-1.2-3.4-1.8-4.9-3
						c-2-1.6-3.8-3.5-5.9-5.3c4.1-1.6,6.3,1.2,8.7,3.1c1.3,1,2,2.6,3.2,3.7c3,2.6,6.2,4.9,9.1,7.5c6.1,5.6,13,10.3,18,17
						c2,2.7,4.2,5.4,6.4,7.8c3.1,3.3,4.9,7.2,6,11.4c0.2,0.9-1.1,2.8-2.2,3.3c-6.6,3.3-13.6,2.5-20.6,1.5c-2.5-0.3-5,0.1-7.5-0.3
						c-4.4-0.7-8.8-1.8-13.2-2.5c-2.5-0.4-5.2-0.6-7.8-0.3c-1.4,0.2-2.1-0.1-2.6-1.3C322.9,110.1,322.4,108.4,321.9,106.8z
						 M136.6,62.5c-0.2,0.3-0.6,0.6-0.8,0.8c0.5,1.2,0.9,2.5,1.7,3.5c0.5,0.6,1.8,0.6,2.7,0.9c0-1.1,0.4-2.5-0.1-3.2
						C139.3,63.6,137.8,63.1,136.6,62.5z M178,77.7c-0.9,1.3-1.7,2.3-2.7,3.7c1.8-0.1,3.2,2,4.6-0.1C181,79.5,179.3,78.9,178,77.7z
						 M155,62.7c1.1-1.3,2.1-2.2,0.6-3.7c-0.9-0.9-1.4-2.3-3.2-0.9C153.4,59.5,154.2,61,155,62.7z M147.1,67.5
						c0.8-2.1,2.2-3.5,0.7-5.5c-1,0.4-1.8,0.8-2.8,1.3C145.7,64.6,146.3,65.8,147.1,67.5z M152.3,69.2c-0.8,0.6-1.6,1.1-1.9,1.8
						c-0.3,0.6-0.1,1.5,0.1,2.3c0,0.1,0.8,0.3,1.1,0.2C152.9,72.8,153.3,70.7,152.3,69.2z M167.8,62c-1.1-0.8-1.7-1.5-2.4-1.6
						c-0.5-0.1-1.6,0.8-1.6,1.3c-0.1,0.7,0.6,1.5,1,2.4C165.8,63.4,166.5,62.9,167.8,62z M342,95.7c0.3-0.2,0.6-0.3,0.9-0.5
						c-0.6-1.1-1.1-2.1-1.8-3.2c-0.2-0.3-0.9-0.2-1.3-0.3c0,0.5-0.3,1.1-0.1,1.4C340.5,94.2,341.3,94.9,342,95.7z M337.1,95.9
						c-0.2-0.2-0.3-0.4-0.5-0.6c-0.4,0.5-1,0.9-1.2,1.5c-0.6,2-0.3,2.6,1.2,3.3C336.8,98.6,336.9,97.3,337.1,95.9z M142.2,71
						c1.7,0.3,2.9,0.5,4.2,0.7c0.1-0.3,0.2-0.4,0.2-0.7c-0.7-0.8-1.4-1.6-2.2-2.5C143.7,69.3,143.2,69.9,142.2,71z M327.9,88.8
						c1.3,1.3,2.3,1.7,3.3-0.3c-0.6-0.4-1.1-0.9-1.8-1.4C328.8,87.7,328.4,88.2,327.9,88.8z M165.6,55.3c0,0.2,0,0.3,0,0.5
						c1.7,0,3.4,0,5.2,0c0-0.2,0-0.3,0-0.5C169,55.3,167.3,55.3,165.6,55.3z M325.5,86.1c0.1-0.3,0.1-0.5,0.1-0.7
						c-0.9-0.3-1.8-0.6-3.2-1.1c0.1,1.2,0.2,1.9,0.3,2.8C324,86.7,324.7,86.4,325.5,86.1z"/>
					<path class="st8" d="M137.2,160.6c0.8,2.6,1.1,5.1,4.2,6.1c1.3,0.4,2.5,1.4,3.7,2c4.6,2.5,9.6,2.8,14.6,3
						c4.5,0.1,9-0.1,13.4-1.7c2.9-1.1,6.1-1.1,9.2-1.8c1.2-0.3,2.3-1.1,3.3-1.6c-0.9-4.8,2.8-11.1,7.3-12.5c1.3-0.4,3.7,1.8,3.7,3.7
						c0.2,3.5,0,7-3.2,9.5c-0.3,0.3-0.6,0.7-1.2,1.5c2.2,0.4,4.1,1.1,5.9,1c3.3-0.2,6.7-0.8,10-1.3c0.5-0.1,1.1-0.2,1.5-0.1
						c3.9,1.2,7.5-0.3,11.3-0.6c3.3-0.4,6.6-0.7,9.7-2.2c1.3-0.6,1.8-1.1,1.8-2.5c0-1.2,0-2.5,0.5-3.5c0.6-1.3,1.6-2.4,2.7-3.3
						c0.9-0.8,2.1-1.3,3.3-2c0.7-0.4,1.8-1.1,2-0.9c0.8,0.6,1.6,1.6,1.7,2.4c0.3,3.2-0.1,6.3-3.1,8.4c-0.6,0.4-1.1,1-1.8,1.7
						c0.4,0.3,0.7,0.6,1,0.6c3.8-0.2,7.8,0.3,11.4-0.8c4.3-1.3,8.9-2.3,12.4-5.7c1.6-1.6,2.5-3.3,2.4-5.6c0-1.3,1-2.5,1.7-4
						c2.5,2.8,4.2,3,7,1.6c1.5-0.7,1.8-1.6,0.9-3c-0.6-0.9-0.9-2-1.4-3c-0.8-1.8-0.1-2.8,1.4-3.7c3.4,2.6,4.2,6.4,4.5,10.2
						c0.1,0.9-1.6,2.6-2.8,3c-2.4,0.9-5,1.3-7.6,1.8c-1.3,4-3.9,7.7-7.3,9c-5.2,2-10.2,5.5-16.5,4.4c-3.3-0.6-6.9,0.1-9.9-2.3
						c-0.2-0.2-0.7-0.1-1,0c-3.5,1.3-7.1,2.6-10.8,4c0.1,0.3,0.2,0.9,0.4,1.6c3.7-1.8,5.1,1.3,6.9,3.2c1.4,1.4,2.2,3.4,3.2,5.2
						c1.7,2.8,1.3,5.9,0.6,9c-0.1,0.5-1,1.1-1.6,1.2c-3.1,0.5-4.7-0.3-6.3-3c-0.2-0.4-0.5-0.9-1-1.7c-0.8,0.7-1.6,1.2-2.2,2
						c-1.3,1.6-3.7,2.5-5.1,1.6c-1.9-1-2.8-3-1.9-5.2c1.1-2.5,2.4-5,3.8-7.8c-5.1,1.6-9,4.5-13,7.4c-1.8,1.3-3.7,2.3-5.8,2.9
						c-0.9,0.3-2.6-0.4-3.4-1.1c-1.9-1.8-3.5-3.8-5.3-5.8c-0.7-0.8-1.7-1.3-2.3-2.1c-1.7-2.3-3.3-4.7-4.9-7.1
						c-6.1,1.4-12.1,2.8-18,4.2c2.5,0.5,5.3,1.1,8.1,1.6c3.3,0.6,4.1,2.1,2.2,4.9c-0.6,0.9-1.2,1.8-1.9,2.5
						c-0.6,0.7-1.3,1.3-1.9,1.9c-0.6-0.3-1.2-0.6-2-1c0.8-1.4,1.6-2.8,2.7-4.7c-3.4-0.6-6.6-1.1-9.8-1.5c-0.3-0.1-0.8,0.8-1,1.3
						c-0.2,0.9-0.2,2-0.3,3c-3.4-0.9-4.2-5.2-1.8-8.4c-3.2-0.5-6.3-1.4-9.5-1.4c-3.7,0.1-6.8-1.6-9.8-3.2c-3-1.5-6.1-3.1-7.2-6.7
						c-0.2-0.6-0.7-1.3-0.6-2c0.6-3.4-1.5-5.6-3.3-8c-3.2-4.2-2.8-11,0.4-15.4c4-5.4,9.3-9.1,15.5-11.8c2.1-0.9,4.7-1.2,7-1.6
						c3.4-0.6,6.8-1.1,10.2-1.5c0.8-0.1,2.5,0.9,2.5,1.4c-0.1,1.3-0.9,2.1-2.5,2.3c-3.3,0.4-6.6,1.3-9.8,1.8
						c-1.3,0.3-2.5,0.3-3.8,0.6c-1.8,0.4-3.4,1.3-5.2,1.4c-2.4,0.2-3.8,1.6-5.2,3.2c-1.3,1.5-3.4,2.1-4.9,3.5
						c-3.9,3.4-4.5,10.4-1.6,14.6c1.2,1.8,1.9,1.8,3.3,0.2c2.8-3.3,7.1-3.8,10.6-5.7c1-0.6,2.3-0.8,3.4-1.1c3.6-1.1,6.1,1.1,5.8,4.9
						c-0.2,2.5-1.1,4-3.3,5.2c-1.2,0.6-2.2,1.6-3.3,2.4c-3.6,2.4-7.5,3.1-11.6,1.4c-0.4-0.2-0.8-0.3-1.3-0.4
						C137.8,160.5,137.8,160.6,137.2,160.6z M188.6,172c0.6,1,1,1.7,1.5,2.3c2.2,2.6,4.3,5.4,6.8,7.8c3.2,3,3.5,3.3,7.4,1.1
						c0.4-0.3,0.8-0.5,1.1-0.8c3.1-2,6.1-4.1,9.2-6.1c1.9-1.3,4-2.3,6.1-3.4c-0.1-0.2-0.2-0.4-0.3-0.6c-1.6,0.2-3.1,0.4-4.7,0.5
						c-4.1,0.2-8.3,0.4-12.4,0.5c-2.7,0.1-5.4,0.3-8.1,0.1C193.2,173.4,191.1,172.6,188.6,172z M154.6,152.3c0-0.4,0-0.8,0-1.1
						c-1-0.1-2.2-0.7-3-0.4c-3.5,1.3-6.8,2.7-10.1,4.2c-0.8,0.4-1.5,1.1-2.2,1.6c0.8,0.5,1.6,0.9,2.4,1.4c0.3,0.1,0.6,0.2,0.9,0.2
						C147.8,158.9,150.9,155.1,154.6,152.3z M223.9,178.8c-2.3,2.8-4.3,5.4-5,8.8C222.4,187.5,224.7,183.6,223.9,178.8z
						 M240.3,154.8c-4.3,2.4-6.1,5.4-4.7,8.1C239.1,161.4,240,158.4,240.3,154.8z M231.8,188.7c-0.8-3.6-0.7-6.9-4.5-8.8
						C228.3,183.3,227.5,186.9,231.8,188.7z M188.2,165.7c2.1-2.4,5.2-3.4,5.1-7C190.7,158.9,188.1,162.3,188.2,165.7z"/>
					<path class="st8" d="M157.7,279.8c-0.3-0.6-0.6-1.3-0.8-2c-0.2,0.1-0.4,0.1-0.6,0.2c0.6,2.1,1.1,4.3,1.8,6.5
						c0.1,0,0.3-0.1,0.5-0.1c0-0.8,0-1.5,0-2.2c0.1,0,0.2-0.1,0.3-0.1c0.2,1,1,2.1,0.7,3c-0.5,1.4,0.5,2,1.1,2.8
						c1.4,2.1,3.7,3.9,4.3,6.2c1.6,5.5,6.4,9,8.4,14.2c0.6,1.6,2.4,2.8,3.5,4.4c1.2,1.7,2.4,3.4,3.2,5.3c1.4,3.7,2.3,7.5,3.8,11.1
						c0.6,1.5,2.3,2.4,3.3,3.6c0.5,0.6,1,1.2,1.3,1.8c0.5,1.4,0.8,2.7,2.7,3c0.3,0.1,0.9,0.5,0.9,0.8c0.1,2.6,1.9,2.7,3.8,2.8
						c0.3,0,0.6,0.5,0.9,1.1c-3.4-0.1-6.9,1.5-10-1.1c-0.4-0.3-0.8-0.7-1.1-1.1c-3-4.5-6.3-8.8-7.8-14.3c-0.9-3.4-2.7-7-5-9.6
						c-4.4-5-7.6-11-12.4-15.7c-3.2-3.1-5.5-7.1-7.6-11c-1.3-2.5-1.7-5.4-2.5-8.2c-0.9-3.5-2-6.9-2.8-10.4c-0.8-3.2-1.3-6.4-1.9-10
						c-0.8,1.3-1.5,2.5-2.1,3.6c-2.2,4.3-5.6,7.4-9.8,9.6c-0.8,0.4-1.8,0.2-2.7,0.3c-0.3,0-0.6-0.3-0.8-0.3
						c-4.5,0.9-4.6,0.9-7.4-3.1c-0.9,0.9-1.7,1.8-2.7,2.9c2.1,0.5,4,0.7,5.7,1.5c2.3,1.1,5.1,2.1,6.7,3.9c2.7,3,5,6.4,4.7,10.9
						c-0.1,0.8,0.3,1.7,0.9,2.2c0.6,0.5,1.8,1,2.5,0.8c0.6-0.3,1.3-1.5,1.2-2.2c-0.3-3.2-0.9-6.2-1.3-9.4c-0.2-2.3-0.5-4.6-0.4-6.9
						c0.1-0.9,1.1-1.8,1.6-2.6c0.3,0.1,0.5,0.2,0.7,0.3c0.2,1.9,0.3,3.8,0.6,5.7c0.4,3.2,0.8,6.4,1.3,9.6c0.4,2.6-1.3,7.1-3.4,8.4
						c-2.5,1.5-5.5-0.2-6.3-3.5c-0.6-2.6-1.3-5.2-2.1-7.8c-1.1-3.3-3.8-5-6.9-6.1c-1.9-0.6-3.7-1.4-5.6-2.1
						c-0.2-0.1-0.6-0.2-0.8-0.3c-3.2-0.1-6.5-0.1-9.7-0.1c-2,0-4,0.1-6,0.1c-0.6,0-1.3,0.1-1.8,0c-3-0.8-6-1.1-9.1,0
						c-0.8,0.3-2-0.3-2.9-0.6c-0.1,0-0.3-0.3-0.4-0.2c-2.3,1.5-4.7-0.2-7,0.1c-0.8,0.1-1.8-0.1-2.3-0.6c-2.7-2.3-3.5-6.6-1.4-10.1
						c2.1-3.4,4.8-6.5,7.4-9.6c0.8-0.9,2.2-1.3,3.3-1.9c0.2,0.2,0.4,0.4,0.6,0.6c-1.4,1.7-2.8,3.4-4,5.2c-1.5,2-2.9,4.1-4.3,6.1
						c-0.2,0.3-0.2,0.6-0.3,0.8c-2.1,4.1,0,7.4,4.8,7.3c5.3-0.2,10.5-0.6,15.8-0.7c4.9-0.1,9.9,0,14.9-0.3c-0.7-0.2-1.4-0.4-2-0.6
						c-2.4-0.9-2.7-2.7-1.1-4.8c1.3-1.6,2.2-3.6,3.1-5.7c-3.6,1.3-7.6,0-10.9,2.5c-1.4,1.1-2.5-0.5-3.1-1.6
						c-0.8-1.5,0.8-5.2,1.7-5.8c0.2,1.5,0.4,3.2,0.8,4.9c0.1,0.3,0.8,0.8,1.2,0.7c3.8-0.4,7.6-0.6,10.3-3.8c2.3-2.7,4.5-5.5,6.7-8.3
						c1.5-1.8,3.5-3.2,3.9-5.8c0.5-2.9,0.1-3.7-2.7-3.7c-4.7-0.1-6.9,1.6-9,6.2c-0.6,1.3-2.3,2-3.5,3c-1.9,1.6-3.7,3.4-5.7,5
						c-0.4,0.3-1,0.3-1.5,0.4c0.1-0.4-0.1-1.1,0.2-1.3c1.4-1.7,2.9-3.3,4.4-5c2.8-3.1,5.7-6.2,8.4-9.3c2.7-3.2,9.7-2.8,12.2,0.6
						c5.4-1.6,9.5-0.2,11.2,3.8c1.4-0.2,2.8-0.3,4.5-0.6c0.2-1.8,0.3-3.8,0.6-5.7c0.4-2.5,0.8-5,1.2-7.6c0.5-3.3,1-6.6,1.5-10
						c0.5-4,1-8,1.4-12c0.3-2.8,0.6-5.6,0.7-8.4c0.1-2.5,1-4.5,2.7-6.3c0.2-0.3,0.8-0.3,1.1-0.4c0.1,0.4,0.3,0.7,0.4,1.1
						c0.6,2-0.1,3.9-0.7,5.9c-0.5,1.9-0.5,3.9-0.7,5.9c-0.4,4.6-0.6,9.1-1.1,13.7c-0.2,2.4-1,4.7-1.3,7.1c-0.2,1.5,0.5,3.2,0.1,4.5
						c-1.8,5.6-1.1,11.4-0.9,17c0.2,5.7,0.6,11.4,2.3,16.8c0.9,2.8,2.2,5.5,3.3,8.3c0.8,2.1,1.5,4.3,2.3,6.4
						C157.9,279.8,157.8,279.8,157.7,279.8z M144.8,254.1c-0.2-2-0.2-4-0.7-5.7c-0.1-0.6-1.8-1.5-2.1-1.3c-1.7,1.3-3.5,2.6-4.7,4.4
						c-1.3,2-2.3,4-4.1,5.7c-3,3.2-6.2,6.4-7.8,10.7c-0.4,1.2-0.3,1.9,0.8,2.6c2.9,1.8,5.4,0.4,7.8-0.9c5.7-3.1,7.2-9.2,10.5-14.1
						C144.9,255.1,144.8,254.5,144.8,254.1z M116.2,271c3.5-0.1,4.7-2.2,6.1-3.9c3-3.8,5.9-7.9,9.1-11.6c2.7-3.1,4.3-6.6,5.8-10.3
						c0.1-0.3-0.1-0.9-0.4-1.2c-1-0.9-6.3-0.5-7.2,0.6c-1.5,1.9-3,3.8-4.3,5.8c-2.7,4-5.3,7.9-7.9,12c-1.1,1.7-2.1,3.6-2.8,5.5
						C114,269.7,115.1,271,116.2,271z"/>
					<path class="st8" d="M368,262.5c-2.7,2.5-5.3,4.7-7.7,7.2c-1.1,1.1-1.8,2.6-2.7,3.8c-0.9,1.2-1.9,2.5-3.6,1.5
						c-2.1-1.2-2.6-2.9-1.3-4.8c1.6-2.4,3.2-4.8,5-7.3c-2.5-0.9-5.2-2.3-8-3c-4.4-1.1-8.9-1.6-13.3-2.5c-1-0.2-2.1-0.4-3-0.9
						c-3.8-1.8-7.8-1.8-11.9-1.1c-1.8,0.3-3.7-0.3-5.5-0.3c-2.8,0-5.7,0.1-8.5,0.2c-1.6,0-1.5,1.3-1.3,2.1c1.2,4.6,2.5,9.1,3.8,13.6
						c0.2,0.6,0.9,1.1,1,1.6c0.7,2.4,1.4,4.7,2.1,7.1c0.4,1.5,0.6,3.2,0.8,4.7c0.1,0.4,0,0.8,0.1,1.1c1.8,4.7,1.4,9.6,2.2,14.4
						c0.4,3.1,2,6.1,3.6,8.8c1.8,3.2,4.9,5,7.6,7.4c1.4,1.3,2.9,2.3,4.3,3.4c1.8,1.3,3.9,2.1,5.9,3.1c1.5,0.8,2.9,1.8,4.4,2.3
						c1.8,0.6,3.7,1,5.6,1.1c1.5,0.1,2.2-2.1,1-3.3c-4.2-3.8-8.3-7.7-12.7-11c-2.9-2.2-3.3-2.4-0.8-5.7c4.9,3.8,10,7.4,14.5,11.7
						c2,1.8,3.8,3.2,6.2,3.8c2.7,0.7,7.1-2.8,6.3-5.4c-0.5-1.7-2-3.2-3.3-4.5c-2.4-2.5-5.1-4.7-7.6-7.1c-0.9-0.9-1.5-2.1-2.3-3.2
						c1.8-1.3,3-1,4.3,0.4c3.2,3.2,6.4,6.3,9.7,9.5c0.4,0.4,0.8,0.8,1.3,0.9c1,0.3,2.1,0.4,3.2,0.6c-0.1-1.1,0-2.1-0.1-3.2
						c-0.1-0.7-0.6-1.4-0.8-2.1c-1.5-6.5-5.8-10.9-10.7-14.9c-2.4-2-2.7-2.6-1.2-5.5c7.2,2.5,10.4,9.2,14.8,14.3
						c0.4,1.5,0.9,2.7,1.3,4c0.8,3,3.2,5.7,1.6,9.3c-0.8,1.8-2,2.4-3.7,2.6c-1.5,0.2-1.9,0.8-2,2.3c-0.1,1.3-0.9,2.6-1.9,3.5
						c-2.8,2.8-6.6,4.5-10.3,2.9c-2.3-1-2.5-0.8-2.8,1.7c-0.1,1.3-0.7,2-2.1,2.5c-3.8,1.5-7.4,0.1-10.8-1c-9.5-3-17.3-8.4-23.3-16.3
						c-3.4-4.5-4.2-9.8-4.2-15.2c0.1-6.4-1.1-12.4-2.6-18.5c-1.2-4.8-3-9.5-4.5-14.3c-1-3.3-1.8-6.8-2.7-10.2
						c-0.6-2.1,1.1-3.8,3.2-3.8c5.6-0.1,11.1-0.6,16.7-0.8c4.6-0.1,9.2-0.7,13.8,0.6c1.5,0.4,3.5,1.3,5.4,0.4
						c0.7-0.3,1.9,0.4,2.9,0.7c0.4,0.1,0.8,0.3,1,0.3c2.4-0.6,4.3,0.4,6.2,1.6c1.1,0.6,2.7,0.1,4,0.6c3.1,1,6.3,2,9.2,3.5
						C365.4,258.9,366.4,260.9,368,262.5z"/>
					<path class="st8" d="M360.3,219c-5,0.1-3.9-3.7-4.5-6.2c-0.7-3.1-0.8-6.3-1.4-9.4c-0.4-1.9-1.2-3.7-1.8-5.5
						c-1.7-5-3.5-10-5-15.1c-0.8-2.5-1-5.2-1.5-7.8c-0.7-3.8-1.1-7.7-2.1-11.5c-0.4-1.8-1.6-3.5-2.7-5.2c-0.2-0.3-1.3-0.2-1.8,0.1
						c-3.7,1.8-7.3,3.9-11.1,5.5c-7.1,3.1-12.9,8-18.5,13c-3.2,2.8-6.1,6-8,10c-0.6,1.2-1.6,2.3-2.4,3.3c-2.4-1.3-2-2.9-1.3-4.6
						c2.3-5.4,5.4-10.2,10.1-13.6c4.9-3.6,9.6-7.6,14.8-10.7c5.2-3.2,11-5.5,16.7-8.4c-1.3-3.8-2.8-7.8-4-11.6
						c-4.4,1.4-8.4,2.5-12.3,3.9c-2,0.7-4,1.7-5.8,2.8c-1.6,0.9-3,2-4.9,1.4c-0.2-0.1-0.6,0.3-1.4,0.6c0.8,0.2,1,0.3,1.8,0.5
						c-6.8,4.2-13.1,8.4-18.9,13.4c-6,5.2-8.7,12.3-12.4,18.7c-2-0.6-2.1-1.8-1.6-3.2c2.7-7.8,7.2-14,13.2-19.7
						c6.8-6.4,15.1-10.5,22.6-15.7c4.7-3.2,10.1-5,15.8-5.6c1.1-0.1,2.2,0.9,3.3,1.4c0-0.1,0-0.7-0.2-1.2c-1.8-3.8-3.7-7.5-5.6-11.3
						c-0.9-1.9-1.9-3.8-2.4-5.8c-0.2-0.8,0.9-1.8,1.4-2.8c3,5.1,5.9,9.6,8.2,14.5c1.9,3.8,3,8.1,4.5,12.1c0.8,2.2,1.8,4.4,2.5,6.6
						c2.5,7.3,5.2,14.6,7.4,21.9c1.9,6.2,3.4,12.6,5.1,19c0.6,2.4,0.9,4.9,1.4,7.3c0.1,0.8,0,1.8,0.4,2.4c3.1,3.9,1.8,8.8,3,13.2
						C361,216.7,360.4,218,360.3,219z"/>
					<path class="st8" d="M14.9,297.9c3.3-3,6-5.4,8.6-7.8c3.3-3,7.3-2.6,10.2,0.9c3.2,3.8,6.6,7.4,10,11.1
						c3.4,3.7,5.8,7.8,7.6,12.4c1.4,3.7,3.7,7,5.5,10.5c1.2,2.4,2,5,3,7.4c0.9,2.1,2,4.2,2.9,6.3c1.4,3.5,1.1,3.8-2.8,3.5
						c-0.1-0.3-0.2-0.6-0.3-0.9c-1.4-4.9-3.4-9.6-5.8-14.1c-2-3.8-3.5-7.8-5.4-11.5c-1.9-4-3.7-8-7-11.2c-3.2-3-6-6.3-8.9-9.6
						c-0.8-0.9-1.4-2.1-1.8-3.3c-0.6-1.6-2.4-2.5-3.7-1.4c-2.9,2.3-5.6,4.7-8.5,7.1c-1.1,0.9-2.4,1.8-3.5,2.6
						c-0.6,0.5-1.3,0.9-1.8,1.5c-1.8,2.3-4.5,2.7-6.7,0.8c-5.2-4.5-7-10.3-6.1-17c0.1-0.6,0.7-1.1,1.1-1.8c-1.8-1.1-1.8-3-1.3-5.2
						c0.8-3.4,1-6.9,2.1-10.2c1.1-3.3,1.6-7.1,5-9.3c2-1.3,3.6-1.1,5.4,0.1c0.8,0.6,1.5,1.3,2.3,1.8c4.4,3.5,8.9,7.1,13.3,10.6
						c2.1,1.7,4.1,3.6,6.4,5c4.4,2.8,7.6,7.2,12.9,8.8c3.7,1.1,5.8,4.5,7.9,7.5c1.8,2.5,3.4,5.3,5.4,7.8c-0.2-2.5-0.4-5-0.6-7.5
						c-0.2-2.1-0.4-4.4-0.8-6.5c-1-4.9,1.8-8.5,4.3-12.2c1.5-2.2,3.6-4,6.6-4.8c0.2,2.1-0.2,3.5-1.8,5c-2.5,2.3-5.7,4.4-6.1,8.3
						c-0.1,1.5,0,3.2,0.2,4.7c0.6,5.7,1.2,11.4,1.8,17c0.2,2,0.8,4.4-2.3,5.3c-0.6-0.7-1.3-1.4-1.7-2.2c-2.3-4-4.2-8.3-6.8-12.2
						c-1.5-2.3-3.7-4-5.7-6c-1.1-1-2.3-1.8-3.5-2.7c-0.2-0.2-0.4-0.4-0.8-0.5c-5.2-1.8-9-5.7-13.1-9c-4.1-3.3-8.5-6.4-12.6-9.5
						c-1-0.8-2-0.7-2.5,0.4c-1.1,2.7-2.5,5.5-2.8,8.4c-0.5,3.6-0.2,7.3,0,11c0.1,1.8,0.8,3.5,1.2,5.4c0.2,0.8,0.3,1.6,0.6,2.4
						C14.3,295.9,14.5,296.6,14.9,297.9z M11.8,297.8c-0.9-2.5-1.8-4.4-2.2-6.4c-0.5-2.3-0.6-4.7-0.8-7.1
						c-0.4-6.4-0.2-12.7,3.7-18.3c1.1-1.5,0.6-2.5-0.7-3.3c-1.3-0.9-2.7-1.6-4,0.1c-0.8,1.1-1.6,2.2-2.1,3.5c-2.1,6.1-3.5,12.5-3,19
						c0.3,4.4,0.4,9,3.7,12.7C8.6,300.2,10.7,300.1,11.8,297.8z"/>
					<path class="st8" d="M357.2,227c-2.7-0.4-5.6-0.9-8.3-1.3c-10.5-1.6-21-2.3-31.5,0.1c-2.2,0.5-4.2,2-6.3,3
						c0,0.4,0.1,0.8,0.1,1.1c1.1,0.5,2.3,1.4,3.4,1.4c8.6,0.3,17.2,0.3,25.9,0.8c4,0.2,8,1.5,12,1.7c5,0.3,9.3,2.2,13.6,4.4
						c1.3,0.7,2.4,2,3.4,2.8c-0.6,3.5-2.3,5.7-5.8,6c-1.8,0.1-3.5,0-5.3-0.2c-4-0.5-8.1-1.3-12.1-1.7c-3.8-0.4-7.6-0.6-11.4-0.9
						c-1.8-0.1-3.6-0.4-5.4-0.4c-5.9,0.2-11.8-0.8-17.5,1.7c-1.3,0.6-2.7,1.1-4.1,1.1c-1,0-1.9-0.8-2.8-1.3c0.6-1.1,0.9-3,1.8-3.3
						c4.4-1.6,8.8-3.3,13.7-3.2c6.8,0.3,13.6,0.1,20.5,0.6c4.2,0.3,8.4,1.4,12.6,2.1c3.2,0.4,6.4,0.7,9.5,1c0.1-0.3,0.2-0.5,0.2-0.8
						c-1.5-0.7-3-1.6-4.6-2.1c-9.8-2.7-19.8-3.4-30-3.3c-5.3,0.1-10.7-0.6-16-1.5c-2.4-0.4-4.3-2.2-5-4.8c-0.7-2.6,0.9-4.4,2.6-5.8
						c4.2-3.7,9.6-4.1,14.8-4.4c10.1-0.5,20.2,0.4,30.1,2.5C358.4,223.1,358.7,223.8,357.2,227z"/>
					<path class="st8" d="M261.9,228.9c0,2,0.2,3.7-0.1,5.4c-0.4,3.2-1.1,6.4-1.4,9.6c-0.4,4.1-0.5,8.3-0.8,12.4
						c-0.2,3.3-3,6-6.2,6.3c-5.6,0.6-11.1,1.2-16.6,1.8c-0.7,0.1-1.3,0-2-0.1c-6.6-0.8-13.4-0.8-19.9-2.8c-3.2-0.9-6.7-0.8-10-1.5
						c-1.9-0.4-3.4-2.2-5.3-2.8c-4.8-1.6-9.7-2.8-14.4-4.4c-2.3-0.8-4.5-2.1-6.6-3.4c-3.8-2.3-4.2-6.5-4.1-10.2
						c0.2-6.7,1.1-13.4,2.1-20c0.4-2.5,0.8-5.5,4.3-6.7c-0.3,2-0.6,3.9-0.9,5.7c-0.8,5.5-1.5,11-2.4,16.5c-0.5,3-0.6,6,1,8.8
						c0.5,0.9,1.1,2,1.9,2.5c5.2,3.6,11.2,5.1,17.2,6.4c1.6,0.3,3.3,0.9,4.8,1.9c2.8,1.8,5.4,3.3,9,2.8c2-0.3,4.2,0.2,6.2,0.9
						c4.9,1.6,10,1.5,15,1.8c3.6,0.3,7.3-0.4,10.9-0.7c2.8-0.2,5.7-0.5,8.5-0.6c2.9-0.1,4.9-2.1,5.1-5c0.5-6.7,1-13.5,1.8-20.2
						C259.1,231.3,259.3,229,261.9,228.9z"/>
					<path class="st8" d="M292,264.4c-0.6,2.3-1.3,3.8-3.3,4c-7.6,0.9-15.3,2-22.9,2.5c-8.5,0.5-17,0.6-25.6,0.6
						c-3.2,0-6.3-0.8-9.4-1.1c-7.4-0.9-14.8-1.6-22.2-2.8c-5-0.8-9.9-2.5-14.9-3c-2.6-0.3-4.7-2-6.9-1.9c-2.1,0.1-3.8-0.1-5.6-1.1
						c-0.8-0.4-1.5-1.2-2.4-1.6c-0.7-0.3-1.5-0.3-2.3-0.4c-0.2,0-0.6,0.3-0.8,0.1c-3-1.6-6.9-1-9.5-3.7c-0.8-0.8-2.4-0.8-3.7-0.8
						c-1.7,0.1-3-0.1-4-1.7c-0.5-0.9-1.7-1.3-2.6-2c0.1-0.3,0.2-0.4,0.2-0.7c2,0.5,4,0.9,6.1,1.5c5.7,1.6,11.4,3.3,17,5
						c4.7,1.4,9.3,3.1,14.1,4.1c5.1,1.1,10.4,1.6,15.6,2.3c4.5,0.6,9.1,1.3,13.6,1.9c1.7,0.3,3.5,0.1,5.2,0.4
						c8.6,1.1,17.2,1.6,25.9,1.2c8.5-0.4,17-0.9,25.4-1.5c2.2-0.1,4.2-1,6.4-1.3C287.7,264.3,289.8,264.4,292,264.4z"/>
					<path class="st8" d="M222.2,27.8c-0.6-2.3,1.1-3.7,2.4-5c2.4-2.5,5-4.7,7.4-7.3c3-3.2,6-6.5,8.9-9.9c3.1-3.7,7.4-4.5,11.8-5.2
						c8-1.3,15.4,1.4,22.9,3.2c4.2,1,8.5,1.6,12.6,3c6.4,2.2,13.2,3.7,18.7,7.8c3.5,2.6,7.2,5.2,9.1,9.2c1.2,2.5,1.8,5.4,2.1,8.2
						c0.4,5.8,0.4,11.7,0.6,17.5c0,1-0.4,2.1-0.8,3.3c-1.8-0.9-2.5-1.8-2.3-3.6c0.2-2.8,0-5.7-0.1-8.5c-0.1-2.8-0.3-5.5-0.4-8.4
						c-0.1-4.5-1.8-8.2-5.8-10.7c-2.2-1.4-4.1-3.2-6.2-4.8c-0.6-0.5-1.4-1-2.1-1.3c-3.7-1.2-7.3-2.5-10.9-3.5
						c-4.2-1.1-8.5-2-12.6-3.1C274.7,8,272,7,269.1,6.2c-4.8-1.4-9.7-2.2-14.6-2c-3.4,0.1-6.4,1.3-8.9,3.4
						c-5.7,4.7-11.2,9.5-16.7,14.4c-2.1,1.9-3.8,4.2-5.8,6.2C222.7,28,222.4,27.9,222.2,27.8z"/>
					<path class="st8" d="M230.4,126.6c1.4,0.4,2.4,0.4,2.9,0.9c5,4.7,11.2,6.4,17.7,7.8c1.1,0.3,2.2,0.4,3.3,0.3
						c0.8-0.1,2-0.4,2-0.9c0.2-0.8,0-2.1-0.5-2.7c-1.7-2-3.5-3.9-5.4-5.7c-2.5-2.3-2.5-2.3-0.7-5.5c3.5,1.6,5.1,5.2,7.6,7.8
						c0.9,0.9,2,2,3.1,2.3c2.8,0.7,5.5,2.7,8.6,1.3c0.4-0.2,0.8-0.4,1.5-0.9c-0.9-0.8-1.7-1.4-2.4-2.1c-1.8-1.8-3.9-3.4-5.4-5.4
						c-0.6-0.8,0.2-2.6,0.3-3.4c2.3,0.4,4,0.8,5.7,1c1.3,0.2,2.2-0.3,2.9-1.6c1.2-2.3,3.2-2.8,4.9-1.6c0.9,0.6,0.8,4.2-0.2,5.2
						c-1.3,1.3-2.7,2.3-4.1,3.6c0.5,1.3,1.2,3,1.9,4.7c0.9,2.1,0,3.8-2.2,4.6c-3.2,1-6.4,1-9.5-0.1c-0.6-0.2-1.8-0.1-1.9,0.3
						c-1.8,4.5-5.7,3.8-8.9,3c-4.5-1.1-9.1-2.7-13.3-4.7c-2.7-1.3-4.9-3.6-7.2-5.5C230.6,128.8,230.7,128,230.4,126.6z"/>
					<path class="st8" d="M199.3,110.5c2.1,3.8,2,3.8-1.8,5.3c-3.2,1.3-6.2,3-9.2,4.8c-1.2,0.8-1.8,2.4-2.4,3.8
						c2.8-0.1,5.6,0.5,7.2-2.4c1.4-2.6,4-3.7,6.9-4.7c0.9,2.1-0.1,3.5-1.4,4.8c-1.4,1.5-2.7,3.1-4.4,5.1c1.3,0.4,2,0.6,2.6,0.7
						c3.3,0.1,6.6,0.4,9.9,0.1c5.1-0.5,9.9-2.3,14.4-4.7c1.1-0.6,2.2-1.4,2.9-0.2c0.6,0.9,1.3,2.7-0.2,3.5c-2.8,1.5-5.6,3-8.6,4
						c-6.4,2.3-13.1,1.6-19.7,1.5c-1.2,0-2.5-1.4-3.5-2.4c-0.9-0.9-1.6-1.4-2.9-1c-2.7,0.9-4.9-0.7-6.8-2.1
						c-1.6-1.1-0.9-2.8-0.2-4.4c2.3-5.9,7.4-8.5,12.9-10.5C196.4,111.4,197.8,111,199.3,110.5z"/>
					<path class="st8" d="M236.3,171.8c1.3,1.2,2.5,2.2,3.6,3.3c1.4,1.5,2.8,3,4.3,4.5c1.1,1.1,2.5,1.9,3.5,3.1
						c1.3,1.5,2.2,1.1,3.5-0.1c3.8-3.3,7.6-6.5,11.5-9.7c4.3-3.5,8.7-7,13-10.4c1.3-0.9,2.7-1.8,4.2-2.3c0.8-0.3,2,0.4,2.9,0.7
						c-0.3,1.1-0.3,2.8-1.1,3.4c-5.1,4.4-10.4,8.4-15.6,12.6c-4,3.2-7.9,6.5-11.7,9.8c-3.1,2.6-4.6,3.3-8,0.6
						c-1.8-1.5-3.4-3.1-5.1-4.8c-2-2.1-4.1-4.1-5.9-6.4C233.6,173.9,233.8,173.4,236.3,171.8z"/>
					<path class="st8" d="M101.6,249c-0.2,3.9-2.5,4.3-5.3,4.5c-3.9,0.4-7.4-0.2-10.9-2.1c-3.3-1.8-3.5-7-2.8-10.2
						c0.6-2.4,3.3-3.4,6.9-3.2c2.2,0.1,4.7,0.4,6.7-0.3c2-0.6,4-2.1,5.6-3.7c4.6-4.3,10.2-6.2,16.2-7.1c3.7-0.6,7.4-0.9,11.2-0.9
						c2.3-0.1,4.7,0.4,6.4,2.5c-0.9,1.3-1.8,2.1-3.7,1.8c-5.5-1.1-10.8,0.4-16.2,1.3c-4.5,0.8-8.4,2.7-12.5,4.4
						c-0.3,0.1-0.8,0.2-1,0.4c-3.5,3.5-7.8,4.9-12.7,5.1c-1.7,0.1-4.2-0.4-4.2,2.5c-0.1,2.7,2.5,5.2,5.2,5.7
						c3.2,0.6,6.1-0.2,9.1-0.8C100.2,248.8,100.9,249,101.6,249z"/>
					<path class="st8" d="M264.9,342.3c-5.8,0.8-7.9,0.4-10.5-1.6c-0.4,0.6-0.7,1.2-1.1,1.8c-1.8,0-3.6,0-5.9,0
						c0.7-1.7,1.3-3.2,2-5.1c-0.6-0.4-1.6-0.9-2.6-1.6c-4.6-3.3-9.2-6.7-13.8-10c-0.3-0.3-0.6-0.6-0.9-0.6c-4,0.3-6.7-3-10.2-4.1
						c-1.8-0.5-3.3-2-5-3c-0.6-0.3-1.3-0.4-1.8-0.6c-0.8-0.2-1.6-0.2-2.2-0.6c-1.7-1.1-3.2-3-5-3.5c-2.8-0.6-4.3-2.8-6.4-4.4
						c-1.2-0.9-1.9-2.5-2.8-3.8c-0.1-0.2,0.3-0.7,0.4-1.1c0.3,0.2,0.8,0.3,0.9,0.6c1.8,3.7,5.2,5.4,8.6,6.9c2.5,1.2,5,2.3,7.5,3.3
						c2.1,0.9,4.4,1.6,6.5,2.6c2.6,1.1,5.2,2.5,7.8,3.7c4,1.9,8.1,3.6,12,5.7c2.8,1.6,5.4,3.7,8.1,5.4c1,0.7,2.3,0.9,3.4,1.5
						c1.1,0.7,2.1,1.6,3,2.5c0.4,0.3,0.4,1.1,0.8,1.3C260,339.3,262.4,340.8,264.9,342.3z"/>
					<path class="st8" d="M223.1,70.8c-0.1,1.2,0.1,2.5-0.2,3.5c-1.7,5.3-3.7,10.5-5.3,15.8c-1.3,4.5-2.3,9.1-3.2,13.8
						c-0.3,1.6,0,3.3,0.3,4.9c0.3,1.6,2.1,2.1,3.5,0.7c1.4-1.4,2.7-3.2,3.8-5c1-1.8,1.5-3.8,2.5-5.5c0.5-0.9,1.5-1.5,2.3-2.1
						c0.3,0.1,0.6,0.1,0.9,0.3c0.1,1.2,0.5,2.5,0.1,3.6c-1.5,4.4-3.2,8.8-7.1,11.8c-3.7,2.7-7.8,1.4-9.5-2.9c-1.6-4-1-8,0.2-11.9
						c2.4-7.5,5-14.9,7.7-22.4c0.6-1.8,1.9-3.3,2.8-4.9C222.3,70.5,222.7,70.6,223.1,70.8z"/>
					<path class="st8" d="M267.8,197.2c-1.6,0.4-3,0.9-4.4,1c-5,0.2-9.9,0.2-14.9,0.3c-4.9,0.1-9.7,0.2-14.5,0.3
						c-0.4,0-0.9,0.1-1.3-0.1c-2.3-0.9-4.5-1.3-6.9-0.6c-1.6,0.4-3.5,0.8-4.9-0.9c-0.2-0.3-0.8-0.6-1.1-0.6
						c-3.7-0.6-7.4-1.1-11.2-1.6c-1.1-0.1-2.1,0-3.1-0.3c-1.3-0.4-2.7-0.9-4-1.4c-0.4-0.1-0.9-0.3-1.2-0.5c-1.5-1.1-3.1-1.8-5.2-1.6
						c-1.4,0.1-3-1.1-4.5-1.7c-2.4-0.8-4.8-1.5-7.3-2.3c-0.6-0.2-1.1-0.5-1.7-0.8c0.1-0.3,0.1-0.5,0.2-0.8c2.1,0.4,4.2,0.7,6.3,1.3
						c2.8,0.8,5.5,2,8.3,2.8c7.8,2.1,15.6,4.1,23.4,5.9c2.3,0.5,4.8,0.1,7.2,0.2c5.2,0.1,10.3,0.5,15.5,0.3c4.5-0.2,8.9-1,13.4-1.5
						c3-0.4,6.1-0.7,9.2-1C266.2,193.2,267,194.4,267.8,197.2z"/>
					<path class="st8" d="M278.8,305.7c-1.3-1.5-2-2.6-3.9-1.3c-1.7,1.1-4.2,0.9-5.9,2.1c-3.4,2.3-8,1.3-11.2,4.5
						c-1.3,1.3-3.5,1.6-5.2,2.4c-2.4,1.2-4.8,2.5-7.5,3.3c1.1-1,2-2.3,3.2-3c4.6-2.5,9.2-4.8,13.9-6.9c3.7-1.7,7.6-3.3,11.5-4.4
						c2.7-0.7,5.6-0.4,8.5-0.4c0.4,0,1.1,1.3,1,1.8c-0.4,1.8-0.9,3.7-3,4.5c-3.2,1.1-6.4,2.1-9.7,3.3c-4.3,1.6-8.5,3.4-12.8,5
						c-0.9,0.3-1.8,0.4-2.5,0.9c-1.2,1-2.4,2-3.6,3c-2.2-1.4-1.3-2.6-0.1-3.5c4.2-3.2,8.6-5.7,13.8-7
						C269.9,308.9,274.3,307.2,278.8,305.7z"/>
					<path class="st8" d="M225.5,33.5c3.8,0.3,7.6,0.5,11.4,1c8.6,1.2,17.1,2.5,25.6,3.8c4.6,0.8,9.2,1.8,13.7,2.6
						c1.8,0.3,3.6,0.3,5.4,0.7c3,0.6,5.9,1.5,8.9,2.2c3.3,0.8,6.6,1.3,9.8,2.3c3.2,0.9,6.2,2.1,9.2,3.6c2,0.9,3.6,2.5,5.3,3.8
						c0.3,0.3,0.6,0.9,0.6,1.1c-0.2,0.4-0.7,0.8-1.1,0.9c-0.4,0.1-1.1-0.1-1.5-0.3c-5.4-2.1-10.9-4.3-16.3-6.5
						c-1.8-0.8-3.5-1.8-5.4-2.4c-1.3-0.5-2.8-0.6-4.3-0.8c-0.5-0.1-1.1,0-1.4-0.3c-3.2-2.4-6.9-3.1-10.8-2.8
						c-0.5,0.1-1.1,0.2-1.6-0.1c-5.2-2.3-10.8-3.2-16.5-3.9c-5.9-0.8-11.7-1.7-17.5-2.6c-2.3-0.3-4.6-0.8-6.9-0.9
						c-1.8-0.1-3.6,0.1-5.4,0c-0.4,0-0.9-0.4-1.3-0.6C225.3,34.1,225.4,33.8,225.5,33.5z"/>
					<path class="st8" d="M150.4,288c0,6,0,11.9,0,17.7c0,5.4-1,11,0.1,16.3c1.3,6.5,0.9,13,1.4,19.5c0,0.3-0.1,0.6-0.2,0.9
						c-1.4,0-2.8,0-4.2,0c0-2.6,0.3-5.1-0.1-7.6c-1-8.3-0.4-16.6,0.4-24.9c0.1-0.9,0.9-1.7,1.1-2.2c0.6-1.8,0.4-3.8,0.3-5.8
						c-0.1-2-0.6-4.1-0.8-6.1c-0.1-1.5,0-3-0.2-4.5C148,289.5,148.2,288.2,150.4,288z"/>
					<path class="st8" d="M298.3,194.6c-2.7,2.1-5.2,4.2-7.7,6.3c-1,0.9-2,0.6-2.4-0.4c-0.2-0.6-0.1-1.7,0.3-2.2
						c1-1.1,2.2-2,3.7-3.2c-4.2-2.1-8-4.1-11.9-6.1c-0.2,0.2-0.4,0.4-0.7,0.6c1.5,2.6,1.6,5.2,0.7,7.9c-0.3,0.8-0.8,1.6-1.2,2.4
						c-0.8-0.8-2-1.4-2.1-2.3c-0.4-2.4-0.2-5-0.6-7.4c-0.3-1.7-0.2-3.3,0.8-4.6c0.4-0.5,1.4-1,1.9-0.8c3.2,1.1,6.3,2.3,9.3,3.8
						C291.6,190.3,294.6,192.4,298.3,194.6z"/>
					<path class="st8" d="M195,213.2c2.4,0.4,4.8,0.9,7.2,1.3c7,1.1,14.1,2,20.9,4c5.2,1.5,10.8,1.5,16.2,2c3.2,0.3,6.4,0.1,9.6,0.1
						c3.9-0.1,4,0.1,2.9,4.5c-5.5-0.5-11.4-0.3-16.7-1.8c-3.1-0.9-6-1-9.1-1.4c-1.8-0.3-3.3-1.8-5.1-2.1c-4.5-1-9-1.7-13.5-2.6
						c-2.6-0.6-5.1-1.4-7.7-2.1c-1.7-0.4-3.4-0.7-5.1-1.1C195,213.7,195,213.4,195,213.2z"/>
					<path class="st8" d="M289.9,208.4c-0.1,5-3.7,7.5-9,5.7c-2.2-0.8-4.5-2-6.1-3.6c-2.2-2.3-0.3-4.7,1.2-6.8c1.5-2.1,4-3,6.1-2.5
						c0.8,0.2,1.7,0.1,2.5,0c1.7-0.3,5.1,2.6,5.3,4.7C290,206.7,289.9,207.5,289.9,208.4z M283.6,210.2c0.2,0,0.9,0.2,1.4-0.1
						c0.7-0.3,1.6-0.7,1.8-1.3c0.2-0.4-0.2-1.4-0.6-1.9c-1.3-1.8-3.2-2.5-5.2-1.8c-1.2,0.4-2,1.8-3,2.7c1,0.7,1.9,1.6,3,2.1
						C281.6,210.3,282.4,210.2,283.6,210.2z"/>
					<path class="st8" d="M164.6,200.9c-2.8-0.1-5.2-0.1-6.2-2.8c-1-2.7-0.4-5.2,1.7-7.1c1.6-1.4,3.6-2.6,5.5-3.6
						c1.1-0.5,2.8-1.1,2.8,1.3c0,0.2,0.4,0.5,0.6,0.6c3.2,1.5,3.5,4.6,3,7.1c-0.5,2.3-2.9,3.7-5.4,4.2
						C165.9,200.9,164.9,200.9,164.6,200.9z M163.4,197.3c1.7-0.6,3.3-0.9,4.8-1.6c1.1-0.5,1.4-1.4,0.2-2.4c-2.5-2.2-4.2-2-6.3,0.8
						c-0.4,0.6-0.9,1.5-0.8,1.9C161.7,196.6,162.6,196.8,163.4,197.3z"/>
					<path class="st8" d="M307.7,225.3c-3.1,1.6-6.2,0.6-8.8-2.8c-3.2-4.4-3.6-9.4-3.8-14.6c0-0.8,0.4-1.6,1-2.3
						c0.2-0.3,1.4-0.5,1.4-0.4c1,1.6,2.5,3.2,2.5,4.9c0,4.5,2.6,7.8,5.1,10.9C306.7,223.1,307,222.9,307.7,225.3z"/>
					<path class="st8" d="M139.3,222.4c1.4,2.9,7.2,3.7,3.8,8.8c-0.4-0.3-1.1-0.4-1.3-0.8c-1.3-3.3-4.6-3.8-7.3-5.1
						c-1.6-0.8-3.7-1-3.1-3.6c0.5-2.3,2.6-3.5,4.9-3.5c3.5-0.1,6,1.6,8.1,4.1c0.5,0.5,0.3,1.5,0.5,2.2c-0.9,0-1.9,0.2-2.7-0.1
						C141.1,223.9,140.2,223.1,139.3,222.4z"/>
					<path class="st8" d="M138.1,342.4c0.4-3,0.7-5.7,0.9-8.5c0.1-1.7,0.5-3.5,0.1-5.1c-0.6-2-0.2-3.3,1.5-4.9
						c3.6,6,3.2,12.1,1.2,18.4C140.8,342.4,139.7,342.4,138.1,342.4z"/>
					<path class="st8" d="M186.2,267.2c-6.6-1.7-13.2-3.3-20-5.1c0.3-0.6,0.5-1.1,0.7-1.6c-0.8-0.3-1.5-0.4-2.3-0.7
						c2.7-1.1,19.6,4.1,21.8,6.6C186.3,266.6,186.2,266.9,186.2,267.2z"/>
					<path class="st8" d="M351.5,276.5c1.3,0.3,2.5,0.6,3.7,0.8c3.5,0.5,5,3.9,3.4,6.6c-1.3,2-1.9,2.4-4.5,1.3
						c0-0.3-0.1-0.6,0.1-0.8c1.1-2.3,1-3.8-1.9-4.5c-0.8-0.2-1.1-1.8-1.6-2.8C351,276.6,351.3,276.6,351.5,276.5z"/>
					<path class="st8" d="M70,265.9c-0.1-0.8-0.4-1.6-0.3-2.3c1.1-5.5,4.5-9.6,9.3-12.5c0.6-0.4,1.6-0.1,2.4-0.1
						c-0.4,0.8-0.7,1.8-1.4,2.3c-1.2,0.8-2.7,1.2-4,1.9c-0.4,0.2-0.7,0.6-0.9,0.9c-1.3,3.1-2.6,6.2-3.9,9.3
						c-0.1,0.2-0.2,0.4-0.4,0.6C70.5,265.9,70.2,265.9,70,265.9z"/>
					<path class="st8" d="M329.6,342.2c1.4-3.3,2.8-6.5,4.2-9.7c1.6,1.2,2.6,4.2,2.1,5.5c-0.2,0.5-0.4,0.9-0.6,1.4
						C333.8,342.9,333.8,342.9,329.6,342.2z"/>
					<path class="st8" d="M175.3,105.8c-1.3,3.7-5,4.7-7.3,2.6c-0.3-0.3-0.6-1-0.5-1.1c0.6-0.6,1.2-1.6,1.9-1.6
						C171.3,105.4,173.2,105.6,175.3,105.8z"/>
					<path class="st8" d="M172.3,102.5c-1-0.4-2.4-0.9-3.6-1.6c-0.5-0.3-0.4-1.4-0.6-2.1c0.8-0.2,1.6-0.6,2.3-0.5
						c1.3,0.3,2.5,0.8,3.7,1.5c0.6,0.3,1.1,0.9,1.6,1.4c-0.6,0.4-1.3,0.8-2,1.1C173.3,102.4,173,102.4,172.3,102.5z"/>
					<path class="st8" d="M310.3,23.5c0.6,2.3,1.2,4.3,1.5,6.3c0.1,0.5-1.1,1.1-1.7,1.7c-0.7-0.8-1.7-1.5-2-2.3
						c-0.3-1-0.1-2.3,0.2-3.3C308.6,25,309.5,24.4,310.3,23.5z"/>
					<path class="st8" d="M207.5,77.9c0,1.1,0.2,2.3-0.1,3.3c-0.1,0.7-0.8,1.4-1.4,1.8c-0.2,0.2-1.2-0.3-1.5-0.7
						c-0.4-0.6-0.8-1.6-0.4-2.1c0.6-1.1,1.7-2,2.6-3C207,77.5,207.2,77.7,207.5,77.9z"/>
					<path class="st8" d="M294.8,22.4c0.8,0.9,1.1,1.3,1.6,1.8c0.2-0.4,0.3-0.6,0.6-1.2c0.7,1.3,1.4,2.4,1.8,3.6
						c0.1,0.5-0.4,1.2-0.7,1.8c-0.6-0.3-1.5-0.4-1.8-0.9C295.7,26.1,295.4,24.5,294.8,22.4z"/>
					<path class="st8" d="M250.8,78.8c0.2,0.9,0.7,1.8,0.7,2.6c0,0.8-0.5,1.6-0.8,2.4c-0.7-0.3-1.7-0.4-2-0.9
						c-0.4-0.6-0.2-1.6,0-2.3c0.3-0.8,1-1.4,1.5-2.1C250.5,78.5,250.6,78.6,250.8,78.8z"/>
					<path class="st8" d="M150.4,284.7c-0.5,0.6-0.8,1.1-1.3,1.7c-0.4-0.4-0.8-0.7-1.1-1.1c0.5-0.5,1-0.9,1.6-1.4
						C149.9,284.2,150.1,284.5,150.4,284.7z"/>
				</g>
			</g>
		</g>
	</g>
</g>
</svg>
